<svg version="1.1" viewBox="0.0 0.0 513.1049868766404 465.93700787401576" fill="none" stroke="none" stroke-linecap="square" stroke-miterlimit="10" xmlns:xlink="http://www.w3.org/1999/xlink" xmlns="http://www.w3.org/2000/svg"><clipPath id="p.0"><path d="m0 0l513.105 0l0 465.937l-513.105 0l0 -465.937z" clip-rule="nonzero"/></clipPath><g clip-path="url(#p.0)"><path fill="#000000" fill-opacity="0.0" d="m0 0l513.105 0l0 465.937l-513.105 0z" fill-rule="evenodd"/><defs><radialGradient id="p.1" gradientUnits="userSpaceOnUse" gradientTransform="matrix(15.364426324879524 0.0 0.0 15.364426324879524 0.0 0.0)" spreadMethod="pad" cx="15.898435518663238" cy="14.586819286139395" fx="15.898435518663238" fy="14.586819286139395" r="15.364426612854004"><stop offset="0.0" stop-color="#e4f0f2"/><stop offset="1.0" stop-color="#8fbdc4"/></radialGradient></defs><path fill="url(#p.1)" d="m72.74278 224.1181l0 0c0 -89.57449 76.7955 -162.18896 171.52756 -162.18896l0 0c45.49193 0 89.12065 17.087719 121.288315 47.504047c32.167633 30.416336 50.239258 71.66974 50.239258 114.68492l0 0c0 89.57449 -76.7955 162.189 -171.52757 162.189l0 0c-94.732056 0 -171.52756 -72.6145 -171.52756 -162.189z" fill-rule="evenodd"/><path stroke="#000000" stroke-width="1.0" stroke-linejoin="round" stroke-linecap="butt" d="m72.74278 224.1181l0 0c0 -89.57449 76.7955 -162.18896 171.52756 -162.18896l0 0c45.49193 0 89.12065 17.087719 121.288315 47.504047c32.167633 30.416336 50.239258 71.66974 50.239258 114.68492l0 0c0 89.57449 -76.7955 162.189 -171.52757 162.189l0 0c-94.732056 0 -171.52756 -72.6145 -171.52756 -162.189z" fill-rule="evenodd"/><defs><linearGradient id="p.2" gradientUnits="userSpaceOnUse" gradientTransform="matrix(18.254577293182844 0.0 0.0 18.254577293182844 0.0 0.0)" spreadMethod="pad" x1="3.9849064146446542" y1="2.907770379066592" x2="3.9848401403238713" y2="21.16234767212913"><stop offset="0.0" stop-color="#76a5af"/><stop offset="1.0" stop-color="#134f5c"/></linearGradient></defs><path fill="url(#p.2)" d="m72.74278 219.69554l0 0c0 -92.01847 76.7955 -166.61418 171.52756 -166.61418l0 0c45.49193 0 89.12065 17.553944 121.288315 48.80016c32.167633 31.246223 50.239258 73.62519 50.239258 117.81402l0 0c0 92.01848 -76.7955 166.61418 -171.52757 166.61418l0 0c-94.732056 0 -171.52756 -74.5957 -171.52756 -166.61418zm12.7793045 0l0 0c0 84.96065 71.07401 153.83485 158.74826 153.83485c87.67424 0 158.74825 -68.87421 158.74825 -153.83485l0 0c0 -84.96065 -71.074005 -153.83487 -158.74825 -153.83487l0 0c-87.67424 0 -158.74826 68.87422 -158.74826 153.83487z" fill-rule="evenodd"/><path stroke="#000000" stroke-width="1.0" stroke-linejoin="round" stroke-linecap="butt" d="m72.74278 219.69554l0 0c0 -92.01847 76.7955 -166.61418 171.52756 -166.61418l0 0c45.49193 0 89.12065 17.553944 121.288315 48.80016c32.167633 31.246223 50.239258 73.62519 50.239258 117.81402l0 0c0 92.01848 -76.7955 166.61418 -171.52757 166.61418l0 0c-94.732056 0 -171.52756 -74.5957 -171.52756 -166.61418zm12.7793045 0l0 0c0 84.96065 71.07401 153.83485 158.74826 153.83485c87.67424 0 158.74825 -68.87421 158.74825 -153.83485l0 0c0 -84.96065 -71.074005 -153.83487 -158.74825 -153.83487l0 0c-87.67424 0 -158.74826 68.87422 -158.74826 153.83487z" fill-rule="evenodd"/><defs><linearGradient id="p.3" gradientUnits="userSpaceOnUse" gradientTransform="matrix(14.184228685770123 0.0 0.0 14.184228685770123 0.0 0.0)" spreadMethod="pad" x1="14.137443233378265" y1="7.910381020000674" x2="14.134554850153728" y2="22.09460941168509"><stop offset="0.0" stop-color="#76a5af"/><stop offset="1.0" stop-color="#134f5c"/></linearGradient></defs><path fill="url(#p.3)" d="m244.71144 112.22047c-9.681732 0 -16.903595 2.3890686 -21.665619 7.167206c-4.762024 4.7482758 -7.143036 10.795601 -7.143036 18.14199c0 7.34639 2.1760254 13.498245 6.528076 18.455566c4.3835754 4.957321 11.700058 7.435974 21.949448 7.435974c10.280914 0 17.833923 -2.3890686 22.659027 -7.167206c4.8566284 -4.7781525 7.2849426 -11.153976 7.2849426 -19.127487c0 -7.9735107 -2.5229187 -14.1104355 -7.5687866 -18.410767c-5.0143127 -4.330185 -12.362335 -6.4952774 -22.044052 -6.4952774zm-44.182724 70.14904l0 4.9722443l17.124344 0l0 121.08101l-15.989029 0l0 4.972229l86.33133 0l0 -4.972229l-16.272858 0l0 -126.05325z" fill-rule="evenodd"/><path stroke="#134f5c" stroke-width="1.0" stroke-linejoin="round" stroke-linecap="butt" d="m244.71144 112.22047c-9.681732 0 -16.903595 2.3890686 -21.665619 7.167206c-4.762024 4.7482758 -7.143036 10.795601 -7.143036 18.14199c0 7.34639 2.1760254 13.498245 6.528076 18.455566c4.3835754 4.957321 11.700058 7.435974 21.949448 7.435974c10.280914 0 17.833923 -2.3890686 22.659027 -7.167206c4.8566284 -4.7781525 7.2849426 -11.153976 7.2849426 -19.127487c0 -7.9735107 -2.5229187 -14.1104355 -7.5687866 -18.410767c-5.0143127 -4.330185 -12.362335 -6.4952774 -22.044052 -6.4952774zm-44.182724 70.14904l0 4.9722443l17.124344 0l0 121.08101l-15.989029 0l0 4.972229l86.33133 0l0 -4.972229l-16.272858 0l0 -126.05325z" fill-rule="evenodd"/></g></svg>