<svg version="1.1" viewBox="0.0 0.0 1007.9396325459318 455.59317585301835" fill="none" stroke="none" stroke-linecap="square" stroke-miterlimit="10" xmlns:xlink="http://www.w3.org/1999/xlink" xmlns="http://www.w3.org/2000/svg"><clipPath id="p.0"><path d="m0 0l1007.93964 0l0 455.59317l-1007.93964 0l0 -455.59317z" clip-rule="nonzero"/></clipPath><g clip-path="url(#p.0)"><path fill="#000000" fill-opacity="0.0" d="m0 0l1007.93964 0l0 455.59317l-1007.93964 0z" fill-rule="evenodd"/><path fill="#76a5af" d="m783.78217 359.64697l43.19684 -46.199097l0 21.59842l0 0c62.194702 -8.787079 110.3479 -35.72763 125.02167 -69.94656l0 0c21.45813 50.039917 -34.071472 100.29364 -125.02167 113.1434l0 21.59842z" fill-rule="evenodd"/><path fill="#5e838b" d="m956.5696 286.69815l0 0c0 -52.216995 -77.35956 -94.547226 -172.78741 -94.547226l0 -43.196854l0 0c95.42786 0 172.78741 42.330246 172.78741 94.54724z" fill-rule="evenodd"/><path fill="#000000" fill-opacity="0.0" d="m956.5696 286.69815l0 0c0 -52.216995 -77.35956 -94.547226 -172.78741 -94.547226l0 -43.196854l0 0c95.42786 0 172.78741 42.330246 172.78741 94.54724l0 43.19684l0 0c0 43.113403 -53.301758 80.76663 -129.59058 91.54498l0 21.59842l-43.19684 -40.19458l43.19684 -46.199097l0 21.59842l0 0c62.194702 -8.787079 110.3479 -35.72763 125.02167 -69.94656" fill-rule="evenodd"/><path stroke="#134f5c" stroke-width="1.0" stroke-linejoin="round" stroke-linecap="butt" d="m956.5696 286.69815l0 0c0 -52.216995 -77.35956 -94.547226 -172.78741 -94.547226l0 -43.196854l0 0c95.42786 0 172.78741 42.330246 172.78741 94.54724l0 43.19684l0 0c0 43.113403 -53.301758 80.76663 -129.59058 91.54498l0 21.59842l-43.19684 -40.19458l43.19684 -46.199097l0 21.59842l0 0c62.194702 -8.787079 110.3479 -35.72763 125.02167 -69.94656" fill-rule="evenodd"/><path fill="#d9ead3" d="m37.677166 306.48294l740.8819 0l0 134.89764l-740.8819 0z" fill-rule="evenodd"/><path stroke="#6aa84f" stroke-width="4.0" stroke-linejoin="round" stroke-linecap="butt" d="m37.677166 306.48294l740.8819 0l0 134.89764l-740.8819 0z" fill-rule="evenodd"/><path fill="#000000" fill-opacity="0.0" d="m42.29134 327.4908l750.89764 0l0 104.75589l-750.89764 0z" fill-rule="evenodd"/><path fill="#38761d" d="m63.29134 346.4283l0 -0.4375q0 -0.859375 3.5624962 -0.859375q1.796875 0 1.796875 0.65625q0 0.265625 -0.265625 0.546875q-1.265625 1.71875 -5.390621 8.765625l4.124996 0.03125q1.375 0 2.5 -1.109375q0.5625 -0.59375 1.015625 -1.109375q0.453125 -0.515625 1.015625 -1.484375q0.578125 -0.96875 0.90625 -1.53125q0.46875 -0.84375 1.625 -3.203125q0 -0.171875 0.25 -0.421875q0.25 -0.25 0.59375 -0.421875q0.359375 -0.1875 1.09375 -0.3125q0.734375 -0.140625 1.734375 -0.140625q1.0 0 1.0 0.4375q0 0.1875 -0.15625 0.4375q-0.140625 0.25 -1.734375 2.6875q-1.578125 2.4375 -3.1875 5.0625q-1.59375 2.609375 -3.375 5.671875q-1.78125 3.0625 -2.90625 5.59375q-1.109375 2.53125 -1.109375 3.703125q-0.203125 0.5625 -0.828125 0.5625q-1.8281212 0 -2.5312462 -0.296875q-0.703125 -0.296875 -0.703125 -0.90625q0 -1.03125 2.2187462 -4.828125q2.21875 -3.796875 2.21875 -4.609375q0 -0.8125 -0.671875 -1.21875q-0.671875 -0.40625 -2.2343712 -0.40625q-1.5625 0 -2.171875 0.03125q-1.125 1.84375 -2.59375 4.71875q-1.46875 2.859375 -2.46875 4.6875q-1.0 1.828125 -1.59375 2.296875q-1.234375 0.9375 -3.03125 0.9375q-1.03125 0 -1.03125 -0.53125q0 -0.296875 0.875 -1.78125q0.890625 -1.484375 2.84375 -4.671875q1.96875 -3.1875 3.40625 -5.578125l-2.03125 0.09375q-0.5 0 -0.5 -0.265625q0 -0.5625 0.71875 -1.125q0.71875 -0.578125 1.171875 -0.734375q0.46875 -0.171875 1.9375 -0.234375q1.234375 -2.109375 3.171875 -5.84375q0.734375 -1.59375 0.734375 -2.859375zm21.82835 11.0625l-2.828125 -0.09375q-2.109375 0 -3.234375 1.359375q-0.796875 1.0 -2.125 3.265625q-1.3125 2.265625 -1.3125 3.609375q0 1.21875 2.4375 1.21875q1.5 0 3.203125 -0.5625q3.421875 -1.125 5.421875 -4.328125q0.234375 -0.296875 0.796875 -0.296875q0.578125 0 0.578125 0.65625q0 0.640625 -1.078125 2.703125q-1.0625 2.0625 -1.890625 3.109375q-0.4375 0.53125 -1.6875 0.59375q-1.25 0.0625 -3.8125 0.0625l-3.265625 0l-1.90625 -0.03125l-0.890625 -0.0625q-0.03125 0 -0.234375 0q-0.203125 0 -0.5 0.296875q-1.109375 0.96875 -3.140625 0.96875q-0.96875 0 -0.96875 -0.4375l0 -0.09375q0 -0.375 2.3125 -4.359375q2.328125 -3.984375 5.15625 -8.875q2.84375 -4.90625 3.640625 -6.71875q0.796875 -1.8125 0.796875 -3.109375l0 -0.375q0 -0.5625 7.09375 -0.5625q2.34375 0 4.0625 0.0625q0.5 -0.5625 2.578125 -0.5625q0.859375 0 0.859375 0.4375q0 0.765625 -1.515625 3.078125q-1.515625 2.3125 -2.640625 3.15625q-0.375 0.296875 -0.9375 0.296875q-0.5625 0 -0.5625 -0.234375q0 -0.109375 0.09375 -0.265625q0.53125 -1.03125 0.53125 -2.34375q0 -1.828125 -2.53125 -1.828125q-1.53125 0 -2.421875 0.8125q-0.875 0.796875 -1.75 2.234375q-0.859375 1.421875 -1.28125 2.453125q-0.40625 1.03125 -0.40625 1.296875q0 0.796875 0.78125 0.984375q0.78125 0.1875 3.109375 0.1875l2.46875 -0.09375q0.328125 0 0.328125 0.25q0 0.25 -0.359375 0.828125q-0.34375 0.578125 -0.703125 0.8125q-0.734375 0.5 -2.265625 0.5zm7.1606293 11.234375l-0.46875 -0.03125q-0.453125 0 -0.6875 0.296875q-1.140625 0.96875 -3.078125 0.96875q-1.0 0 -1.0 -0.4375l0 -0.09375q0 -0.375 2.3125 -4.359375q2.328125 -3.984375 5.140625 -8.875q2.8125 -4.90625 3.625 -6.734375q0.828125 -1.828125 0.828125 -3.03125l0 -0.4375q0 -0.859375 3.5625 -0.859375q1.796875 0 1.796875 0.65625q0 0.265625 -0.265625 0.546875q-2.65625 4.328125 -7.0625 12.359375l-0.46875 0.828125q-0.46875 0.84375 -0.671875 1.1875q-0.1875 0.34375 -0.609375 1.203125q-0.421875 0.84375 -0.609375 1.375q-0.578125 1.5 -0.578125 2.34375q0 1.21875 2.203125 1.21875l0.234375 0q1.359375 0 3.0 -0.5625q3.203125 -1.125 5.203125 -4.328125q0.125 -0.296875 0.734375 -0.296875q0.625 0 0.625 0.53125q0 0.796875 -1.0625 2.875q-1.0625 2.0625 -1.9375 3.0625q-0.421875 0.59375 -1.65625 0.59375q-1.234375 0.0625 -5.34375 0.0625l-3.765625 -0.0625zm17.430573 0l-0.46875 -0.03125q-0.453125 0 -0.6875 0.296875q-1.140625 0.96875 -3.078125 0.96875q-1.0 0 -1.0 -0.4375l0 -0.09375q0 -0.375 2.3125 -4.359375q2.328125 -3.984375 5.140625 -8.875q2.8125 -4.90625 3.625 -6.734375q0.828125 -1.828125 0.828125 -3.03125l0 -0.4375q0 -0.859375 3.5625 -0.859375q1.796875 0 1.796875 0.65625q0 0.265625 -0.265625 0.546875q-2.65625 4.328125 -7.0625 12.359375l-0.46875 0.828125q-0.46875 0.84375 -0.671875 1.1875q-0.1875 0.34375 -0.609375 1.203125q-0.421875 0.84375 -0.609375 1.375q-0.578125 1.5 -0.578125 2.34375q0 1.21875 2.203125 1.21875l0.234375 0q1.359375 0 3.0 -0.5625q3.203125 -1.125 5.203125 -4.328125q0.125 -0.296875 0.734375 -0.296875q0.625 0 0.625 0.53125q0 0.796875 -1.0625 2.875q-1.0625 2.0625 -1.9375 3.0625q-0.421875 0.59375 -1.65625 0.59375q-1.234375 0.0625 -5.34375 0.0625l-3.765625 -0.0625zm36.69307 -18.203125q0 1.875 -0.75 4.28125q-0.75 2.390625 -2.21875 4.890625q-1.453125 2.5 -3.375 4.625q-1.921875 2.109375 -4.546875 3.46875q-2.609375 1.34375 -5.390625 1.34375q-2.78125 0 -4.375 -1.546875q-1.59375 -1.5625 -1.59375 -4.296875q0 -1.859375 0.734375 -4.25q0.75 -2.40625 2.21875 -4.90625q1.46875 -2.5 3.375 -4.59375q1.921875 -2.109375 4.53125 -3.453125q2.625 -1.359375 5.40625 -1.359375q2.796875 0 4.390625 1.53125q1.59375 1.53125 1.59375 4.265625zm-3.921875 -0.296875q0 -3.671875 -2.671875 -3.671875q-2.234375 0 -4.984375 2.84375q-2.75 2.828125 -4.671875 6.84375q-1.90625 4.015625 -1.90625 7.1875q0 3.65625 2.671875 3.65625q2.1875 0 4.953125 -2.828125q2.765625 -2.828125 4.6875 -6.84375q1.921875 -4.015625 1.921875 -7.1875zm18.389725 -3.859375l-0.03125 -0.734375q0 -0.90625 3.09375 -0.90625q1.9375 0 1.9375 0.96875q0 0.171875 -0.0625 0.234375q-0.234375 1.296875 -2.640625 8.296875q-2.390625 7.0 -2.390625 7.71875q0 0.71875 0.65625 0.71875q0.5 0 0.765625 -0.265625q0.46875 -0.46875 1.171875 -1.171875q0.703125 -0.703125 3.828125 -5.046875q3.140625 -4.34375 5.03125 -7.515625q0.640625 -1.265625 4.203125 -1.265625q0.90625 0 0.90625 0.5625l-0.234375 0.640625q-1.0 2.03125 -2.703125 7.171875q-1.703125 5.125 -1.703125 6.015625q0 0.875 0.671875 0.875q0.5 0 0.765625 -0.265625q0.46875 -0.46875 0.9375 -0.9375q1.234375 -1.234375 5.40625 -7.046875q4.1875 -5.8125 5.65625 -8.6875q0.359375 -0.734375 0.828125 -0.96875q0.84375 -0.390625 2.9375 -0.46875l0.671875 0q1.734375 0 1.734375 0.578125q0 0.234375 -0.3125 0.53125q-3.265625 3.09375 -9.578125 10.515625q-6.3125 7.40625 -8.578125 10.71875q-0.46875 0.6875 -0.734375 1.0q-0.265625 0.296875 -0.875 0.6875q-1.125 0.734375 -3.953125 0.734375q-1.640625 0 -1.640625 -0.796875l0.109375 -0.359375q0.1875 -0.640625 0.71875 -2.140625q0.546875 -1.5 0.90625 -2.53125q0.375 -1.03125 0.796875 -2.265625q0.84375 -2.5 0.84375 -3.0625q0 -0.578125 -0.5 -0.578125q-0.546875 0 -1.203125 0.8125q-2.640625 3.125 -6.40625 8.5q-0.625 0.890625 -1.0 1.28125q-0.359375 0.375 -1.53125 0.75q-1.171875 0.390625 -2.921875 0.390625q-1.734375 0 -1.734375 -0.796875l0.09375 -0.359375q1.171875 -3.375 3.109375 -9.703125q1.953125 -6.328125 2.65625 -9.296875q0.296875 -1.703125 0.296875 -2.53125zm44.689804 4.15625q0 1.875 -0.75 4.28125q-0.75 2.390625 -2.21875 4.890625q-1.453125 2.5 -3.375 4.625q-1.921875 2.109375 -4.546875 3.46875q-2.609375 1.34375 -5.390625 1.34375q-2.78125 0 -4.375 -1.546875q-1.59375 -1.5625 -1.59375 -4.296875q0 -1.859375 0.734375 -4.25q0.75 -2.40625 2.21875 -4.90625q1.46875 -2.5 3.375 -4.59375q1.921875 -2.109375 4.53125 -3.453125q2.625 -1.359375 5.40625 -1.359375q2.796875 0 4.390625 1.53125q1.59375 1.53125 1.59375 4.265625zm-3.921875 -0.296875q0 -3.671875 -2.671875 -3.671875q-2.234375 0 -4.984375 2.84375q-2.75 2.828125 -4.671875 6.84375q-1.90625 4.015625 -1.90625 7.1875q0 3.65625 2.671875 3.65625q2.1875 0 4.953125 -2.828125q2.765625 -2.828125 4.6875 -6.84375q1.921875 -4.015625 1.921875 -7.1875zm15.157242 17.265625l0.0625 1.0q0 0.53125 -1.59375 0.53125q-2.796875 0 -2.796875 -1.0625q0 -1.0625 1.484375 -4.59375q1.484375 -3.546875 1.484375 -4.40625q0 -1.765625 -2.171875 -1.765625l-0.53125 0.03125q-0.40625 0 -0.40625 -0.296875q0 -0.640625 0.484375 -1.28125q0.484375 -0.65625 1.21875 -0.65625q3.03125 0 5.421875 -1.796875q2.40625 -1.796875 2.40625 -3.796875q0 -1.4375 -0.890625 -2.0q-0.875 -0.5625 -2.40625 -0.5625q-1.53125 0 -2.328125 0.921875q-1.96875 2.46875 -6.328125 10.328125q-4.34375 7.84375 -4.875 9.640625q-0.296875 0.828125 -1.546875 1.21875q-1.25 0.40625 -2.4375 0.40625q-1.171875 0 -1.171875 -0.453125l0 -0.078125q0 -0.359375 2.296875 -4.25q2.296875 -3.90625 5.078125 -8.6875q2.78125 -4.78125 3.59375 -6.609375q0.828125 -1.84375 0.828125 -3.109375l0 -0.328125q0 -0.90625 5.0625 -0.90625q5.4375 0 7.15625 1.09375q0.734375 0.46875 1.25 1.375q0.515625 0.890625 0.515625 2.296875q0 1.40625 -1.140625 2.84375q-1.125 1.421875 -2.40625 2.109375q-1.28125 0.671875 -2.546875 0.984375q-1.265625 0.296875 -1.90625 0.5q-0.625 0.1875 -0.625 0.625q0 0.265625 0.484375 0.65625q0.484375 0.375 0.984375 0.921875q0.5 0.53125 0.5 1.125q0 0.59375 -1.109375 3.453125q-1.09375 2.84375 -1.09375 4.578125zm6.296097 1.234375l-0.46875 -0.03125q-0.453125 0 -0.6875 0.296875q-1.140625 0.96875 -3.078125 0.96875q-1.0 0 -1.0 -0.4375l0 -0.09375q0 -0.375 2.3125 -4.359375q2.328125 -3.984375 5.140625 -8.875q2.8125 -4.90625 3.625 -6.734375q0.828125 -1.828125 0.828125 -3.03125l0 -0.4375q0 -0.859375 3.5625 -0.859375q1.796875 0 1.796875 0.65625q0 0.265625 -0.265625 0.546875q-2.65625 4.328125 -7.0625 12.359375l-0.46875 0.828125q-0.46875 0.84375 -0.671875 1.1875q-0.1875 0.34375 -0.609375 1.203125q-0.421875 0.84375 -0.609375 1.375q-0.578125 1.5 -0.578125 2.34375q0 1.21875 2.203125 1.21875l0.234375 0q1.359375 0 3.0 -0.5625q3.203125 -1.125 5.203125 -4.328125q0.125 -0.296875 0.734375 -0.296875q0.625 0 0.625 0.53125q0 0.796875 -1.0625 2.875q-1.0625 2.0625 -1.9375 3.0625q-0.421875 0.59375 -1.65625 0.59375q-1.234375 0.0625 -5.34375 0.0625l-3.765625 -0.0625zm20.836823 0.53125q-1.765625 0 -2.265625 -0.125q-0.5 -0.109375 -0.859375 -0.203125q-0.34375 -0.078125 -0.453125 -0.109375q-0.09375 -0.03125 -0.296875 -0.03125q-0.390625 0 -0.71875 0.203125q-1.171875 0.96875 -3.078125 0.96875q-1.0 0 -1.0 -0.453125q0 -0.453125 2.3125 -4.453125q2.328125 -4.0 5.140625 -8.890625q2.8125 -4.90625 3.625 -6.734375q0.828125 -1.828125 0.828125 -3.171875l0 -0.265625q0 -0.96875 5.5625 -0.96875q8.265625 0 8.265625 5.640625q0 4.0625 -2.765625 8.96875q-1.4375 2.5625 -3.375 4.703125q-1.921875 2.125 -4.8125 3.53125q-2.875 1.390625 -6.109375 1.390625zm10.96875 -11.40625q1.234375 -2.390625 1.875 -4.46875q0.65625 -2.09375 0.65625 -3.5q0 -1.421875 -0.828125 -2.15625q-0.8125 -0.734375 -2.75 -0.734375q-1.328125 0 -2.125 0.9375q-2.09375 2.625 -6.0625 9.71875q-3.96875 7.078125 -3.96875 8.28125q0 1.328125 2.828125 1.328125q2.0 0 4.03125 -1.390625q2.03125 -1.40625 3.5625 -3.515625q1.546875 -2.125 2.78125 -4.5z" fill-rule="nonzero"/><path fill="#38761d" d="m528.8179 357.4908l-2.828125 -0.09375q-2.109375 0 -3.234375 1.359375q-0.796875 1.0 -2.125 3.265625q-1.3125 2.265625 -1.3125 3.609375q0 1.21875 2.4375 1.21875q1.5 0 3.203125 -0.5625q3.421875 -1.125 5.421875 -4.328125q0.234375 -0.296875 0.796875 -0.296875q0.578125 0 0.578125 0.65625q0 0.640625 -1.078125 2.703125q-1.0625 2.0625 -1.890625 3.109375q-0.4375 0.53125 -1.6875 0.59375q-1.25 0.0625 -3.8125 0.0625l-3.265625 0l-1.90625 -0.03125l-0.890625 -0.0625q-0.03125 0 -0.234375 0q-0.203125 0 -0.5 0.296875q-1.109375 0.96875 -3.140625 0.96875q-0.96875 0 -0.96875 -0.4375l0 -0.09375q0 -0.375 2.3125 -4.359375q2.328125 -3.984375 5.15625 -8.875q2.84375 -4.90625 3.640625 -6.71875q0.796875 -1.8125 0.796875 -3.109375l0 -0.375q0 -0.5625 7.09375 -0.5625q2.34375 0 4.0625 0.0625q0.5 -0.5625 2.578125 -0.5625q0.859375 0 0.859375 0.4375q0 0.765625 -1.515625 3.078125q-1.515625 2.3125 -2.640625 3.15625q-0.375 0.296875 -0.9375 0.296875q-0.5625 0 -0.5625 -0.234375q0 -0.109375 0.09375 -0.265625q0.53125 -1.03125 0.53125 -2.34375q0 -1.828125 -2.53125 -1.828125q-1.53125 0 -2.421875 0.8125q-0.875 0.796875 -1.75 2.234375q-0.859375 1.421875 -1.28125 2.453125q-0.40625 1.03125 -0.40625 1.296875q0 0.796875 0.78125 0.984375q0.78125 0.1875 3.109375 0.1875l2.46875 -0.09375q0.328125 0 0.328125 0.25q0 0.25 -0.359375 0.828125q-0.34375 0.578125 -0.703125 0.8125q-0.734375 0.5 -2.265625 0.5zm26.723083 -6.96875q0 1.875 -0.75 4.28125q-0.75 2.390625 -2.21875 4.890625q-1.453125 2.5 -3.375 4.625q-1.921875 2.109375 -4.546875 3.46875q-2.609375 1.34375 -5.390625 1.34375q-2.78125 0 -4.375 -1.546875q-1.59375 -1.5625 -1.59375 -4.296875q0 -1.859375 0.734375 -4.25q0.75 -2.40625 2.21875 -4.90625q1.46875 -2.5 3.375 -4.59375q1.921875 -2.109375 4.53125 -3.453125q2.625 -1.359375 5.40625 -1.359375q2.796875 0 4.390625 1.53125q1.59375 1.53125 1.59375 4.265625zm-3.921875 -0.296875q0 -3.671875 -2.671875 -3.671875q-2.234375 0 -4.984375 2.84375q-2.75 2.828125 -4.671875 6.84375q-1.90625 4.015625 -1.90625 7.1875q0 3.65625 2.671875 3.65625q2.1875 0 4.953125 -2.828125q2.765625 -2.828125 4.6875 -6.84375q1.921875 -4.015625 1.921875 -7.1875zm8.766602 17.5q0 -1.46875 1.078125 -7.4375q1.078125 -5.96875 1.078125 -6.578125q0 -0.609375 -0.359375 -0.609375q-0.34375 0 -0.9375 0.703125q-0.59375 0.6875 -1.0 1.359375l-0.4375 0.703125q-2.65625 4.359375 -6.031189 11.5625q-0.65625 1.46875 -1.265625 1.875q-0.59375 0.421875 -1.71875 0.421875q-1.109375 0 -1.109375 -0.5l0 -0.09375q0 -0.4375 1.703125 -3.171875q6.499939 -10.4375 9.499939 -16.5q0.765625 -1.53125 0.765625 -2.765625l0 -0.53125q0 -0.234375 0.171875 -0.484375q0.1875 -0.25 1.15625 -0.53125q0.96875 -0.28125 2.671875 -0.28125q2.5625 0 2.5625 0.96875q0 0.296875 -1.375 6.46875q-1.359375 6.15625 -1.359375 7.4375q0 1.28125 0.265625 1.28125q0.40625 0 0.828125 -0.421875q0.4375 -0.4375 0.671875 -0.84375l0.234375 -0.4375q2.125 -3.5 3.828125 -6.9375q1.703125 -3.453125 2.5 -5.078125q0.796875 -1.640625 1.40625 -2.078125q0.859375 -0.5 2.1875 -0.5q1.34375 0 1.34375 0.40625l0 0.0625q0 0.234375 -1.765625 2.796875q-1.765625 2.5625 -4.6875 7.21875q-2.921875 4.65625 -5.078125 8.875q-0.9375 2.171875 -0.9375 3.46875q0 0.40625 -0.15625 0.609375q-0.140625 0.1875 -1.03125 0.375q-0.875 0.1875 -1.8125 0.1875l-1.0625 0q-0.375 0 -0.90625 -0.171875q-0.921875 -0.265625 -0.921875 -0.828125zm33.58258 -17.203125q0 1.875 -0.75 4.28125q-0.75 2.390625 -2.21875 4.890625q-1.453125 2.5 -3.375 4.625q-1.921875 2.109375 -4.546875 3.46875q-2.609375 1.34375 -5.390625 1.34375q-2.78125 0 -4.375 -1.546875q-1.59375 -1.5625 -1.59375 -4.296875q0 -1.859375 0.734375 -4.25q0.75 -2.40625 2.21875 -4.90625q1.46875 -2.5 3.375 -4.59375q1.921875 -2.109375 4.53125 -3.453125q2.625 -1.359375 5.40625 -1.359375q2.796875 0 4.390625 1.53125q1.59375 1.53125 1.59375 4.265625zm-3.921875 -0.296875q0 -3.671875 -2.671875 -3.671875q-2.234375 0 -4.984375 2.84375q-2.75 2.828125 -4.671875 6.84375q-1.90625 4.015625 -1.90625 7.1875q0 3.65625 2.671875 3.65625q2.1875 0 4.953125 -2.828125q2.765625 -2.828125 4.6875 -6.84375q1.921875 -4.015625 1.921875 -7.1875zm8.391602 10.828125l0.03125 -0.734375q0 -0.65625 -0.53125 -0.65625q-0.4375 0 -1.09375 0.53125q-1.90625 1.671875 -4.015625 3.890625q-2.09375 2.203125 -2.78125 3.140625q-0.671875 0.9375 -0.890625 1.15625q-0.21875 0.203125 -1.1875 0.5625q-0.96875 0.375 -2.25 0.375q-1.28125 0 -1.28125 -0.390625q0 -0.84375 13.09375 -11.90625q1.171875 -0.921875 1.234375 -2.421875q0.140625 -2.46875 0.140625 -3.671875q0 -3.375 -0.5625 -5.0625l-0.171875 -0.5q0 -0.578125 2.46875 -0.578125q1.203125 0 1.703125 0.390625q0.5 0.375 0.5 1.421875q0 1.03125 -0.234375 4.359375q0 0.90625 0.625 0.90625q0.34375 0 0.765625 -0.375q4.40625 -3.890625 5.1875 -4.890625q0.78125 -1.0 1.28125 -1.234375q1.0 -0.40625 2.796875 -0.46875l0.578125 0q1.625 0 1.625 0.53125q0 0.296875 -0.46875 0.5625q-4.234375 2.40625 -11.15625 8.0625q-0.171875 0.109375 -0.421875 0.296875q-0.25 0.171875 -0.6875 0.875q-0.421875 0.703125 -0.5 1.53125q-0.234375 4.203125 -0.234375 6.9375q0 3.125 0.46875 4.0625q0.140625 0.265625 0.140625 0.4375q0 0.5 -1.015625 0.71875q-1.015625 0.21875 -1.953125 0.21875q-0.9375 0 -1.203125 -0.40625q-0.265625 -0.40625 -0.265625 -1.640625q0 -1.234375 0.265625 -6.03125zm21.926514 7.671875l-0.46875 -0.03125q-0.453125 0 -0.6875 0.296875q-1.140625 0.96875 -3.078125 0.96875q-1.0 0 -1.0 -0.4375l0 -0.09375q0 -0.375 2.3125 -4.359375q2.328125 -3.984375 5.140625 -8.875q2.8125 -4.90625 3.625 -6.734375q0.828125 -1.828125 0.828125 -3.03125l0 -0.4375q0 -0.859375 3.5625 -0.859375q1.796875 0 1.796875 0.65625q0 0.265625 -0.265625 0.546875q-2.65625 4.328125 -7.0625 12.359375l-0.46875 0.828125q-0.46875 0.84375 -0.671875 1.1875q-0.1875 0.34375 -0.609375 1.203125q-0.421875 0.84375 -0.609375 1.375q-0.578125 1.5 -0.578125 2.34375q0 1.21875 2.203125 1.21875l0.234375 0q1.359375 0 3.0 -0.5625q3.203125 -1.125 5.203125 -4.328125q0.125 -0.296875 0.734375 -0.296875q0.625 0 0.625 0.53125q0 0.796875 -1.0625 2.875q-1.0625 2.0625 -1.9375 3.0625q-0.421875 0.59375 -1.65625 0.59375q-1.234375 0.0625 -5.34375 0.0625l-3.765625 -0.0625zm36.693054 -18.203125q0 1.875 -0.75 4.28125q-0.75 2.390625 -2.21875 4.890625q-1.453125 2.5 -3.375 4.625q-1.921875 2.109375 -4.546875 3.46875q-2.609375 1.34375 -5.390625 1.34375q-2.78125 0 -4.375 -1.546875q-1.59375 -1.5625 -1.59375 -4.296875q0 -1.859375 0.734375 -4.25q0.75 -2.40625 2.21875 -4.90625q1.46875 -2.5 3.375 -4.59375q1.921875 -2.109375 4.53125 -3.453125q2.625 -1.359375 5.40625 -1.359375q2.796875 0 4.390625 1.53125q1.59375 1.53125 1.59375 4.265625zm-3.921875 -0.296875q0 -3.671875 -2.671875 -3.671875q-2.234375 0 -4.984375 2.84375q-2.75 2.828125 -4.671875 6.84375q-1.90625 4.015625 -1.90625 7.1875q0 3.65625 2.671875 3.65625q2.1875 0 4.953125 -2.828125q2.765625 -2.828125 4.6875 -6.84375q1.921875 -4.015625 1.921875 -7.1875zm3.4229126 18.5l-0.46875 -0.03125q-0.453125 0 -0.6875 0.296875q-1.140625 0.96875 -3.078125 0.96875q-1.0 0 -1.0 -0.4375l0 -0.09375q0 -0.375 2.3125 -4.359375q2.328125 -3.984375 5.140625 -8.875q2.8125 -4.90625 3.625 -6.734375q0.828125 -1.828125 0.828125 -3.03125l0 -0.4375q0 -0.859375 3.5625 -0.859375q1.796875 0 1.796875 0.65625q0 0.265625 -0.265625 0.546875q-2.65625 4.328125 -7.0625 12.359375l-0.46875 0.828125q-0.46875 0.84375 -0.671875 1.1875q-0.1875 0.34375 -0.609375 1.203125q-0.421875 0.84375 -0.609375 1.375q-0.578125 1.5 -0.578125 2.34375q0 1.21875 2.203125 1.21875l0.234375 0q1.359375 0 3.0 -0.5625q3.203125 -1.125 5.203125 -4.328125q0.125 -0.296875 0.734375 -0.296875q0.625 0 0.625 0.53125q0 0.796875 -1.0625 2.875q-1.0625 2.0625 -1.9375 3.0625q-0.421875 0.59375 -1.65625 0.59375q-1.234375 0.0625 -5.34375 0.0625l-3.765625 -0.0625zm20.836792 0.53125q-1.765625 0 -2.265625 -0.125q-0.5 -0.109375 -0.859375 -0.203125q-0.34375 -0.078125 -0.453125 -0.109375q-0.09375 -0.03125 -0.296875 -0.03125q-0.390625 0 -0.71875 0.203125q-1.171875 0.96875 -3.078125 0.96875q-1.0 0 -1.0 -0.453125q0 -0.453125 2.3125 -4.453125q2.328125 -4.0 5.140625 -8.890625q2.8125 -4.90625 3.625 -6.734375q0.828125 -1.828125 0.828125 -3.171875l0 -0.265625q0 -0.96875 5.5625 -0.96875q8.265625 0 8.265625 5.640625q0 4.0625 -2.765625 8.96875q-1.4375 2.5625 -3.375 4.703125q-1.921875 2.125 -4.8125 3.53125q-2.875 1.390625 -6.109375 1.390625zm10.96875 -11.40625q1.234375 -2.390625 1.875 -4.46875q0.65625 -2.09375 0.65625 -3.5q0 -1.421875 -0.828125 -2.15625q-0.8125 -0.734375 -2.75 -0.734375q-1.328125 0 -2.125 0.9375q-2.09375 2.625 -6.0625 9.71875q-3.96875 7.078125 -3.96875 8.28125q0 1.328125 2.828125 1.328125q2.0 0 4.03125 -1.390625q2.03125 -1.40625 3.5625 -3.515625q1.546875 -2.125 2.78125 -4.5zm4.789551 2.234375q-0.234375 0 -0.296875 -0.296875q0 -0.5625 0.796875 -1.296875q0.796875 -0.734375 1.28125 -0.921875q0.484375 -0.203125 3.21875 -0.28125l0.46875 -0.53125q10.125 -11.6875 14.0625 -11.6875q0.328125 -0.046875 0.765625 -0.046875q2.296875 0 2.296875 1.109375q0 0.203125 -0.421875 1.0625l-1.5 3.0q-1.078125 2.125 -2.078125 4.328125q-5.390625 11.90625 -6.265625 15.609375q0 0.265625 -0.6875 0.265625q-0.671875 0 -1.640625 -0.75q-0.96875 -0.75 -0.96875 -1.328125q0 -1.03125 1.625 -3.890625q1.640625 -2.875 1.640625 -3.734375q0 -1.171875 -4.53125 -1.171875q-0.65625 0 -2.0625 0.0625l-1.265625 1.671875q-2.328125 3.140625 -4.46875 7.765625q-0.359375 0.828125 -2.234375 0.828125q-1.859375 0 -1.859375 -0.53125q0 -0.359375 2.078125 -3.203125q2.078125 -2.859375 4.953125 -6.328125q-0.5 0.078125 -1.265625 0.140625q-0.765625 0.0625 -1.1875 0.109375q-0.421875 0.046875 -0.453125 0.046875zm13.828125 -4.28125q1.3125 -1.578125 1.953125 -3.171875q0.65625 -1.609375 0.65625 -2.171875q0 -0.5625 -0.5625 -0.5625q-1.0 0 -3.3125 2.125q-2.296875 2.109375 -5.0 5.265625l3.640625 0.078125q1.328125 0 2.625 -1.5625z" fill-rule="nonzero"/><path fill="#38761d" d="m54.85384 400.08456q-0.234375 0 -0.296875 -0.296875q0 -0.5625 0.796875 -1.296875q0.796875 -0.734375 1.28125 -0.921875q0.484375 -0.203125 3.21875 -0.28125l0.46875 -0.53125q10.124996 -11.6875 14.062496 -11.6875q0.328125 -0.046875 0.765625 -0.046875q2.296875 0 2.296875 1.109375q0 0.203125 -0.421875 1.0625l-1.5 3.0q-1.078125 2.125 -2.078125 4.328125q-5.390625 11.90625 -6.265625 15.609375q0 0.265625 -0.6875 0.265625q-0.671875 0 -1.640625 -0.75q-0.9687462 -0.75 -0.9687462 -1.328125q0 -1.03125 1.6249962 -3.890625q1.640625 -2.875 1.640625 -3.734375q0 -1.171875 -4.531246 -1.171875q-0.65625 0 -2.0625 0.0625l-1.265625 1.671875q-2.328125 3.140625 -4.46875 7.765625q-0.359375 0.828125 -2.234375 0.828125q-1.859375 0 -1.859375 -0.53125q0 -0.359375 2.078125 -3.203125q2.078125 -2.859375 4.953125 -6.328125q-0.5 0.078125 -1.265625 0.140625q-0.765625 0.0625 -1.1875 0.109375q-0.421875 0.046875 -0.453125 0.046875zm13.828121 -4.28125q1.3125 -1.578125 1.953125 -3.171875q0.65625 -1.609375 0.65625 -2.171875q0 -0.5625 -0.5625 -0.5625q-1.0 0 -3.3125 2.125q-2.296875 2.109375 -4.999996 5.265625l3.6406212 0.078125q1.328125 0 2.625 -1.5625zm11.178207 11.921875q0 -1.46875 1.078125 -7.4375q1.078125 -5.96875 1.078125 -6.578125q0 -0.609375 -0.359375 -0.609375q-0.34375 0 -0.9375 0.703125q-0.59375 0.6875 -1.0 1.359375l-0.4375 0.703125q-2.65625 4.359375 -6.03125 11.5625q-0.65625 1.46875 -1.265625 1.875q-0.59375 0.421875 -1.71875 0.421875q-1.109375 0 -1.109375 -0.5l0 -0.09375q0 -0.4375 1.703125 -3.171875q6.5 -10.4375 9.5 -16.5q0.765625 -1.53125 0.765625 -2.765625l0 -0.53125q0 -0.234375 0.171875 -0.484375q0.1875 -0.25 1.15625 -0.53125q0.96875 -0.28125 2.671875 -0.28125q2.5625 0 2.5625 0.96875q0 0.296875 -1.375 6.46875q-1.359375 6.15625 -1.359375 7.4375q0 1.28125 0.265625 1.28125q0.40625 0 0.828125 -0.421875q0.4375 -0.4375 0.671875 -0.84375l0.234375 -0.4375q2.125 -3.5 3.828125 -6.9375q1.703125 -3.453125 2.5 -5.078125q0.796875 -1.640625 1.40625 -2.078125q0.859375 -0.5 2.1875 -0.5q1.34375 0 1.34375 0.40625l0 0.0625q0 0.234375 -1.765625 2.796875q-1.765625 2.5625 -4.6875 7.21875q-2.921875 4.65625 -5.078125 8.875q-0.9375 2.171875 -0.9375 3.46875q0 0.40625 -0.15625 0.609375q-0.140625 0.1875 -1.03125 0.375q-0.875 0.1875 -1.8125 0.1875l-1.0625 0q-0.375 0 -0.90625 -0.171875q-0.921875 -0.265625 -0.921875 -0.828125zm16.292953 1.53125q-1.765625 0 -2.265625 -0.125q-0.5 -0.109375 -0.859375 -0.203125q-0.34375 -0.078125 -0.453125 -0.109375q-0.09375 -0.03125 -0.296875 -0.03125q-0.390625 0 -0.71875 0.203125q-1.171875 0.96875 -3.078125 0.96875q-1.0 0 -1.0 -0.453125q0 -0.453125 2.3125 -4.453125q2.328125 -4.0 5.140625 -8.890625q2.8125 -4.90625 3.625 -6.734375q0.828125 -1.828125 0.828125 -3.171875l0 -0.265625q0 -0.96875 5.5625 -0.96875q8.265625 0 8.265625 5.640625q0 4.0625 -2.765625 8.96875q-1.4375 2.5625 -3.375 4.703125q-1.921875 2.125 -4.8125 3.53125q-2.875 1.390625 -6.109375 1.390625zm10.96875 -11.40625q1.234375 -2.390625 1.875 -4.46875q0.65625 -2.09375 0.65625 -3.5q0 -1.421875 -0.828125 -2.15625q-0.8125 -0.734375 -2.75 -0.734375q-1.328125 0 -2.125 0.9375q-2.09375 2.625 -6.0625 9.71875q-3.96875 7.078125 -3.96875 8.28125q0 1.328125 2.828125 1.328125q2.0 0 4.03125 -1.390625q2.03125 -1.40625 3.5625 -3.515625q1.546875 -2.125 2.78125 -4.5zm10.788605 2.234375q-0.234375 0 -0.296875 -0.296875q0 -0.5625 0.796875 -1.296875q0.796875 -0.734375 1.28125 -0.921875q0.484375 -0.203125 3.21875 -0.28125l0.46875 -0.53125q10.125 -11.6875 14.0625 -11.6875q0.328125 -0.046875 0.765625 -0.046875q2.296875 0 2.296875 1.109375q0 0.203125 -0.421875 1.0625l-1.5 3.0q-1.078125 2.125 -2.078125 4.328125q-5.390625 11.90625 -6.265625 15.609375q0 0.265625 -0.6875 0.265625q-0.671875 0 -1.640625 -0.75q-0.96875 -0.75 -0.96875 -1.328125q0 -1.03125 1.625 -3.890625q1.640625 -2.875 1.640625 -3.734375q0 -1.171875 -4.53125 -1.171875q-0.65625 0 -2.0625 0.0625l-1.265625 1.671875q-2.328125 3.140625 -4.46875 7.765625q-0.359375 0.828125 -2.234375 0.828125q-1.859375 0 -1.859375 -0.53125q0 -0.359375 2.078125 -3.203125q2.078125 -2.859375 4.953125 -6.328125q-0.5 0.078125 -1.265625 0.140625q-0.765625 0.0625 -1.1875 0.109375q-0.421875 0.046875 -0.453125 0.046875zm13.828125 -4.28125q1.3125 -1.578125 1.953125 -3.171875q0.65625 -1.609375 0.65625 -2.171875q0 -0.5625 -0.5625 -0.5625q-1.0 0 -3.3125 2.125q-2.296875 2.109375 -5.0 5.265625l3.640625 0.078125q1.328125 0 2.625 -1.5625zm21.46788 12.890625q-0.46875 0 -0.828125 -0.4375q-0.34375 -0.4375 -0.4375 -0.859375l-0.09375 -0.4375q-0.109375 -0.375 -0.5 -0.375q-0.375 0 -0.671875 0.234375q-3.125 2.46875 -5.828125 2.46875q-3.46875 0 -3.46875 -4.625q0 -1.640625 0.84375 -4.0625q0.859375 -2.4375 2.453125 -5.078125q1.59375 -2.65625 3.609375 -4.96875q2.03125 -2.328125 4.671875 -3.828125q2.65625 -1.5 5.28125 -1.5q1.4375 0 2.34375 0.5q0.125 0.0625 0.28125 0.0625q0.171875 0 0.34375 -0.09375q0.828125 -0.5625 2.125 -0.5625q1.3125 0 1.3125 0.625q0 0.796875 -1.671875 3.171875q-2.59375 3.703125 -4.265625 3.703125q-0.4375 0 -0.59375 -0.0625q-0.140625 -0.078125 -0.140625 -0.265625q0 -0.203125 0.203125 -0.671875q0.671875 -1.40625 0.671875 -2.3125q0 -0.921875 -0.359375 -1.40625q-0.34375 -0.484375 -1.453125 -0.484375q-2.0 0 -4.75 3.015625q-2.75 3.015625 -4.71875 6.96875q-1.953125 3.953125 -1.953125 6.515625q0 2.15625 1.796875 2.15625q1.40625 0 3.1875 -1.421875q1.78125 -1.4375 2.921875 -3.078125q1.15625 -1.65625 1.15625 -2.375q0 -0.71875 -0.703125 -1.0q-0.703125 -0.28125 -2.703125 -0.28125q-0.390625 0 -0.390625 -0.296875q0 -0.578125 0.640625 -1.171875q0.65625 -0.59375 1.25 -0.671875q2.40625 -0.15625 5.046875 -0.15625q2.65625 0 2.65625 0.46875q0 0.390625 -0.453125 1.234375q-0.4375 0.828125 -0.734375 1.34375q-0.28125 0.515625 -0.828125 1.4375q-0.546875 0.90625 -0.890625 1.4375q-0.328125 0.53125 -1.015625 1.625q-0.671875 1.078125 -1.078125 1.75q-0.390625 0.65625 -0.984375 1.765625q-0.578125 1.09375 -0.84375 1.546875q-0.265625 0.453125 -0.4375 0.453125zm28.45874 -18.171875q0 1.875 -0.75 4.28125q-0.75 2.390625 -2.21875 4.890625q-1.453125 2.5 -3.375 4.625q-1.921875 2.109375 -4.546875 3.46875q-2.609375 1.34375 -5.390625 1.34375q-2.78125 0 -4.375 -1.546875q-1.59375 -1.5625 -1.59375 -4.296875q0 -1.859375 0.734375 -4.25q0.75 -2.40625 2.21875 -4.90625q1.46875 -2.5 3.375 -4.59375q1.921875 -2.109375 4.53125 -3.453125q2.625 -1.359375 5.40625 -1.359375q2.796875 0 4.390625 1.53125q1.59375 1.53125 1.59375 4.265625zm-3.921875 -0.296875q0 -3.671875 -2.671875 -3.671875q-2.234375 0 -4.984375 2.84375q-2.75 2.828125 -4.671875 6.84375q-1.90625 4.015625 -1.90625 7.1875q0 3.65625 2.671875 3.65625q2.1875 0 4.953125 -2.828125q2.765625 -2.828125 4.6875 -6.84375q1.921875 -4.015625 1.921875 -7.1875zm23.985367 0.296875q0 1.875 -0.75 4.28125q-0.75 2.390625 -2.21875 4.890625q-1.453125 2.5 -3.375 4.625q-1.921875 2.109375 -4.546875 3.46875q-2.609375 1.34375 -5.390625 1.34375q-2.78125 0 -4.375 -1.546875q-1.59375 -1.5625 -1.59375 -4.296875q0 -1.859375 0.734375 -4.25q0.75 -2.40625 2.21875 -4.90625q1.46875 -2.5 3.375 -4.59375q1.921875 -2.109375 4.53125 -3.453125q2.625 -1.359375 5.40625 -1.359375q2.796875 0 4.390625 1.53125q1.59375 1.53125 1.59375 4.265625zm-3.921875 -0.296875q0 -3.671875 -2.671875 -3.671875q-2.234375 0 -4.984375 2.84375q-2.75 2.828125 -4.671875 6.84375q-1.90625 4.015625 -1.90625 7.1875q0 3.65625 2.671875 3.65625q2.1875 0 4.953125 -2.828125q2.765625 -2.828125 4.6875 -6.84375q1.921875 -4.015625 1.921875 -7.1875zm6.829117 19.03125q-1.765625 0 -2.265625 -0.125q-0.5 -0.109375 -0.859375 -0.203125q-0.34375 -0.078125 -0.453125 -0.109375q-0.09375 -0.03125 -0.296875 -0.03125q-0.390625 0 -0.71875 0.203125q-1.171875 0.96875 -3.078125 0.96875q-1.0 0 -1.0 -0.453125q0 -0.453125 2.3125 -4.453125q2.328125 -4.0 5.140625 -8.890625q2.8125 -4.90625 3.625 -6.734375q0.828125 -1.828125 0.828125 -3.171875l0 -0.265625q0 -0.96875 5.5625 -0.96875q8.265625 0 8.265625 5.640625q0 4.0625 -2.765625 8.96875q-1.4375 2.5625 -3.375 4.703125q-1.921875 2.125 -4.8125 3.53125q-2.875 1.390625 -6.109375 1.390625zm10.96875 -11.40625q1.234375 -2.390625 1.875 -4.46875q0.65625 -2.09375 0.65625 -3.5q0 -1.421875 -0.828125 -2.15625q-0.8125 -0.734375 -2.75 -0.734375q-1.328125 0 -2.125 0.9375q-2.09375 2.625 -6.0625 9.71875q-3.96875 7.078125 -3.96875 8.28125q0 1.328125 2.828125 1.328125q2.0 0 4.03125 -1.390625q2.03125 -1.40625 3.5625 -3.515625q1.546875 -2.125 2.78125 -4.5zm14.96048 11.40625q-1.765625 0 -2.265625 -0.125q-0.5 -0.109375 -0.859375 -0.203125q-0.34375 -0.078125 -0.453125 -0.109375q-0.09375 -0.03125 -0.296875 -0.03125q-0.390625 0 -0.71875 0.203125q-1.171875 0.96875 -3.078125 0.96875q-1.0 0 -1.0 -0.453125q0 -0.453125 2.3125 -4.453125q2.328125 -4.0 5.140625 -8.890625q2.8125 -4.90625 3.625 -6.734375q0.828125 -1.828125 0.828125 -3.171875l0 -0.265625q0 -0.96875 5.5625 -0.96875q8.265625 0 8.265625 5.640625q0 4.0625 -2.765625 8.96875q-1.4375 2.5625 -3.375 4.703125q-1.921875 2.125 -4.8125 3.53125q-2.875 1.390625 -6.109375 1.390625zm10.96875 -11.40625q1.234375 -2.390625 1.875 -4.46875q0.65625 -2.09375 0.65625 -3.5q0 -1.421875 -0.828125 -2.15625q-0.8125 -0.734375 -2.75 -0.734375q-1.328125 0 -2.125 0.9375q-2.09375 2.625 -6.0625 9.71875q-3.96875 7.078125 -3.96875 8.28125q0 1.328125 2.828125 1.328125q2.0 0 4.03125 -1.390625q2.03125 -1.40625 3.5625 -3.515625q1.546875 -2.125 2.78125 -4.5zm4.789551 2.234375q-0.234375 0 -0.296875 -0.296875q0 -0.5625 0.796875 -1.296875q0.796875 -0.734375 1.28125 -0.921875q0.484375 -0.203125 3.21875 -0.28125l0.46875 -0.53125q10.125 -11.6875 14.0625 -11.6875q0.328125 -0.046875 0.765625 -0.046875q2.296875 0 2.296875 1.109375q0 0.203125 -0.421875 1.0625l-1.5 3.0q-1.078125 2.125 -2.078125 4.328125q-5.390625 11.90625 -6.265625 15.609375q0 0.265625 -0.6875 0.265625q-0.671875 0 -1.640625 -0.75q-0.96875 -0.75 -0.96875 -1.328125q0 -1.03125 1.625 -3.890625q1.640625 -2.875 1.640625 -3.734375q0 -1.171875 -4.53125 -1.171875q-0.65625 0 -2.0625 0.0625l-1.265625 1.671875q-2.328125 3.140625 -4.46875 7.765625q-0.359375 0.828125 -2.234375 0.828125q-1.859375 0 -1.859375 -0.53125q0 -0.359375 2.078125 -3.203125q2.078125 -2.859375 4.953125 -6.328125q-0.5 0.078125 -1.265625 0.140625q-0.765625 0.0625 -1.1875 0.109375q-0.421875 0.046875 -0.453125 0.046875zm13.828125 -4.28125q1.3125 -1.578125 1.953125 -3.171875q0.65625 -1.609375 0.65625 -2.171875q0 -0.5625 -0.5625 -0.5625q-1.0 0 -3.3125 2.125q-2.296875 2.109375 -5.0 5.265625l3.640625 0.078125q1.328125 0 2.625 -1.5625zm9.979248 -4.4375l-0.046875 -3.53125q0 -1.40625 -0.203125 -1.796875q-0.1875 -0.40625 -0.1875 -0.671875q0 -0.671875 2.609375 -0.671875q2.625 0 2.625 1.234375q0 0.828125 -0.5625 4.015625q-0.546875 3.1875 -0.578125 4.375q-0.03125 1.171875 0.640625 1.171875q0.390625 0 0.890625 -0.4375q2.03125 -1.796875 4.5625 -4.546875q2.546875 -2.75 3.375 -3.828125q0.828125 -1.078125 1.40625 -1.3125q1.1875 -0.46875 2.859375 -0.53125l0.5625 0q1.90625 0 1.90625 0.59375q0 0.328125 -0.5625 0.671875q-2.140625 1.234375 -7.359375 5.59375q-5.21875 4.359375 -7.609375 6.9375q-0.96875 1.03125 -3.265625 5.3125q-2.296875 4.28125 -3.140625 4.84375q-0.765625 0.671875 -2.265625 0.671875q-1.5 0 -1.5 -0.5625l0 -0.109375q0 -0.234375 1.109375 -2.0625q3.5625 -5.828125 4.0 -7.328125q0.734375 -2.40625 0.734375 -8.03125z" fill-rule="nonzero"/><path fill="#38761d" d="m466.851 408.69394q-0.46875 0 -0.828125 -0.4375q-0.34375 -0.4375 -0.4375 -0.859375l-0.09375 -0.4375q-0.109375 -0.375 -0.5 -0.375q-0.375 0 -0.671875 0.234375q-3.125 2.46875 -5.828125 2.46875q-3.46875 0 -3.46875 -4.625q0 -1.640625 0.84375 -4.0625q0.859375 -2.4375 2.453125 -5.078125q1.59375 -2.65625 3.609375 -4.96875q2.03125 -2.328125 4.671875 -3.828125q2.65625 -1.5 5.28125 -1.5q1.4375 0 2.34375 0.5q0.125 0.0625 0.28125 0.0625q0.171875 0 0.34375 -0.09375q0.828125 -0.5625 2.125 -0.5625q1.3125 0 1.3125 0.625q0 0.796875 -1.671875 3.171875q-2.59375 3.703125 -4.265625 3.703125q-0.4375 0 -0.59375 -0.0625q-0.140625 -0.078125 -0.140625 -0.265625q0 -0.203125 0.203125 -0.671875q0.671875 -1.40625 0.671875 -2.3125q0 -0.921875 -0.359375 -1.40625q-0.34375 -0.484375 -1.453125 -0.484375q-2.0 0 -4.75 3.015625q-2.75 3.015625 -4.71875 6.96875q-1.953125 3.953125 -1.953125 6.515625q0 2.15625 1.796875 2.15625q1.40625 0 3.1875 -1.421875q1.78125 -1.4375 2.921875 -3.078125q1.15625 -1.65625 1.15625 -2.375q0 -0.71875 -0.703125 -1.0q-0.703125 -0.28125 -2.703125 -0.28125q-0.390625 0 -0.390625 -0.296875q0 -0.578125 0.640625 -1.171875q0.65625 -0.59375 1.25 -0.671875q2.40625 -0.15625 5.046875 -0.15625q2.65625 0 2.65625 0.46875q0 0.390625 -0.453125 1.234375q-0.4375 0.828125 -0.734375 1.34375q-0.28125 0.515625 -0.828125 1.4375q-0.546875 0.90625 -0.890625 1.4375q-0.328125 0.53125 -1.015625 1.625q-0.671875 1.078125 -1.078125 1.75q-0.390625 0.65625 -0.984375 1.765625q-0.578125 1.09375 -0.84375 1.546875q-0.265625 0.453125 -0.4375 0.453125zm11.30249 0.5625q-1.765625 0 -2.265625 -0.125q-0.5 -0.109375 -0.859375 -0.203125q-0.34375 -0.078125 -0.453125 -0.109375q-0.09375 -0.03125 -0.296875 -0.03125q-0.390625 0 -0.71875 0.203125q-1.171875 0.96875 -3.078125 0.96875q-1.0 0 -1.0 -0.453125q0 -0.453125 2.3125 -4.453125q2.328125 -4.0 5.140625 -8.890625q2.8125 -4.90625 3.625 -6.734375q0.828125 -1.828125 0.828125 -3.171875l0 -0.265625q0 -0.96875 5.5625 -0.96875q8.265625 0 8.265625 5.640625q0 4.0625 -2.765625 8.96875q-1.4375 2.5625 -3.375 4.703125q-1.921875 2.125 -4.8125 3.53125q-2.875 1.390625 -6.109375 1.390625zm10.96875 -11.40625q1.234375 -2.390625 1.875 -4.46875q0.65625 -2.09375 0.65625 -3.5q0 -1.421875 -0.828125 -2.15625q-0.8125 -0.734375 -2.75 -0.734375q-1.328125 0 -2.125 0.9375q-2.09375 2.625 -6.0625 9.71875q-3.96875 7.078125 -3.96875 8.28125q0 1.328125 2.828125 1.328125q2.0 0 4.03125 -1.390625q2.03125 -1.40625 3.5625 -3.515625q1.546875 -2.125 2.78125 -4.5zm4.789551 2.234375q-0.234375 0 -0.296875 -0.296875q0 -0.5625 0.796875 -1.296875q0.796875 -0.734375 1.28125 -0.921875q0.484375 -0.203125 3.21875 -0.28125l0.46875 -0.53125q10.125 -11.6875 14.0625 -11.6875q0.328125 -0.046875 0.765625 -0.046875q2.296875 0 2.296875 1.109375q0 0.203125 -0.421875 1.0625l-1.5 3.0q-1.078125 2.125 -2.078125 4.328125q-5.390625 11.90625 -6.265625 15.609375q0 0.265625 -0.6875 0.265625q-0.671875 0 -1.640625 -0.75q-0.96875 -0.75 -0.96875 -1.328125q0 -1.03125 1.625 -3.890625q1.640625 -2.875 1.640625 -3.734375q0 -1.171875 -4.53125 -1.171875q-0.65625 0 -2.0625 0.0625l-1.265625 1.671875q-2.328125 3.140625 -4.46875 7.765625q-0.359375 0.828125 -2.234375 0.828125q-1.859375 0 -1.859375 -0.53125q0 -0.359375 2.078125 -3.203125q2.078125 -2.859375 4.953125 -6.328125q-0.5 0.078125 -1.265625 0.140625q-0.765625 0.0625 -1.1875 0.109375q-0.421875 0.046875 -0.453125 0.046875zm13.828125 -4.28125q1.3125 -1.578125 1.953125 -3.171875q0.65625 -1.609375 0.65625 -2.171875q0 -0.5625 -0.5625 -0.5625q-1.0 0 -3.3125 2.125q-2.296875 2.109375 -5.0 5.265625l3.640625 0.078125q1.328125 0 2.625 -1.5625zm13.569824 5.25l0.03125 -0.734375q0 -0.65625 -0.53125 -0.65625q-0.4375 0 -1.09375 0.53125q-1.90625 1.671875 -4.015625 3.890625q-2.09375 2.203125 -2.78125 3.140625q-0.671875 0.9375 -0.890625 1.15625q-0.21871948 0.203125 -1.1874695 0.5625q-0.96875 0.375 -2.25 0.375q-1.28125 0 -1.28125 -0.390625q0 -0.84375 13.0937195 -11.90625q1.171875 -0.921875 1.234375 -2.421875q0.140625 -2.46875 0.140625 -3.671875q0 -3.375 -0.5625 -5.0625l-0.171875 -0.5q0 -0.578125 2.46875 -0.578125q1.203125 0 1.703125 0.390625q0.5 0.375 0.5 1.421875q0 1.03125 -0.234375 4.359375q0 0.90625 0.625 0.90625q0.34375 0 0.765625 -0.375q4.40625 -3.890625 5.1875 -4.890625q0.78125 -1.0 1.28125 -1.234375q1.0 -0.40625 2.796875 -0.46875l0.578125 0q1.625 0 1.625 0.53125q0 0.296875 -0.46875 0.5625q-4.234375 2.40625 -11.15625 8.0625q-0.171875 0.109375 -0.421875 0.296875q-0.25 0.171875 -0.6875 0.875q-0.421875 0.703125 -0.5 1.53125q-0.234375 4.203125 -0.234375 6.9375q0 3.125 0.46875 4.0625q0.140625 0.265625 0.140625 0.4375q0 0.5 -1.015625 0.71875q-1.015625 0.21875 -1.953125 0.21875q-0.9375 0 -1.203125 -0.40625q-0.265625 -0.40625 -0.265625 -1.640625q0 -1.234375 0.265625 -6.03125zm17.897217 0l0.03125 -0.734375q0 -0.65625 -0.53125 -0.65625q-0.4375 0 -1.09375 0.53125q-1.90625 1.671875 -4.015625 3.890625q-2.09375 2.203125 -2.78125 3.140625q-0.671875 0.9375 -0.890625 1.15625q-0.21875 0.203125 -1.1875 0.5625q-0.96875 0.375 -2.25 0.375q-1.28125 0 -1.28125 -0.390625q0 -0.84375 13.09375 -11.90625q1.171875 -0.921875 1.234375 -2.421875q0.140625 -2.46875 0.140625 -3.671875q0 -3.375 -0.5625 -5.0625l-0.171875 -0.5q0 -0.578125 2.46875 -0.578125q1.203125 0 1.703125 0.390625q0.5 0.375 0.5 1.421875q0 1.03125 -0.234375 4.359375q0 0.90625 0.625 0.90625q0.34375 0 0.765625 -0.375q4.40625 -3.890625 5.1875 -4.890625q0.78125 -1.0 1.28125 -1.234375q1.0 -0.40625 2.796875 -0.46875l0.578125 0q1.625 0 1.625 0.53125q0 0.296875 -0.46875 0.5625q-4.234375 2.40625 -11.15625 8.0625q-0.171875 0.109375 -0.421875 0.296875q-0.25 0.171875 -0.6875 0.875q-0.421875 0.703125 -0.5 1.53125q-0.234375 4.203125 -0.234375 6.9375q0 3.125 0.46875 4.0625q0.140625 0.265625 0.140625 0.4375q0 0.5 -1.015625 0.71875q-1.015625 0.21875 -1.953125 0.21875q-0.9375 0 -1.203125 -0.40625q-0.265625 -0.40625 -0.265625 -1.640625q0 -1.234375 0.265625 -6.03125zm35.597412 -14.625l0 -0.4375q0 -0.859375 3.5625 -0.859375q1.796875 0 1.796875 0.65625q0 0.265625 -0.265625 0.546875q-1.265625 1.71875 -5.390625 8.765625l4.125 0.03125q1.375 0 2.5 -1.109375q0.5625 -0.59375 1.015625 -1.109375q0.453125 -0.515625 1.015625 -1.484375q0.578125 -0.96875 0.90625 -1.53125q0.46875 -0.84375 1.625 -3.203125q0 -0.171875 0.25 -0.421875q0.25 -0.25 0.59375 -0.421875q0.359375 -0.1875 1.09375 -0.3125q0.734375 -0.140625 1.734375 -0.140625q1.0 0 1.0 0.4375q0 0.1875 -0.15625 0.4375q-0.140625 0.25 -1.734375 2.6875q-1.578125 2.4375 -3.1875 5.0625q-1.59375 2.609375 -3.375 5.671875q-1.78125 3.0625 -2.90625 5.59375q-1.109375 2.53125 -1.109375 3.703125q-0.203125 0.5625 -0.828125 0.5625q-1.828125 0 -2.53125 -0.296875q-0.703125 -0.296875 -0.703125 -0.90625q0 -1.03125 2.21875 -4.828125q2.21875 -3.796875 2.21875 -4.609375q0 -0.8125 -0.671875 -1.21875q-0.671875 -0.40625 -2.234375 -0.40625q-1.5625 0 -2.171875 0.03125q-1.125 1.84375 -2.59375 4.71875q-1.46875 2.859375 -2.46875 4.6875q-1.0 1.828125 -1.59375 2.296875q-1.234375 0.9375 -3.03125 0.9375q-1.03125 0 -1.03125 -0.53125q0 -0.296875 0.875 -1.78125q0.890625 -1.484375 2.84375 -4.671875q1.96875 -3.1875 3.40625 -5.578125l-2.03125 0.09375q-0.5 0 -0.5 -0.265625q0 -0.5625 0.71875 -1.125q0.71875 -0.578125 1.171875 -0.734375q0.46875 -0.171875 1.9375 -0.234375q1.234375 -2.109375 3.171875 -5.84375q0.734375 -1.59375 0.734375 -2.859375zm13.593994 -0.0625l-0.03125 -0.734375q0 -0.90625 3.09375 -0.90625q1.9375 0 1.9375 0.96875q0 0.171875 -0.0625 0.234375q-0.234375 1.296875 -2.640625 8.296875q-2.390625 7.0 -2.390625 7.71875q0 0.71875 0.65625 0.71875q0.5 0 0.765625 -0.265625q0.46875 -0.46875 1.171875 -1.171875q0.703125 -0.703125 3.828125 -5.046875q3.140625 -4.34375 5.03125 -7.515625q0.640625 -1.265625 4.203125 -1.265625q0.90625 0 0.90625 0.5625l-0.234375 0.640625q-1.0 2.03125 -2.703125 7.171875q-1.703125 5.125 -1.703125 6.015625q0 0.875 0.671875 0.875q0.5 0 0.765625 -0.265625q0.46875 -0.46875 0.9375 -0.9375q1.234375 -1.234375 5.40625 -7.046875q4.1875 -5.8125 5.65625 -8.6875q0.359375 -0.734375 0.828125 -0.96875q0.84375 -0.390625 2.9375 -0.46875l0.671875 0q1.734375 0 1.734375 0.578125q0 0.234375 -0.3125 0.53125q-3.265625 3.09375 -9.578125 10.515625q-6.3125 7.40625 -8.578125 10.71875q-0.46875 0.6875 -0.734375 1.0q-0.265625 0.296875 -0.875 0.6875q-1.125 0.734375 -3.953125 0.734375q-1.640625 0 -1.640625 -0.796875l0.109375 -0.359375q0.1875 -0.640625 0.71875 -2.140625q0.546875 -1.5 0.90625 -2.53125q0.375 -1.03125 0.796875 -2.265625q0.84375 -2.5 0.84375 -3.0625q0 -0.578125 -0.5 -0.578125q-0.546875 0 -1.203125 0.8125q-2.640625 3.125 -6.40625 8.5q-0.625 0.890625 -1.0 1.28125q-0.359375 0.375 -1.53125 0.75q-1.171875 0.390625 -2.921875 0.390625q-1.734375 0 -1.734375 -0.796875l0.09375 -0.359375q1.171875 -3.375 3.109375 -9.703125q1.953125 -6.328125 2.65625 -9.296875q0.296875 -1.703125 0.296875 -2.53125zm19.728333 13.71875q-0.234375 0 -0.296875 -0.296875q0 -0.5625 0.796875 -1.296875q0.796875 -0.734375 1.28125 -0.921875q0.484375 -0.203125 3.21875 -0.28125l0.46875 -0.53125q10.125 -11.6875 14.0625 -11.6875q0.328125 -0.046875 0.765625 -0.046875q2.296875 0 2.296875 1.109375q0 0.203125 -0.421875 1.0625l-1.5 3.0q-1.078125 2.125 -2.078125 4.328125q-5.390625 11.90625 -6.265625 15.609375q0 0.265625 -0.6875 0.265625q-0.671875 0 -1.640625 -0.75q-0.96875 -0.75 -0.96875 -1.328125q0 -1.03125 1.625 -3.890625q1.640625 -2.875 1.640625 -3.734375q0 -1.171875 -4.53125 -1.171875q-0.65625 0 -2.0625 0.0625l-1.265625 1.671875q-2.328125 3.140625 -4.46875 7.765625q-0.359375 0.828125 -2.234375 0.828125q-1.859375 0 -1.859375 -0.53125q0 -0.359375 2.078125 -3.203125q2.078125 -2.859375 4.953125 -6.328125q-0.5 0.078125 -1.265625 0.140625q-0.765625 0.0625 -1.1875 0.109375q-0.421875 0.046875 -0.453125 0.046875zm13.828125 -4.28125q1.3125 -1.578125 1.953125 -3.171875q0.65625 -1.609375 0.65625 -2.171875q0 -0.5625 -0.5625 -0.5625q-1.0 0 -3.3125 2.125q-2.296875 2.109375 -5.0 5.265625l3.640625 0.078125q1.328125 0 2.625 -1.5625zm26.796936 -5.28125q0 1.875 -0.75 4.28125q-0.75 2.390625 -2.21875 4.890625q-1.453125 2.5 -3.375 4.625q-1.921875 2.109375 -4.546875 3.46875q-2.609375 1.34375 -5.390625 1.34375q-2.78125 0 -4.375 -1.546875q-1.59375 -1.5625 -1.59375 -4.296875q0 -1.859375 0.734375 -4.25q0.75 -2.40625 2.21875 -4.90625q1.46875 -2.5 3.375 -4.59375q1.921875 -2.109375 4.53125 -3.453125q2.625 -1.359375 5.40625 -1.359375q2.796875 0 4.390625 1.53125q1.59375 1.53125 1.59375 4.265625zm-3.921875 -0.296875q0 -3.671875 -2.671875 -3.671875q-2.234375 0 -4.984375 2.84375q-2.75 2.828125 -4.671875 6.84375q-1.90625 4.015625 -1.90625 7.1875q0 3.65625 2.671875 3.65625q2.1875 0 4.953125 -2.828125q2.765625 -2.828125 4.6875 -6.84375q1.921875 -4.015625 1.921875 -7.1875zm5.5010376 1.140625l-0.046875 -3.53125q0 -1.40625 -0.203125 -1.796875q-0.1875 -0.40625 -0.1875 -0.671875q0 -0.671875 2.609375 -0.671875q2.625 0 2.625 1.234375q0 0.828125 -0.5625 4.015625q-0.546875 3.1875 -0.578125 4.375q-0.03125 1.171875 0.640625 1.171875q0.390625 0 0.890625 -0.4375q2.03125 -1.796875 4.5625 -4.546875q2.546875 -2.75 3.375 -3.828125q0.828125 -1.078125 1.40625 -1.3125q1.1875 -0.46875 2.859375 -0.53125l0.5625 0q1.90625 0 1.90625 0.59375q0 0.328125 -0.5625 0.671875q-2.140625 1.234375 -7.359375 5.59375q-5.21875 4.359375 -7.609375 6.9375q-0.96875 1.03125 -3.265625 5.3125q-2.296875 4.28125 -3.140625 4.84375q-0.765625 0.671875 -2.265625 0.671875q-1.5 0 -1.5 -0.5625l0 -0.109375q0 -0.234375 1.109375 -2.0625q3.5625 -5.828125 4.0 -7.328125q0.734375 -2.40625 0.734375 -8.03125zm21.751404 17.359375l-0.46875 -0.03125q-0.453125 0 -0.6875 0.296875q-1.140625 0.96875 -3.078125 0.96875q-1.0 0 -1.0 -0.4375l0 -0.09375q0 -0.375 2.3125 -4.359375q2.328125 -3.984375 5.140625 -8.875q2.8125 -4.90625 3.625 -6.734375q0.828125 -1.828125 0.828125 -3.03125l0 -0.4375q0 -0.859375 3.5625 -0.859375q1.796875 0 1.796875 0.65625q0 0.265625 -0.265625 0.546875q-2.65625 4.328125 -7.0625 12.359375l-0.46875 0.828125q-0.46875 0.84375 -0.671875 1.1875q-0.1875 0.34375 -0.609375 1.203125q-0.421875 0.84375 -0.609375 1.375q-0.578125 1.5 -0.578125 2.34375q0 1.21875 2.203125 1.21875l0.234375 0q1.359375 0 3.0 -0.5625q3.203125 -1.125 5.203125 -4.328125q0.125 -0.296875 0.734375 -0.296875q0.625 0 0.625 0.53125q0 0.796875 -1.0625 2.875q-1.0625 2.0625 -1.9375 3.0625q-0.421875 0.59375 -1.65625 0.59375q-1.234375 0.0625 -5.34375 0.0625l-3.765625 -0.0625zm29.164978 -1.234375l0.0625 1.0q0 0.53125 -1.59375 0.53125q-2.796875 0 -2.796875 -1.0625q0 -1.0625 1.484375 -4.59375q1.484375 -3.546875 1.484375 -4.40625q0 -1.765625 -2.171875 -1.765625l-0.53125 0.03125q-0.40625 0 -0.40625 -0.296875q0 -0.640625 0.484375 -1.28125q0.484375 -0.65625 1.21875 -0.65625q3.03125 0 5.421875 -1.796875q2.40625 -1.796875 2.40625 -3.796875q0 -1.4375 -0.890625 -2.0q-0.875 -0.5625 -2.40625 -0.5625q-1.53125 0 -2.328125 0.921875q-1.96875 2.46875 -6.328125 10.328125q-4.34375 7.84375 -4.875 9.640625q-0.296875 0.828125 -1.546875 1.21875q-1.25 0.40625 -2.4375 0.40625q-1.171875 0 -1.171875 -0.453125l0 -0.078125q0 -0.359375 2.296875 -4.25q2.296875 -3.90625 5.078125 -8.6875q2.78125 -4.78125 3.59375 -6.609375q0.828125 -1.84375 0.828125 -3.109375l0 -0.328125q0 -0.90625 5.0625 -0.90625q5.4375 0 7.15625 1.09375q0.734375 0.46875 1.25 1.375q0.515625 0.890625 0.515625 2.296875q0 1.40625 -1.140625 2.84375q-1.125 1.421875 -2.40625 2.109375q-1.28125 0.671875 -2.546875 0.984375q-1.265625 0.296875 -1.90625 0.5q-0.625 0.1875 -0.625 0.625q0 0.265625 0.484375 0.65625q0.484375 0.375 0.984375 0.921875q0.5 0.53125 0.5 1.125q0 0.59375 -1.109375 3.453125q-1.09375 2.84375 -1.09375 4.578125zm9.702332 1.765625q-1.765625 0 -2.265625 -0.125q-0.5 -0.109375 -0.859375 -0.203125q-0.34375 -0.078125 -0.453125 -0.109375q-0.09375 -0.03125 -0.296875 -0.03125q-0.390625 0 -0.71875 0.203125q-1.171875 0.96875 -3.078125 0.96875q-1.0 0 -1.0 -0.453125q0 -0.453125 2.3125 -4.453125q2.328125 -4.0 5.140625 -8.890625q2.8125 -4.90625 3.625 -6.734375q0.828125 -1.828125 0.828125 -3.171875l0 -0.265625q0 -0.96875 5.5625 -0.96875q8.265625 0 8.265625 5.640625q0 4.0625 -2.765625 8.96875q-1.4375 2.5625 -3.375 4.703125q-1.921875 2.125 -4.8125 3.53125q-2.875 1.390625 -6.109375 1.390625zm10.96875 -11.40625q1.234375 -2.390625 1.875 -4.46875q0.65625 -2.09375 0.65625 -3.5q0 -1.421875 -0.828125 -2.15625q-0.8125 -0.734375 -2.75 -0.734375q-1.328125 0 -2.125 0.9375q-2.09375 2.625 -6.0625 9.71875q-3.96875 7.078125 -3.96875 8.28125q0 1.328125 2.828125 1.328125q2.0 0 4.03125 -1.390625q2.03125 -1.40625 3.5625 -3.515625q1.546875 -2.125 2.78125 -4.5zm8.961426 11.40625q-1.765625 0 -2.265625 -0.125q-0.5 -0.109375 -0.859375 -0.203125q-0.34375 -0.078125 -0.453125 -0.109375q-0.09375 -0.03125 -0.296875 -0.03125q-0.390625 0 -0.71875 0.203125q-1.171875 0.96875 -3.078125 0.96875q-1.0 0 -1.0 -0.453125q0 -0.453125 2.3125 -4.453125q2.328125 -4.0 5.140625 -8.890625q2.8125 -4.90625 3.625 -6.734375q0.828125 -1.828125 0.828125 -3.171875l0 -0.265625q0 -0.96875 5.5625 -0.96875q8.265625 0 8.265625 5.640625q0 4.0625 -2.765625 8.96875q-1.4375 2.5625 -3.375 4.703125q-1.921875 2.125 -4.8125 3.53125q-2.875 1.390625 -6.109375 1.390625zm10.96875 -11.40625q1.234375 -2.390625 1.875 -4.46875q0.65625 -2.09375 0.65625 -3.5q0 -1.421875 -0.828125 -2.15625q-0.8125 -0.734375 -2.75 -0.734375q-1.328125 0 -2.125 0.9375q-2.09375 2.625 -6.0625 9.71875q-3.96875 7.078125 -3.96875 8.28125q0 1.328125 2.828125 1.328125q2.0 0 4.03125 -1.390625q2.03125 -1.40625 3.5625 -3.515625q1.546875 -2.125 2.78125 -4.5zm11.390625 3.203125l0.03125 -0.734375q0 -0.65625 -0.53125 -0.65625q-0.4375 0 -1.09375 0.53125q-1.90625 1.671875 -4.015625 3.890625q-2.09375 2.203125 -2.78125 3.140625q-0.671875 0.9375 -0.890625 1.15625q-0.21875 0.203125 -1.1875 0.5625q-0.96875 0.375 -2.25 0.375q-1.28125 0 -1.28125 -0.390625q0 -0.84375 13.09375 -11.90625q1.171875 -0.921875 1.234375 -2.421875q0.140625 -2.46875 0.140625 -3.671875q0 -3.375 -0.5625 -5.0625l-0.171875 -0.5q0 -0.578125 2.46875 -0.578125q1.203125 0 1.703125 0.390625q0.5 0.375 0.5 1.421875q0 1.03125 -0.234375 4.359375q0 0.90625 0.625 0.90625q0.34375 0 0.765625 -0.375q4.40625 -3.890625 5.1875 -4.890625q0.78125 -1.0 1.28125 -1.234375q1.0 -0.40625 2.796875 -0.46875l0.578125 0q1.625 0 1.625 0.53125q0 0.296875 -0.46875 0.5625q-4.234375 2.40625 -11.15625 8.0625q-0.171875 0.109375 -0.421875 0.296875q-0.25 0.171875 -0.6875 0.875q-0.421875 0.703125 -0.5 1.53125q-0.234375 4.203125 -0.234375 6.9375q0 3.125 0.46875 4.0625q0.140625 0.265625 0.140625 0.4375q0 0.5 -1.015625 0.71875q-1.015625 0.21875 -1.953125 0.21875q-0.9375 0 -1.203125 -0.40625q-0.265625 -0.40625 -0.265625 -1.640625q0 -1.234375 0.265625 -6.03125z" fill-rule="nonzero"/><defs><radialGradient id="p.1" gradientUnits="userSpaceOnUse" gradientTransform="matrix(8.329870917839845 0.0 0.0 8.329870917839845 0.0 0.0)" spreadMethod="pad" cx="47.21079670964069" cy="44.89030500981589" fx="47.21079670964069" fy="44.89030500981589" r="8.32987117767334"><stop offset="0.0" stop-color="#dcecd5"/><stop offset="1.0" stop-color="#93bc81"/></radialGradient></defs><path fill="url(#p.1)" d="m327.32285 363.1273l110.2677 0l0 -10.803131l21.606293 21.606293l-21.606293 21.606293l0 -10.803162l-110.2677 0z" fill-rule="evenodd"/><path stroke="#38761d" stroke-width="1.0" stroke-linejoin="round" stroke-linecap="butt" d="m327.32285 363.1273l110.2677 0l0 -10.803131l21.606293 21.606293l-21.606293 21.606293l0 -10.803162l-110.2677 0z" fill-rule="evenodd"/><path fill="#d0e0e3" d="m606.25195 46.20308l176.75592 0l0 216.72441l-176.75592 0z" fill-rule="evenodd"/><path stroke="#45818e" stroke-width="4.0" stroke-linejoin="round" stroke-linecap="butt" d="m606.25195 46.20308l176.75592 0l0 216.72441l-176.75592 0z" fill-rule="evenodd"/><path fill="#000000" fill-opacity="0.0" d="m629.1627 59.356956l246.6142 0l0 104.7559l-246.6142 0z" fill-rule="evenodd"/><path fill="#000000" d="m649.194 77.50008l0 -0.390625q0 -0.796875 3.28125 -0.796875q1.65625 0 1.65625 0.609375q0 0.25 -0.234375 0.484375q-1.171875 1.59375 -4.96875 8.0625l3.796875 0.03125q1.25 0 2.296875 -1.015625q0.515625 -0.546875 0.921875 -1.015625q0.421875 -0.484375 0.9375 -1.359375q0.53125 -0.890625 0.84375 -1.421875q0.421875 -0.765625 1.5 -2.9375q0 -0.15625 0.21875 -0.375q0.234375 -0.234375 0.5625 -0.40625q0.328125 -0.171875 1.0 -0.296875q0.671875 -0.125 1.59375 -0.125q0.921875 0 0.921875 0.40625q0 0.1875 -0.140625 0.421875q-0.140625 0.21875 -1.59375 2.453125q-1.453125 2.234375 -2.9375 4.65625q-1.46875 2.40625 -3.109375 5.234375q-1.640625 2.8125 -2.671875 5.140625q-1.015625 2.328125 -1.015625 3.390625q-0.1875 0.53125 -0.765625 0.53125q-1.6875 0 -2.34375 -0.28125q-0.640625 -0.28125 -0.640625 -0.828125q0 -0.953125 2.03125 -4.4375q2.046875 -3.5 2.046875 -4.25q0 -0.75 -0.609375 -1.109375q-0.609375 -0.375 -2.0625 -0.375q-1.4375 0 -1.984375 0.03125q-1.046875 1.6875 -2.390625 4.328125q-1.34375 2.625 -2.265625 4.3125q-0.921875 1.6875 -1.46875 2.109375q-1.140625 0.859375 -2.796875 0.859375q-0.953125 0 -0.953125 -0.484375q0 -0.28125 0.8125 -1.640625q0.8125 -1.359375 2.625 -4.28125q1.8125 -2.9375 3.125 -5.140625l-1.859375 0.09375q-0.46875 0 -0.46875 -0.25q0 -0.53125 0.65625 -1.046875q0.671875 -0.515625 1.09375 -0.671875q0.421875 -0.15625 1.78125 -0.21875q1.125 -1.921875 2.90625 -5.359375q0.671875 -1.46875 0.671875 -2.640625zm20.080322 10.1875l-2.59375 -0.09375q-1.9375 0 -2.984375 1.25q-0.734375 0.921875 -1.953125 3.015625q-1.203125 2.078125 -1.203125 3.296875q0 1.140625 2.234375 1.140625q1.390625 0 2.953125 -0.515625q3.15625 -1.046875 5.0 -4.0q0.203125 -0.265625 0.71875 -0.265625q0.53125 0 0.53125 0.59375q0 0.59375 -0.984375 2.5q-0.984375 1.90625 -1.75 2.84375q-0.390625 0.5 -1.546875 0.5625q-1.140625 0.0625 -3.5 0.0625l-3.015625 0l-1.75 -0.03125l-0.8125 -0.0625q-0.03125 0 -0.21875 0q-0.1875 0 -0.46875 0.265625q-1.0 0.890625 -2.875 0.890625q-0.890625 0 -0.890625 -0.390625l0 -0.09375q0 -0.34375 2.125 -4.0q2.140625 -3.671875 4.734375 -8.171875q2.609375 -4.5 3.34375 -6.171875q0.734375 -1.671875 0.734375 -2.875l0 -0.328125q0 -0.53125 6.53125 -0.53125q2.15625 0 3.75 0.0625q0.453125 -0.515625 2.359375 -0.515625q0.796875 0 0.796875 0.390625q0 0.703125 -1.40625 2.84375q-1.390625 2.125 -2.421875 2.890625q-0.34375 0.28125 -0.875 0.28125q-0.515625 0 -0.515625 -0.21875q0 -0.09375 0.09375 -0.25q0.5 -0.9375 0.5 -2.140625q0 -1.6875 -2.34375 -1.6875q-1.40625 0 -2.21875 0.734375q-0.8125 0.734375 -1.609375 2.0625q-0.796875 1.3125 -1.1875 2.265625q-0.375 0.953125 -0.375 1.1875q0 0.75 0.71875 0.921875q0.71875 0.15625 2.875 0.15625l2.265625 -0.09375q0.296875 0 0.296875 0.234375q0 0.234375 -0.328125 0.765625q-0.3125 0.53125 -0.640625 0.75q-0.671875 0.46875 -2.09375 0.46875zm6.5947876 10.328125l-0.421875 -0.03125q-0.4375 0 -0.65625 0.265625q-1.03125 0.890625 -2.8125 0.890625q-0.921875 0 -0.921875 -0.390625l0 -0.09375q0 -0.34375 2.125 -4.0q2.140625 -3.671875 4.71875 -8.171875q2.59375 -4.5 3.34375 -6.1875q0.75 -1.6875 0.75 -2.796875l0 -0.390625q0 -0.796875 3.28125 -0.796875q1.65625 0 1.65625 0.609375q0 0.25 -0.234375 0.484375q-2.453125 3.984375 -6.5 11.375l-0.4375 0.765625q-0.421875 0.765625 -0.609375 1.09375q-0.1875 0.3125 -0.578125 1.109375q-0.375 0.78125 -0.5625 1.265625q-0.515625 1.375 -0.515625 2.140625q0 1.140625 2.03125 1.140625l0.203125 0q1.265625 0 2.765625 -0.515625q2.9375 -1.046875 4.78125 -4.0q0.125 -0.265625 0.6875 -0.265625q0.5625 0 0.5625 0.484375q0 0.734375 -0.984375 2.640625q-0.96875 1.90625 -1.765625 2.8125q-0.40625 0.5625 -1.53125 0.5625q-1.140625 0.0625 -4.90625 0.0625l-3.46875 -0.0625zm16.033264 0l-0.421875 -0.03125q-0.4375 0 -0.65625 0.265625q-1.03125 0.890625 -2.8125 0.890625q-0.921875 0 -0.921875 -0.390625l0 -0.09375q0 -0.34375 2.125 -4.0q2.140625 -3.671875 4.71875 -8.171875q2.59375 -4.5 3.34375 -6.1875q0.75 -1.6875 0.75 -2.796875l0 -0.390625q0 -0.796875 3.28125 -0.796875q1.65625 0 1.65625 0.609375q0 0.25 -0.234375 0.484375q-2.453125 3.984375 -6.5 11.375l-0.4375 0.765625q-0.421875 0.765625 -0.609375 1.09375q-0.1875 0.3125 -0.578125 1.109375q-0.375 0.78125 -0.5625 1.265625q-0.515625 1.375 -0.515625 2.140625q0 1.140625 2.03125 1.140625l0.203125 0q1.265625 0 2.765625 -0.515625q2.9375 -1.046875 4.78125 -4.0q0.125 -0.265625 0.6875 -0.265625q0.5625 0 0.5625 0.484375q0 0.734375 -0.984375 2.640625q-0.96875 1.90625 -1.765625 2.8125q-0.40625 0.5625 -1.53125 0.5625q-1.140625 0.0625 -4.90625 0.0625l-3.46875 -0.0625zm33.759155 -16.75q0 1.71875 -0.703125 3.9375q-0.6875 2.203125 -2.03125 4.5q-1.34375 2.296875 -3.109375 4.25q-1.765625 1.9375 -4.171875 3.1875q-2.40625 1.234375 -4.96875 1.234375q-2.5625 0 -4.03125 -1.421875q-1.46875 -1.421875 -1.46875 -3.9375q0 -1.71875 0.6875 -3.921875q0.6875 -2.203125 2.03125 -4.5q1.359375 -2.3125 3.125 -4.234375q1.765625 -1.9375 4.171875 -3.171875q2.40625 -1.25 4.953125 -1.25q2.5625 0 4.03125 1.421875q1.484375 1.40625 1.484375 3.90625zm-3.625 -0.265625q0 -3.375 -2.453125 -3.375q-2.046875 0 -4.578125 2.609375q-2.53125 2.609375 -4.296875 6.296875q-1.765625 3.6875 -1.765625 6.609375q0 3.375 2.453125 3.375q2.03125 0 4.5625 -2.609375q2.546875 -2.609375 4.3125 -6.296875q1.765625 -3.703125 1.765625 -6.609375z" fill-rule="nonzero"/><path fill="#000000" d="m644.8815 114.23757l-0.03125 -0.671875q0 -0.828125 2.84375 -0.828125q1.78125 0 1.78125 0.890625q0 0.15625 -0.0625 0.21875q-0.21875 1.1875 -2.421875 7.625q-2.203125 6.4375 -2.203125 7.1093674q0 0.65625 0.609375 0.65625q0.453125 0 0.703125 -0.25q0.4375 -0.4375 1.078125 -1.0781174q0.640625 -0.640625 3.515625 -4.640625q2.890625 -4.0 4.640625 -6.90625q0.578125 -1.171875 3.859375 -1.171875q0.828125 0 0.828125 0.515625l-0.21875 0.59375q-0.921875 1.859375 -2.484375 6.59375q-1.5625 4.71875 -1.5625 5.5312424q0 0.8125 0.609375 0.8125q0.46875 0 0.71875 -0.25q0.421875 -0.4375 0.84375 -0.859375q1.140625 -1.1406174 4.984375 -6.4843674q3.859375 -5.34375 5.203125 -7.984375q0.328125 -0.671875 0.765625 -0.890625q0.765625 -0.359375 2.703125 -0.421875l0.609375 0q1.59375 0 1.59375 0.515625q0 0.21875 -0.28125 0.484375q-3.0 2.859375 -8.8125 9.6875q-5.8125 6.8124924 -7.890625 9.843742q-0.4375 0.640625 -0.6875 0.921875q-0.234375 0.28125 -0.78125 0.640625q-1.046875 0.671875 -3.65625 0.671875q-1.5 0 -1.5 -0.734375l0.09375 -0.328125q0.1875 -0.59375 0.671875 -1.96875q0.5 -1.375 0.828125 -2.328125q0.34375 -0.953125 0.734375 -2.0781174q0.765625 -2.3125 0.765625 -2.828125q0 -0.515625 -0.453125 -0.515625q-0.5 0 -1.109375 0.734375q-2.421875 2.875 -5.875 7.8124924q-0.59375 0.828125 -0.9375 1.1875q-0.328125 0.34375 -1.40625 0.6875q-1.0625 0.359375 -2.671875 0.359375q-1.609375 0 -1.609375 -0.734375l0.09375 -0.328125q1.0625 -3.09375 2.859375 -8.921867q1.796875 -5.828125 2.4375 -8.5625q0.28125 -1.5625 0.28125 -2.328125zm41.111816 3.828125q0 1.71875 -0.703125 3.9375q-0.6875 2.203125 -2.03125 4.5q-1.34375 2.2968674 -3.109375 4.2499924q-1.765625 1.9375 -4.171875 3.1875q-2.40625 1.234375 -4.96875 1.234375q-2.5625 0 -4.03125 -1.421875q-1.46875 -1.421875 -1.46875 -3.9375q0 -1.71875 0.6875 -3.9218674q0.6875 -2.203125 2.03125 -4.5q1.359375 -2.3125 3.125 -4.234375q1.765625 -1.9375 4.171875 -3.171875q2.40625 -1.25 4.953125 -1.25q2.5625 0 4.03125 1.421875q1.484375 1.40625 1.484375 3.90625zm-3.625 -0.265625q0 -3.375 -2.453125 -3.375q-2.046875 0 -4.578125 2.609375q-2.53125 2.609375 -4.296875 6.296875q-1.765625 3.6875 -1.765625 6.6093674q0 3.375 2.453125 3.375q2.03125 0 4.5625 -2.609375q2.546875 -2.609375 4.3125 -6.2968674q1.765625 -3.703125 1.765625 -6.609375zm13.955078 15.874992l0.0625 0.921875q0 0.484375 -1.484375 0.484375q-2.5625 0 -2.5625 -0.96875q0 -0.984375 1.359375 -4.234375q1.359375 -3.2499924 1.359375 -4.0468674q0 -1.625 -1.984375 -1.625l-0.5 0.03125q-0.359375 0 -0.359375 -0.28125q0 -0.578125 0.4375 -1.171875q0.453125 -0.609375 1.125 -0.609375q2.78125 0 4.984375 -1.65625q2.21875 -1.65625 2.21875 -3.484375q0 -1.328125 -0.8125 -1.84375q-0.8125 -0.515625 -2.234375 -0.515625q-1.40625 0 -2.140625 0.859375q-1.796875 2.265625 -5.8125 9.484375q-4.0 7.2187424 -4.484375 8.874992q-0.28125 0.765625 -1.4375 1.125q-1.140625 0.375 -2.234375 0.375q-1.078125 0 -1.078125 -0.421875l0 -0.0625q0 -0.34375 2.109375 -3.921875q2.125 -3.5937424 4.671875 -7.9843674q2.5625 -4.40625 3.3125 -6.09375q0.765625 -1.6875 0.765625 -2.859375l0 -0.296875q0 -0.828125 4.65625 -0.828125q5.0 0 6.59375 1.015625q0.671875 0.421875 1.140625 1.25q0.484375 0.828125 0.484375 2.125q0 1.28125 -1.046875 2.609375q-1.046875 1.3125 -2.234375 1.9375q-1.171875 0.625 -2.34375 0.90625q-1.15625 0.265625 -1.75 0.453125q-0.578125 0.1875 -0.578125 0.578125q0 0.25 0.4375 0.609375q0.453125 0.34375 0.90625 0.84375q0.46875 0.484375 0.46875 1.046875q0 0.546875 -1.015625 3.1718674q-1.0 2.609375 -1.0 4.203125zm5.788208 1.140625l-0.421875 -0.03125q-0.4375 0 -0.65625 0.265625q-1.03125 0.890625 -2.8125 0.890625q-0.921875 0 -0.921875 -0.390625l0 -0.09375q0 -0.34375 2.125 -4.0q2.140625 -3.6718674 4.71875 -8.171867q2.59375 -4.5 3.34375 -6.1875q0.75 -1.6875 0.75 -2.796875l0 -0.390625q0 -0.796875 3.28125 -0.796875q1.65625 0 1.65625 0.609375q0 0.25 -0.234375 0.484375q-2.453125 3.984375 -6.5 11.375l-0.4375 0.765625q-0.421875 0.765625 -0.609375 1.09375q-0.1875 0.3125 -0.578125 1.1093674q-0.375 0.78125 -0.5625 1.265625q-0.515625 1.375 -0.515625 2.140625q0 1.140625 2.03125 1.140625l0.203125 0q1.265625 0 2.765625 -0.515625q2.9375 -1.046875 4.78125 -4.0q0.125 -0.265625 0.6875 -0.265625q0.5625 0 0.5625 0.484375q0 0.734375 -0.984375 2.640625q-0.96875 1.90625 -1.765625 2.8125q-0.40625 0.5625 -1.53125 0.5625q-1.140625 0.0625 -4.90625 0.0625l-3.46875 -0.0625zm19.158264 0.484375q-1.625 0 -2.09375 -0.109375q-0.453125 -0.109375 -0.78125 -0.1875q-0.3125 -0.0625 -0.40625 -0.09375q-0.09375 -0.03125 -0.265625 -0.03125q-0.375 0 -0.6875 0.171875q-1.0625 0.890625 -2.8125 0.890625q-0.921875 0 -0.921875 -0.421875q0 -0.40625 2.125 -4.078125q2.140625 -3.6874924 4.71875 -8.187492q2.59375 -4.5 3.34375 -6.1875q0.75 -1.6875 0.75 -2.921875l0 -0.234375q0 -0.890625 5.125 -0.890625q7.609375 0 7.609375 5.171875q0 3.75 -2.546875 8.25q-1.3125 2.3593674 -3.09375 4.3281174q-1.78125 1.953125 -4.4375 3.25q-2.65625 1.28125 -5.625 1.28125zm10.078125 -10.499992q1.140625 -2.1875 1.734375 -4.09375q0.609375 -1.921875 0.609375 -3.21875q0 -1.3125 -0.75 -1.984375q-0.75 -0.671875 -2.53125 -0.671875q-1.234375 0 -1.96875 0.84375q-1.921875 2.421875 -5.578125 8.9375q-3.640625 6.5156174 -3.640625 7.6249924q0 1.21875 2.609375 1.21875q1.828125 0 3.703125 -1.28125q1.875 -1.28125 3.28125 -3.234375q1.40625 -1.9531174 2.53125 -4.1406174z" fill-rule="nonzero"/><path fill="#000000" d="m641.444 163.67819q-0.21875 0 -0.28125 -0.28125q0 -0.515625 0.734375 -1.1875q0.734375 -0.6875 1.171875 -0.859375q0.453125 -0.1875 2.96875 -0.25l0.4375 -0.5q9.3125 -10.75 12.9375 -10.75q0.296875 -0.03125 0.703125 -0.03125q2.109375 0 2.109375 1.0q0 0.1875 -0.390625 0.984375l-1.390625 2.765625q-0.96875 1.953125 -1.890625 3.984375q-4.96875 10.9375 -5.765625 14.34375q0 0.25 -0.640625 0.25q-0.625 0 -1.515625 -0.6875q-0.875 -0.6875 -0.875 -1.21875q0 -0.953125 1.5 -3.578125q1.5 -2.640625 1.5 -3.4375q0 -1.078125 -4.171875 -1.078125q-0.609375 0 -1.90625 0.0625l-1.15625 1.53125q-2.140625 2.890625 -4.109375 7.140625q-0.34375 0.765625 -2.0625 0.765625q-1.703125 0 -1.703125 -0.484375q0 -0.34375 1.90625 -2.953125q1.921875 -2.625 4.5625 -5.8125q-0.46875 0.0625 -1.171875 0.125q-0.703125 0.0625 -1.09375 0.109375q-0.375 0.046875 -0.40625 0.046875zm12.71875 -3.953125q1.203125 -1.453125 1.796875 -2.921875q0.59375 -1.46875 0.59375 -1.984375q0 -0.53125 -0.515625 -0.53125q-0.921875 0 -3.046875 1.953125q-2.109375 1.9375 -4.59375 4.859375l3.34375 0.0625q1.234375 0 2.421875 -1.4375zm10.272644 10.96875q0 -1.34375 1.0 -6.828125q1.0 -5.5 1.0 -6.0625q0 -0.5625 -0.328125 -0.5625q-0.328125 0 -0.875 0.640625q-0.546875 0.640625 -0.921875 1.25l-0.390625 0.640625q-2.453125 4.015625 -5.546875 10.640625q-0.625 1.359375 -1.171875 1.734375q-0.546875 0.390625 -1.578125 0.390625q-1.03125 0 -1.03125 -0.46875l0 -0.09375q0 -0.390625 1.5625 -2.90625q5.984375 -9.59375 8.734375 -15.171875q0.71875 -1.421875 0.71875 -2.546875l0 -0.5q0 -0.203125 0.15625 -0.4375q0.171875 -0.234375 1.0625 -0.484375q0.890625 -0.265625 2.453125 -0.265625q2.359375 0 2.359375 0.890625q0 0.265625 -1.265625 5.9375q-1.25 5.671875 -1.25 6.859375q0 1.1875 0.25 1.1875q0.359375 0 0.75 -0.40625q0.40625 -0.40625 0.625 -0.765625l0.21875 -0.40625q1.953125 -3.21875 3.515625 -6.390625q1.578125 -3.171875 2.3125 -4.671875q0.734375 -1.5 1.28125 -1.890625q0.796875 -0.46875 2.015625 -0.46875q1.234375 0 1.234375 0.375l0 0.0625q0 0.203125 -1.625 2.5625q-1.625 2.359375 -4.3125 6.640625q-2.671875 4.28125 -4.671875 8.171875q-0.859375 2.0 -0.859375 3.1875q0 0.375 -0.140625 0.5625q-0.125 0.171875 -0.9375 0.34375q-0.8125 0.171875 -1.671875 0.171875l-0.984375 0q-0.34375 0 -0.828125 -0.15625q-0.859375 -0.25 -0.859375 -0.765625zm14.987793 1.40625q-1.625 0 -2.09375 -0.109375q-0.453125 -0.109375 -0.78125 -0.1875q-0.3125 -0.0625 -0.40625 -0.09375q-0.09375 -0.03125 -0.265625 -0.03125q-0.375 0 -0.6875 0.171875q-1.0625 0.890625 -2.8125 0.890625q-0.921875 0 -0.921875 -0.421875q0 -0.40625 2.125 -4.078125q2.140625 -3.6875 4.71875 -8.1875q2.59375 -4.5 3.34375 -6.1875q0.75 -1.6875 0.75 -2.921875l0 -0.234375q0 -0.890625 5.125 -0.890625q7.609375 0 7.609375 5.171875q0 3.75 -2.546875 8.25q-1.3125 2.359375 -3.09375 4.328125q-1.78125 1.953125 -4.4375 3.25q-2.65625 1.28125 -5.625 1.28125zm10.078125 -10.5q1.140625 -2.1875 1.734375 -4.09375q0.609375 -1.921875 0.609375 -3.21875q0 -1.3125 -0.75 -1.984375q-0.75 -0.671875 -2.53125 -0.671875q-1.234375 0 -1.96875 0.84375q-1.921875 2.421875 -5.578125 8.9375q-3.640625 6.515625 -3.640625 7.625q0 1.21875 2.609375 1.21875q1.828125 0 3.703125 -1.28125q1.875 -1.28125 3.28125 -3.234375q1.40625 -1.953125 2.53125 -4.140625zm4.4262085 2.078125q-0.21875 0 -0.28125 -0.28125q0 -0.515625 0.734375 -1.1875q0.734375 -0.6875 1.171875 -0.859375q0.453125 -0.1875 2.96875 -0.25l0.4375 -0.5q9.3125 -10.75 12.9375 -10.75q0.296875 -0.03125 0.703125 -0.03125q2.109375 0 2.109375 1.0q0 0.1875 -0.390625 0.984375l-1.390625 2.765625q-0.96875 1.953125 -1.890625 3.984375q-4.96875 10.9375 -5.765625 14.34375q0 0.25 -0.640625 0.25q-0.625 0 -1.515625 -0.6875q-0.875 -0.6875 -0.875 -1.21875q0 -0.953125 1.5 -3.578125q1.5 -2.640625 1.5 -3.4375q0 -1.078125 -4.171875 -1.078125q-0.609375 0 -1.90625 0.0625l-1.15625 1.53125q-2.140625 2.890625 -4.109375 7.140625q-0.34375 0.765625 -2.0625 0.765625q-1.703125 0 -1.703125 -0.484375q0 -0.34375 1.90625 -2.953125q1.921875 -2.625 4.5625 -5.8125q-0.46875 0.0625 -1.171875 0.125q-0.703125 0.0625 -1.09375 0.109375q-0.375 0.046875 -0.40625 0.046875zm12.71875 -3.953125q1.203125 -1.453125 1.796875 -2.921875q0.59375 -1.46875 0.59375 -1.984375q0 -0.53125 -0.515625 -0.53125q-0.921875 0 -3.046875 1.953125q-2.109375 1.9375 -4.59375 4.859375l3.34375 0.0625q1.234375 0 2.421875 -1.4375zm14.234375 11.859375q-0.4375 0 -0.765625 -0.390625q-0.3125 -0.40625 -0.40625 -0.8125l-0.09375 -0.390625q-0.09375 -0.34375 -0.453125 -0.34375q-0.34375 0 -0.625 0.21875q-2.875 2.265625 -5.359375 2.265625q-3.1875 0 -3.1875 -4.265625q0 -1.5 0.78125 -3.734375q0.78125 -2.234375 2.25 -4.671875q1.46875 -2.4375 3.328125 -4.5625q1.859375 -2.140625 4.296875 -3.515625q2.4375 -1.375 4.859375 -1.375q1.3125 0 2.140625 0.453125q0.125 0.0625 0.28125 0.0625q0.15625 0 0.296875 -0.09375q0.765625 -0.515625 1.96875 -0.515625q1.203125 0 1.203125 0.578125q0 0.734375 -1.546875 2.90625q-2.390625 3.40625 -3.921875 3.40625q-0.390625 0 -0.53125 -0.0625q-0.140625 -0.0625 -0.140625 -0.234375q0 -0.1875 0.1875 -0.625q0.609375 -1.28125 0.609375 -2.125q0 -0.84375 -0.328125 -1.28125q-0.3125 -0.453125 -1.328125 -0.453125q-1.84375 0 -4.375 2.78125q-2.515625 2.765625 -4.328125 6.40625q-1.8125 3.625 -1.8125 5.984375q0 2.0 1.65625 2.0q1.296875 0 2.921875 -1.3125q1.640625 -1.328125 2.703125 -2.84375q1.0625 -1.515625 1.0625 -2.171875q0 -0.671875 -0.65625 -0.921875q-0.640625 -0.265625 -2.46875 -0.265625q-0.375 0 -0.375 -0.28125q0 -0.515625 0.59375 -1.0625q0.609375 -0.5625 1.15625 -0.625q2.203125 -0.140625 4.640625 -0.140625q2.4375 0 2.4375 0.421875q0 0.375 -0.421875 1.140625q-0.40625 0.765625 -0.671875 1.25q-0.25 0.46875 -0.765625 1.3125q-0.5 0.84375 -0.8125 1.328125q-0.296875 0.484375 -0.9375 1.484375q-0.625 1.0 -1.0 1.609375q-0.359375 0.609375 -0.890625 1.625q-0.53125 1.015625 -0.78125 1.4375q-0.25 0.40625 -0.390625 0.40625z" fill-rule="nonzero"/><path fill="#000000" d="m661.069 191.6657q0 1.71875 -0.703125 3.9375q-0.6875 2.203125 -2.03125 4.5q-1.34375 2.296875 -3.109375 4.25q-1.765625 1.9375 -4.171875 3.1875q-2.40625 1.234375 -4.96875 1.234375q-2.5625 0 -4.03125 -1.421875q-1.46875 -1.421875 -1.46875 -3.9375q0 -1.71875 0.6875 -3.921875q0.6875 -2.203125 2.03125 -4.5q1.359375 -2.3125 3.125 -4.234375q1.765625 -1.9375 4.171875 -3.171875q2.40625 -1.25 4.953125 -1.25q2.5625 0 4.03125 1.421875q1.484375 1.40625 1.484375 3.90625zm-3.625 -0.265625q0 -3.375 -2.453125 -3.375q-2.046875 0 -4.578125 2.609375q-2.53125 2.609375 -4.296875 6.296875q-1.765625 3.6875 -1.765625 6.609375q0 3.375 2.453125 3.375q2.03125 0 4.5625 -2.609375q2.546875 -2.609375 4.3125 -6.296875q1.765625 -3.703125 1.765625 -6.609375zm22.08014 0.265625q0 1.71875 -0.703125 3.9375q-0.6875 2.203125 -2.03125 4.5q-1.34375 2.296875 -3.109375 4.25q-1.765625 1.9375 -4.171875 3.1875q-2.40625 1.234375 -4.96875 1.234375q-2.5625 0 -4.03125 -1.421875q-1.46875 -1.421875 -1.46875 -3.9375q0 -1.71875 0.6875 -3.921875q0.6875 -2.203125 2.03125 -4.5q1.359375 -2.3125 3.125 -4.234375q1.765625 -1.9375 4.171875 -3.171875q2.40625 -1.25 4.953125 -1.25q2.5625 0 4.03125 1.421875q1.484375 1.40625 1.484375 3.90625zm-3.625 -0.265625q0 -3.375 -2.453125 -3.375q-2.046875 0 -4.578125 2.609375q-2.53125 2.609375 -4.296875 6.296875q-1.765625 3.6875 -1.765625 6.609375q0 3.375 2.453125 3.375q2.03125 0 4.5625 -2.609375q2.546875 -2.609375 4.3125 -6.296875q1.765625 -3.703125 1.765625 -6.609375zm6.283203 17.5q-1.625 0 -2.09375 -0.109375q-0.453125 -0.109375 -0.78125 -0.1875q-0.3125 -0.0625 -0.40625 -0.09375q-0.09375 -0.03125 -0.265625 -0.03125q-0.375 0 -0.6875 0.171875q-1.0625 0.890625 -2.8125 0.890625q-0.921875 0 -0.921875 -0.421875q0 -0.40625 2.125 -4.078125q2.140625 -3.6875 4.71875 -8.1875q2.59375 -4.5 3.34375 -6.1875q0.75 -1.6875 0.75 -2.921875l0 -0.234375q0 -0.890625 5.125 -0.890625q7.609375 0 7.609375 5.171875q0 3.75 -2.546875 8.25q-1.3125 2.359375 -3.09375 4.328125q-1.78125 1.953125 -4.4375 3.25q-2.65625 1.28125 -5.625 1.28125zm10.078125 -10.5q1.140625 -2.1875 1.734375 -4.09375q0.609375 -1.921875 0.609375 -3.21875q0 -1.3125 -0.75 -1.984375q-0.75 -0.671875 -2.53125 -0.671875q-1.234375 0 -1.96875 0.84375q-1.921875 2.421875 -5.578125 8.9375q-3.640625 6.515625 -3.640625 7.625q0 1.21875 2.609375 1.21875q1.828125 0 3.703125 -1.28125q1.875 -1.28125 3.28125 -3.234375q1.40625 -1.953125 2.53125 -4.140625zm8.254395 10.5q-1.625 0 -2.09375 -0.109375q-0.453125 -0.109375 -0.78125 -0.1875q-0.3125 -0.0625 -0.40625 -0.09375q-0.09375 -0.03125 -0.265625 -0.03125q-0.375 0 -0.6875 0.171875q-1.0625 0.890625 -2.8125 0.890625q-0.921875 0 -0.921875 -0.421875q0 -0.40625 2.125 -4.078125q2.140625 -3.6875 4.71875 -8.1875q2.59375 -4.5 3.34375 -6.1875q0.75 -1.6875 0.75 -2.921875l0 -0.234375q0 -0.890625 5.125 -0.890625q7.609375 0 7.609375 5.171875q0 3.75 -2.546875 8.25q-1.3125 2.359375 -3.09375 4.328125q-1.78125 1.953125 -4.4375 3.25q-2.65625 1.28125 -5.625 1.28125zm10.078125 -10.5q1.140625 -2.1875 1.734375 -4.09375q0.609375 -1.921875 0.609375 -3.21875q0 -1.3125 -0.75 -1.984375q-0.75 -0.671875 -2.53125 -0.671875q-1.234375 0 -1.96875 0.84375q-1.921875 2.421875 -5.578125 8.9375q-3.640625 6.515625 -3.640625 7.625q0 1.21875 2.609375 1.21875q1.828125 0 3.703125 -1.28125q1.875 -1.28125 3.28125 -3.234375q1.40625 -1.953125 2.53125 -4.140625zm4.4262085 2.078125q-0.21875 0 -0.28125 -0.28125q0 -0.515625 0.734375 -1.1875q0.734375 -0.6875 1.171875 -0.859375q0.453125 -0.1875 2.96875 -0.25l0.4375 -0.5q9.3125 -10.75 12.9375 -10.75q0.296875 -0.03125 0.703125 -0.03125q2.109375 0 2.109375 1.0q0 0.1875 -0.390625 0.984375l-1.390625 2.765625q-0.96875 1.953125 -1.890625 3.984375q-4.96875 10.9375 -5.765625 14.34375q0 0.25 -0.640625 0.25q-0.625 0 -1.515625 -0.6875q-0.875 -0.6875 -0.875 -1.21875q0 -0.953125 1.5 -3.578125q1.5 -2.640625 1.5 -3.4375q0 -1.078125 -4.171875 -1.078125q-0.609375 0 -1.90625 0.0625l-1.15625 1.53125q-2.140625 2.890625 -4.109375 7.140625q-0.34375 0.765625 -2.0625 0.765625q-1.703125 0 -1.703125 -0.484375q0 -0.34375 1.90625 -2.953125q1.921875 -2.625 4.5625 -5.8125q-0.46875 0.0625 -1.171875 0.125q-0.703125 0.0625 -1.09375 0.109375q-0.375 0.046875 -0.40625 0.046875zm12.71875 -3.953125q1.203125 -1.453125 1.796875 -2.921875q0.59375 -1.46875 0.59375 -1.984375q0 -0.53125 -0.515625 -0.53125q-0.921875 0 -3.046875 1.953125q-2.109375 1.9375 -4.59375 4.859375l3.34375 0.0625q1.234375 0 2.421875 -1.4375z" fill-rule="nonzero"/><path fill="#000000" d="m644.05334 229.24695l-0.03125 -3.25q0 -1.296875 -0.1875 -1.65625q-0.1875 -0.375 -0.1875 -0.625q0 -0.609375 2.40625 -0.609375q2.40625 0 2.40625 1.140625q0 0.765625 -0.515625 3.703125q-0.5 2.921875 -0.53125 4.015625q-0.015625 1.078125 0.59375 1.078125q0.359375 0 0.828125 -0.40625q1.859375 -1.65625 4.1875 -4.171875q2.34375 -2.53125 3.109375 -3.53125q0.765625 -1.0 1.28125 -1.21875q1.109375 -0.421875 2.640625 -0.484375l0.515625 0q1.75 0 1.75 0.546875q0 0.3125 -0.515625 0.625q-1.96875 1.125 -6.765625 5.140625q-4.796875 4.015625 -7.0 6.375q-0.890625 0.953125 -3.015625 4.890625q-2.109375 3.9375 -2.875 4.46875q-0.703125 0.609375 -2.09375 0.609375q-1.375 0 -1.375 -0.515625l0 -0.09375q0 -0.21875 1.015625 -1.90625q3.28125 -5.359375 3.6875 -6.75q0.671875 -2.203125 0.671875 -7.375zm16.30487 8.90625l0.03125 -0.671875q0 -0.609375 -0.484375 -0.609375q-0.40625 0 -1.015625 0.484375q-1.75 1.546875 -3.6875 3.59375q-1.921875 2.03125 -2.5625 2.890625q-0.625 0.84375 -0.828125 1.046875q-0.1875 0.203125 -1.078125 0.53125q-0.890625 0.34375 -2.0625 0.34375q-1.1875 0 -1.1875 -0.359375q0 -0.78125 12.046875 -10.953125q1.078125 -0.859375 1.140625 -2.234375q0.109375 -2.265625 0.109375 -3.375q0 -3.09375 -0.515625 -4.65625l-0.15625 -0.46875q0 -0.515625 2.265625 -0.515625q1.109375 0 1.5625 0.359375q0.46875 0.34375 0.46875 1.296875q0 0.953125 -0.21875 4.015625q0 0.828125 0.59375 0.828125q0.296875 0 0.703125 -0.34375q4.046875 -3.578125 4.765625 -4.5q0.71875 -0.921875 1.171875 -1.140625q0.921875 -0.359375 2.578125 -0.421875l0.515625 0q1.515625 0 1.515625 0.484375q0 0.28125 -0.4375 0.53125q-3.890625 2.203125 -10.265625 7.40625q-0.15625 0.09375 -0.390625 0.265625q-0.21875 0.171875 -0.625 0.8125q-0.390625 0.640625 -0.453125 1.40625q-0.21875 3.875 -0.21875 6.375q0 2.890625 0.421875 3.75q0.125 0.25 0.125 0.390625q0 0.46875 -0.9375 0.65625q-0.921875 0.203125 -1.78125 0.203125q-0.859375 0 -1.109375 -0.375q-0.25 -0.359375 -0.25 -1.484375q0 -1.140625 0.25 -5.5625zm16.462463 0l0.03125 -0.671875q0 -0.609375 -0.484375 -0.609375q-0.40625 0 -1.015625 0.484375q-1.75 1.546875 -3.6875 3.59375q-1.921875 2.03125 -2.5625 2.890625q-0.625 0.84375 -0.828125 1.046875q-0.1875 0.203125 -1.078125 0.53125q-0.890625 0.34375 -2.0625 0.34375q-1.1875 0 -1.1875 -0.359375q0 -0.78125 12.046875 -10.953125q1.078125 -0.859375 1.140625 -2.234375q0.109375 -2.265625 0.109375 -3.375q0 -3.09375 -0.515625 -4.65625l-0.15625 -0.46875q0 -0.515625 2.265625 -0.515625q1.109375 0 1.5625 0.359375q0.46875 0.34375 0.46875 1.296875q0 0.953125 -0.21875 4.015625q0 0.828125 0.59375 0.828125q0.296875 0 0.703125 -0.34375q4.046875 -3.578125 4.765625 -4.5q0.71875 -0.921875 1.171875 -1.140625q0.921875 -0.359375 2.578125 -0.421875l0.515625 0q1.515625 0 1.515625 0.484375q0 0.28125 -0.4375 0.53125q-3.890625 2.203125 -10.265625 7.40625q-0.15625 0.09375 -0.390625 0.265625q-0.21875 0.171875 -0.625 0.8125q-0.390625 0.640625 -0.453125 1.40625q-0.21875 3.875 -0.21875 6.375q0 2.890625 0.421875 3.75q0.125 0.25 0.125 0.390625q0 0.46875 -0.9375 0.65625q-0.921875 0.203125 -1.78125 0.203125q-0.859375 0 -1.109375 -0.375q-0.25 -0.359375 -0.25 -1.484375q0 -1.140625 0.25 -5.5625zm16.462463 0l0.03125 -0.671875q0 -0.609375 -0.484375 -0.609375q-0.40625 0 -1.015625 0.484375q-1.75 1.546875 -3.6875 3.59375q-1.921875 2.03125 -2.5625 2.890625q-0.625 0.84375 -0.828125 1.046875q-0.1875 0.203125 -1.078125 0.53125q-0.890625 0.34375 -2.0625 0.34375q-1.1875 0 -1.1875 -0.359375q0 -0.78125 12.046875 -10.953125q1.078125 -0.859375 1.140625 -2.234375q0.109375 -2.265625 0.109375 -3.375q0 -3.09375 -0.515625 -4.65625l-0.15625 -0.46875q0 -0.515625 2.265625 -0.515625q1.109375 0 1.5625 0.359375q0.46875 0.34375 0.46875 1.296875q0 0.953125 -0.21875 4.015625q0 0.828125 0.59375 0.828125q0.296875 0 0.703125 -0.34375q4.046875 -3.578125 4.765625 -4.5q0.71875 -0.921875 1.171875 -1.140625q0.921875 -0.359375 2.578125 -0.421875l0.515625 0q1.515625 0 1.515625 0.484375q0 0.28125 -0.4375 0.53125q-3.890625 2.203125 -10.265625 7.40625q-0.15625 0.09375 -0.390625 0.265625q-0.21875 0.171875 -0.625 0.8125q-0.390625 0.640625 -0.453125 1.40625q-0.21875 3.875 -0.21875 6.375q0 2.890625 0.421875 3.75q0.125 0.25 0.125 0.390625q0 0.46875 -0.9375 0.65625q-0.921875 0.203125 -1.78125 0.203125q-0.859375 0 -1.109375 -0.375q-0.25 -0.359375 -0.25 -1.484375q0 -1.140625 0.25 -5.5625zm16.462402 0l0.03125 -0.671875q0 -0.609375 -0.484375 -0.609375q-0.40625 0 -1.015625 0.484375q-1.75 1.546875 -3.6875 3.59375q-1.921875 2.03125 -2.5625 2.890625q-0.625 0.84375 -0.828125 1.046875q-0.1875 0.203125 -1.078125 0.53125q-0.890625 0.34375 -2.0625 0.34375q-1.1875 0 -1.1875 -0.359375q0 -0.78125 12.046875 -10.953125q1.078125 -0.859375 1.140625 -2.234375q0.109375 -2.265625 0.109375 -3.375q0 -3.09375 -0.515625 -4.65625l-0.15625 -0.46875q0 -0.515625 2.265625 -0.515625q1.109375 0 1.5625 0.359375q0.46875 0.34375 0.46875 1.296875q0 0.953125 -0.21875 4.015625q0 0.828125 0.59375 0.828125q0.296875 0 0.703125 -0.34375q4.046875 -3.578125 4.765625 -4.5q0.71875 -0.921875 1.171875 -1.140625q0.921875 -0.359375 2.578125 -0.421875l0.515625 0q1.515625 0 1.515625 0.484375q0 0.28125 -0.4375 0.53125q-3.890625 2.203125 -10.265625 7.40625q-0.15625 0.09375 -0.390625 0.265625q-0.21875 0.171875 -0.625 0.8125q-0.390625 0.640625 -0.453125 1.40625q-0.21875 3.875 -0.21875 6.375q0 2.890625 0.421875 3.75q0.125 0.25 0.125 0.390625q0 0.46875 -0.9375 0.65625q-0.921875 0.203125 -1.78125 0.203125q-0.859375 0 -1.109375 -0.375q-0.25 -0.359375 -0.25 -1.484375q0 -1.140625 0.25 -5.5625z" fill-rule="nonzero"/><path fill="#a64d79" d="m728.1311 15.678056l0 0c0 -6.2790556 4.8358765 -11.369235 10.8012085 -11.369235l0 0c2.864685 0 5.6119995 1.1978269 7.6376343 3.3299718c2.0255737 2.1321454 3.1635742 5.023954 3.1635742 8.039263l0 0c0 6.2790537 -4.8358765 11.369235 -10.8012085 11.369235l0 0c-5.965332 0 -10.8012085 -5.0901814 -10.8012085 -11.369235z" fill-rule="evenodd"/><path stroke="#741b47" stroke-width="2.0" stroke-linejoin="round" stroke-linecap="butt" d="m728.1311 15.678056l0 0c0 -6.2790556 4.8358765 -11.369235 10.8012085 -11.369235l0 0c2.864685 0 5.6119995 1.1978269 7.6376343 3.3299718c2.0255737 2.1321454 3.1635742 5.023954 3.1635742 8.039263l0 0c0 6.2790537 -4.8358765 11.369235 -10.8012085 11.369235l0 0c-5.965332 0 -10.8012085 -5.0901814 -10.8012085 -11.369235z" fill-rule="evenodd"/><path fill="#000000" fill-opacity="0.0" d="m774.14404 -6.6666668E-9l-48.752075 0l0 24.147194l48.752075 0z" fill-rule="evenodd"/><path fill="#ead1dc" d="m741.81384 14.005625q0 0.453125 -0.125 0.796875q-0.125 0.328125 -0.34375 0.578125q-0.203125 0.234375 -0.5 0.40625q-0.28125 0.15625 -0.609375 0.28125q-0.328125 0.125 -0.6875 0.234375q-0.34375 0.09375 -0.6875 0.203125q-0.34375 0.09375 -0.671875 0.234375q-0.3125 0.140625 -0.578125 0.359375q-0.25 0.203125 -0.4375 0.5q-0.171875 0.28125 -0.234375 0.6875l4.875 0l0 0.953125l-7.09375 0q0.109375 -0.71875 0.3125 -1.234375q0.21875 -0.53125 0.5 -0.90625q0.28125 -0.375 0.609375 -0.625q0.34375 -0.25 0.6875 -0.421875q0.34375 -0.171875 0.6875 -0.28125q0.359375 -0.125 0.6875 -0.234375q0.328125 -0.109375 0.609375 -0.234375q0.296875 -0.125 0.5 -0.296875q0.21875 -0.1875 0.328125 -0.453125q0.125 -0.265625 0.125 -0.65625q0 -0.359375 -0.125 -0.625q-0.109375 -0.265625 -0.328125 -0.4375q-0.203125 -0.171875 -0.484375 -0.265625q-0.28125 -0.09375 -0.609375 -0.09375q-0.34375 0 -0.640625 0.125q-0.28125 0.125 -0.515625 0.359375q-0.21875 0.21875 -0.390625 0.546875q-0.171875 0.3125 -0.25 0.703125l-1.609375 -0.890625q0.21875 -0.4375 0.609375 -0.75q0.390625 -0.328125 0.875 -0.546875q0.484375 -0.21875 1.0 -0.3125q0.515625 -0.109375 0.96875 -0.109375q0.453125 0 0.890625 0.03125q0.4375 0.03125 0.828125 0.140625q0.390625 0.09375 0.71875 0.265625q0.34375 0.171875 0.578125 0.4375q0.25 0.265625 0.390625 0.640625q0.140625 0.375 0.140625 0.890625z" fill-rule="nonzero"/><path fill="#45818e" d="m604.41205 34.46194l179.37012 0l0 33.13386l-179.37012 0z" fill-rule="evenodd"/><path stroke="#134f5c" stroke-width="3.0" stroke-linejoin="round" stroke-linecap="butt" d="m604.41205 34.46194l179.37012 0l0 33.13386l-179.37012 0z" fill-rule="evenodd"/><path fill="#a2c4c9" d="m641.70764 59.209496l0.03125 0.5q0 0.390625 -1.15625 0.390625q-2.046875 0 -2.046875 -0.8125q0 -0.75 1.21875 -3.640625q1.234375 -2.890625 1.234375 -3.546875q0 -1.1875 -1.875 -1.1875l-0.8125 0l-1.125 1.984375q-0.765625 1.34375 -1.65625 3.140625q-0.890625 1.796875 -1.40625 2.671875q-0.5 0.859375 -0.96875 1.25q-0.84375 0.671875 -2.21875 0.671875q-0.625 0 -0.6875 -0.21875q-0.03125 -0.078125 -0.03125 -0.25q0 -0.15625 0.6875 -1.3125q0.703125 -1.171875 2.171875 -3.5625q1.484375 -2.390625 2.59375 -4.28125l-1.65625 0.0625q-0.171875 0 -0.234375 -0.1875q0 -0.40625 0.421875 -0.78125q0.4375 -0.375 0.796875 -0.5q0.359375 -0.140625 1.578125 -0.1875q1.1875 -2.078125 2.0 -3.671875q0.53125 -1.21875 0.53125 -2.15625l0 -0.21875q0 -0.625 2.53125 -0.625q1.296875 0 1.296875 0.484375q0 0.1875 -0.546875 0.890625q-0.53125 0.6875 -3.234375 5.328125q0.71875 -0.03125 1.359375 -0.3125q0.65625 -0.296875 2.0625 -1.609375q1.421875 -1.328125 3.46875 -3.8125q0.046875 -0.09375 0.1875 -0.25q0.140625 -0.15625 0.890625 -0.40625q0.765625 -0.265625 2.09375 -0.265625q1.328125 0 1.328125 0.4375q0 0.140625 -2.109375 1.625q-6.328125 4.46875 -6.328125 5.1875q0 0.3125 0.765625 0.875q0.765625 0.546875 0.765625 1.09375q0 0.03125 -0.96875 2.953125q-0.953125 2.90625 -0.953125 4.25zm12.522827 -5.6875q-0.15625 0 -0.203125 -0.21875q0 -0.40625 0.5625 -0.9375q0.578125 -0.53125 0.921875 -0.671875q0.359375 -0.140625 2.328125 -0.1875l0.328125 -0.390625q7.296875 -8.421875 10.125 -8.421875q0.25 -0.015625 0.5625 -0.015625q1.65625 0 1.65625 0.78125q0 0.15625 -0.3125 0.765625l-1.078125 2.171875q-0.765625 1.53125 -1.5 3.109375q-3.875 8.578125 -4.5 11.234375q0 0.203125 -0.5 0.203125q-0.484375 0 -1.1875 -0.546875q-0.6875 -0.546875 -0.6875 -0.953125q0 -0.734375 1.171875 -2.796875q1.171875 -2.0625 1.171875 -2.6875q0 -0.84375 -3.265625 -0.84375q-0.46875 0 -1.484375 0.046875l-0.90625 1.203125q-1.6875 2.25 -3.21875 5.59375q-0.265625 0.59375 -1.609375 0.59375q-1.34375 0 -1.34375 -0.390625q0 -0.25 1.5 -2.296875q1.5 -2.0625 3.5625 -4.5625q-0.359375 0.046875 -0.921875 0.09375q-0.546875 0.046875 -0.84375 0.09375q-0.296875 0.03125 -0.328125 0.03125zm9.96875 -3.09375q0.9375 -1.125 1.40625 -2.28125q0.46875 -1.15625 0.46875 -1.5625q0 -0.40625 -0.421875 -0.40625q-0.71875 0 -2.375 1.53125q-1.65625 1.515625 -3.59375 3.796875l2.609375 0.046875q0.96875 0 1.90625 -1.125zm29.082825 -6.5625q0 1.15625 -5.03125 5.046875q-2.09375 1.609375 -4.203125 3.25q-2.09375 1.625 -3.578125 3.109375q-1.46875 1.46875 -1.46875 2.25q0 0.4375 0.546875 0.59375q0.5625 0.15625 1.25 0.15625q0.703125 0 1.8125 -0.453125q1.125 -0.453125 2.015625 -1.109375q1.890625 -1.40625 2.78125 -2.390625l0.40625 -0.46875q0.5 -0.40625 0.859375 -0.40625l0.046875 0q0.390625 0 0.390625 0.25q-0.046875 0.578125 -1.9375 3.515625q-1.875 2.9375 -2.5 3.0l-0.265625 0q-1.4375 0 -2.15625 -0.546875q-2.3125 0.21875 -2.953125 0.21875q-3.203125 0 -4.34375 -0.203125q-1.140625 -0.1875 -1.140625 -0.8125q0 -0.828125 1.5 -2.4375q1.5 -1.609375 3.640625 -3.328125q2.15625 -1.734375 4.3125 -3.390625q2.171875 -1.65625 3.671875 -2.921875q1.515625 -1.265625 1.546875 -1.625l0 -0.015625q0 -0.65625 -1.3125 -0.65625q-1.3125 0 -2.625 0.6875q-1.3125 0.6875 -2.828125 1.9375q-0.5625 0.421875 -0.90625 0.421875q-0.34375 0 -0.34375 -0.25q0.015625 -0.265625 1.171875 -2.046875q1.15625 -1.78125 1.90625 -2.40625q0.296875 -0.28125 0.765625 -0.28125q1.0 0 1.65625 0.53125q1.578125 -0.140625 3.578125 -0.140625q3.734375 0 3.734375 0.921875zm21.3797 2.765625q0 1.34375 -0.546875 3.078125q-0.53125 1.71875 -1.59375 3.53125q-1.046875 1.796875 -2.4375 3.328125q-1.375 1.515625 -3.265625 2.484375q-1.875 0.96875 -3.875 0.96875q-2.0 0 -3.15625 -1.109375q-1.15625 -1.125 -1.15625 -3.09375q0 -1.34375 0.53125 -3.0625q0.546875 -1.734375 1.609375 -3.53125q1.0625 -1.796875 2.4375 -3.3125q1.375 -1.515625 3.25 -2.484375q1.890625 -0.96875 3.890625 -0.96875q2.015625 0 3.15625 1.109375q1.15625 1.09375 1.15625 3.0625zm-2.828125 -0.21875q0 -2.640625 -1.921875 -2.640625q-1.609375 0 -3.59375 2.046875q-1.96875 2.03125 -3.359375 4.9375q-1.375 2.890625 -1.375 5.171875q0 2.625 1.921875 2.625q1.59375 0 3.578125 -2.03125q2.0 -2.046875 3.375 -4.9375q1.375 -2.890625 1.375 -5.171875zm25.916077 0.21875q0 1.34375 -0.546875 3.078125q-0.53125 1.71875 -1.59375 3.53125q-1.046875 1.796875 -2.4375 3.328125q-1.375 1.515625 -3.265625 2.484375q-1.875 0.96875 -3.875 0.96875q-2.0 0 -3.15625 -1.109375q-1.15625 -1.125 -1.15625 -3.09375q0 -1.34375 0.53125 -3.0625q0.546875 -1.734375 1.609375 -3.53125q1.0625 -1.796875 2.4375 -3.3125q1.375 -1.515625 3.25 -2.484375q1.890625 -0.96875 3.890625 -0.96875q2.015625 0 3.15625 1.109375q1.15625 1.09375 1.15625 3.0625zm-2.828125 -0.21875q0 -2.640625 -1.921875 -2.640625q-1.609375 0 -3.59375 2.046875q-1.96875 2.03125 -3.359375 4.9375q-1.375 2.890625 -1.375 5.171875q0 2.625 1.921875 2.625q1.59375 0 3.578125 -2.03125q2.0 -2.046875 3.375 -4.9375q1.375 -2.890625 1.375 -5.171875z" fill-rule="nonzero"/><path fill="#a64d79" d="m702.8503 15.678056l0 0c0 -6.2790556 4.8358154 -11.369235 10.8012085 -11.369235l0 0c2.864624 0 5.6119995 1.1978269 7.6375732 3.3299718c2.0256348 2.1321454 3.1636353 5.023954 3.1636353 8.039263l0 0c0 6.2790537 -4.8358765 11.369235 -10.8012085 11.369235l0 0c-5.965393 0 -10.8012085 -5.0901814 -10.8012085 -11.369235z" fill-rule="evenodd"/><path stroke="#741b47" stroke-width="2.0" stroke-linejoin="round" stroke-linecap="butt" d="m702.8503 15.678056l0 0c0 -6.2790556 4.8358154 -11.369235 10.8012085 -11.369235l0 0c2.864624 0 5.6119995 1.1978269 7.6375732 3.3299718c2.0256348 2.1321454 3.1636353 5.023954 3.1636353 8.039263l0 0c0 6.2790537 -4.8358765 11.369235 -10.8012085 11.369235l0 0c-5.965393 0 -10.8012085 -5.0901814 -10.8012085 -11.369235z" fill-rule="evenodd"/><path fill="#000000" fill-opacity="0.0" d="m699.1312 -6.6666668E-9l21.602417 0l0 24.147194l-21.602417 0z" fill-rule="evenodd"/><path fill="#ead1dc" d="m715.5531 14.005625q0 0.453125 -0.125 0.796875q-0.125 0.328125 -0.34375 0.578125q-0.203125 0.234375 -0.5 0.40625q-0.28125 0.15625 -0.609375 0.28125q-0.328125 0.125 -0.6875 0.234375q-0.34375 0.09375 -0.6875 0.203125q-0.34375 0.09375 -0.671875 0.234375q-0.3125 0.140625 -0.578125 0.359375q-0.25 0.203125 -0.4375 0.5q-0.171875 0.28125 -0.234375 0.6875l4.875 0l0 0.953125l-7.09375 0q0.109375 -0.71875 0.3125 -1.234375q0.21875 -0.53125 0.5 -0.90625q0.28125 -0.375 0.609375 -0.625q0.34375 -0.25 0.6875 -0.421875q0.34375 -0.171875 0.6875 -0.28125q0.359375 -0.125 0.6875 -0.234375q0.328125 -0.109375 0.609375 -0.234375q0.296875 -0.125 0.5 -0.296875q0.21875 -0.1875 0.328125 -0.453125q0.125 -0.265625 0.125 -0.65625q0 -0.359375 -0.125 -0.625q-0.109375 -0.265625 -0.328125 -0.4375q-0.203125 -0.171875 -0.484375 -0.265625q-0.28125 -0.09375 -0.609375 -0.09375q-0.34375 0 -0.640625 0.125q-0.28125 0.125 -0.515625 0.359375q-0.21875 0.21875 -0.390625 0.546875q-0.171875 0.3125 -0.25 0.703125l-1.609375 -0.890625q0.21875 -0.4375 0.609375 -0.75q0.390625 -0.328125 0.875 -0.546875q0.484375 -0.21875 1.0 -0.3125q0.515625 -0.109375 0.96875 -0.109375q0.453125 0 0.890625 0.03125q0.4375 0.03125 0.828125 0.140625q0.390625 0.09375 0.71875 0.265625q0.34375 0.171875 0.578125 0.4375q0.25 0.265625 0.390625 0.640625q0.140625 0.375 0.140625 0.890625z" fill-rule="nonzero"/><path fill="#45818e" d="m677.5694 15.678056l0 0c0 -6.2790556 4.8358765 -11.369235 10.8012085 -11.369235l0 0c2.864685 0 5.6119995 1.1978269 7.6376343 3.3299718c2.0256348 2.1321454 3.1635742 5.023954 3.1635742 8.039263l0 0c0 6.2790537 -4.8358154 11.369235 -10.8012085 11.369235l0 0c-5.965332 0 -10.8012085 -5.0901814 -10.8012085 -11.369235z" fill-rule="evenodd"/><path stroke="#134f5c" stroke-width="2.0" stroke-linejoin="round" stroke-linecap="butt" d="m677.5694 15.678056l0 0c0 -6.2790556 4.8358765 -11.369235 10.8012085 -11.369235l0 0c2.864685 0 5.6119995 1.1978269 7.6376343 3.3299718c2.0256348 2.1321454 3.1635742 5.023954 3.1635742 8.039263l0 0c0 6.2790537 -4.8358154 11.369235 -10.8012085 11.369235l0 0c-5.965332 0 -10.8012085 -5.0901814 -10.8012085 -11.369235z" fill-rule="evenodd"/><path fill="#000000" fill-opacity="0.0" d="m673.8898 -6.6666668E-9l21.568909 0l0 24.147194l-21.568909 0z" fill-rule="evenodd"/><path fill="#d0e0e3" d="m689.8898 17.536875l-0.515625 0l0 1.703125l-2.0625 0l0 -1.703125l-4.28125 0q0.140625 -0.609375 0.359375 -1.21875q0.21875 -0.625 0.5 -1.234375q0.296875 -0.609375 0.625 -1.1875q0.328125 -0.59375 0.703125 -1.109375l1.4375 0q-0.453125 0.75 -0.75 1.4375q-0.296875 0.671875 -0.484375 1.203125q-0.203125 0.625 -0.328125 1.15625l2.21875 0l0 -4.84375l2.0625 0l0 4.84375l0.515625 0l0 0.953125z" fill-rule="nonzero"/><path fill="#45818e" d="m652.2886 15.678056l0 0c0 -6.2790556 4.8358765 -11.369235 10.8012085 -11.369235l0 0c2.864685 0 5.6119995 1.1978269 7.6376343 3.3299718c2.0255737 2.1321454 3.1635742 5.023954 3.1635742 8.039263l0 0c0 6.2790537 -4.8358765 11.369235 -10.8012085 11.369235l0 0c-5.965332 0 -10.8012085 -5.0901814 -10.8012085 -11.369235z" fill-rule="evenodd"/><path stroke="#134f5c" stroke-width="2.0" stroke-linejoin="round" stroke-linecap="butt" d="m652.2886 15.678056l0 0c0 -6.2790556 4.8358765 -11.369235 10.8012085 -11.369235l0 0c2.864685 0 5.6119995 1.1978269 7.6376343 3.3299718c2.0255737 2.1321454 3.1635742 5.023954 3.1635742 8.039263l0 0c0 6.2790537 -4.8358765 11.369235 -10.8012085 11.369235l0 0c-5.965332 0 -10.8012085 -5.0901814 -10.8012085 -11.369235z" fill-rule="evenodd"/><path fill="#000000" fill-opacity="0.0" d="m648.5695 -6.6666668E-9l21.602417 0l0 24.147194l-21.602417 0z" fill-rule="evenodd"/><path fill="#d0e0e3" d="m662.132 19.24l-4.0625 0l0 -0.953125l1.0 0l0 -5.59375l-1.0 0l0 -0.953125l3.0625 0l0 6.546875l1.0 0l0 0.953125z" fill-rule="nonzero"/><path fill="#45818e" d="m627.00775 15.678056l0 0c0 -6.2790556 4.8358765 -11.369235 10.8012085 -11.369235l0 0c2.864624 0 5.6119995 1.1978269 7.6375732 3.3299718c2.0256348 2.1321454 3.1636353 5.023954 3.1636353 8.039263l0 0c0 6.2790537 -4.8358765 11.369235 -10.8012085 11.369235l0 0c-5.965332 0 -10.8012085 -5.0901814 -10.8012085 -11.369235z" fill-rule="evenodd"/><path stroke="#134f5c" stroke-width="2.0" stroke-linejoin="round" stroke-linecap="butt" d="m627.00775 15.678056l0 0c0 -6.2790556 4.8358765 -11.369235 10.8012085 -11.369235l0 0c2.864624 0 5.6119995 1.1978269 7.6375732 3.3299718c2.0256348 2.1321454 3.1636353 5.023954 3.1636353 8.039263l0 0c0 6.2790537 -4.8358765 11.369235 -10.8012085 11.369235l0 0c-5.965332 0 -10.8012085 -5.0901814 -10.8012085 -11.369235z" fill-rule="evenodd"/><path fill="#000000" fill-opacity="0.0" d="m623.2887 -6.6666668E-9l21.602417 0l0 24.147194l-21.602417 0z" fill-rule="evenodd"/><path fill="#d0e0e3" d="m635.9918 19.39625q-0.46875 0 -1.015625 -0.109375q-0.53125 -0.109375 -1.046875 -0.328125q-0.5 -0.21875 -0.921875 -0.53125q-0.40625 -0.328125 -0.625 -0.765625l1.859375 -0.875q0 0.359375 0.140625 0.671875q0.15625 0.3125 0.390625 0.546875q0.25 0.234375 0.5625 0.375q0.3125 0.125 0.65625 0.125q0.328125 0 0.625 -0.09375q0.3125 -0.09375 0.546875 -0.28125q0.234375 -0.1875 0.375 -0.453125q0.15625 -0.28125 0.15625 -0.640625q0 -0.390625 -0.140625 -0.65625q-0.125 -0.28125 -0.359375 -0.453125q-0.234375 -0.1875 -0.546875 -0.265625q-0.296875 -0.078125 -0.65625 -0.078125l-1.015625 0l0 -0.890625l1.015625 0q0.25 0 0.46875 -0.0625q0.234375 -0.0625 0.40625 -0.1875q0.1875 -0.140625 0.296875 -0.328125q0.109375 -0.203125 0.109375 -0.453125q0 -0.296875 -0.09375 -0.484375q-0.09375 -0.203125 -0.28125 -0.328125q-0.171875 -0.125 -0.40625 -0.171875q-0.234375 -0.0625 -0.5 -0.0625q-0.265625 0 -0.515625 0.078125q-0.234375 0.0625 -0.421875 0.203125q-0.1875 0.125 -0.296875 0.328125q-0.109375 0.203125 -0.109375 0.484375l-1.484375 -1.09375q0.21875 -0.265625 0.5625 -0.453125q0.34375 -0.203125 0.734375 -0.3125q0.390625 -0.125 0.78125 -0.171875q0.40625 -0.0625 0.75 -0.0625q0.3125 0 0.65625 0.046875q0.359375 0.03125 0.703125 0.109375q0.34375 0.078125 0.65625 0.21875q0.328125 0.140625 0.5625 0.359375q0.234375 0.21875 0.375 0.515625q0.15625 0.296875 0.15625 0.6875q0 0.234375 -0.109375 0.46875q-0.109375 0.21875 -0.28125 0.421875q-0.15625 0.1875 -0.375 0.34375q-0.203125 0.140625 -0.421875 0.21875q0.359375 0.078125 0.6875 0.265625q0.34375 0.171875 0.59375 0.4375q0.25 0.265625 0.390625 0.609375q0.15625 0.328125 0.15625 0.71875q0 0.515625 -0.171875 0.890625q-0.171875 0.359375 -0.453125 0.625q-0.28125 0.265625 -0.65625 0.4375q-0.375 0.15625 -0.796875 0.25q-0.421875 0.078125 -0.859375 0.109375q-0.421875 0.046875 -0.8125 0.046875z" fill-rule="nonzero"/><defs><linearGradient id="p.2" gradientUnits="userSpaceOnUse" gradientTransform="matrix(0.0 12.832046497844162 -12.832046497844162 0.0 0.0 0.0)" spreadMethod="pad" x1="5.629156332363702" y1="-44.556262447468455" x2="18.461202830207867" y2="-44.556262447468455"><stop offset="0.0" stop-color="#76a5af"/><stop offset="1.0" stop-color="#a2c4c9"/></linearGradient></defs><path fill="url(#p.2)" d="m588.30707 72.2336l0 153.62204l5.5197144 0l-11.039368 11.039383l-11.039368 -11.039383l5.5196533 0l0 -153.62204z" fill-rule="evenodd"/><path stroke="#45818e" stroke-width="2.0" stroke-linejoin="round" stroke-linecap="butt" d="m588.30707 72.2336l0 153.62204l5.5197144 0l-11.039368 11.039383l-11.039368 -11.039383l5.5196533 0l0 -153.62204z" fill-rule="evenodd"/><defs><linearGradient id="p.3" gradientUnits="userSpaceOnUse" gradientTransform="matrix(12.832052889897408 0.0 0.0 12.832052889897408 0.0 0.0)" spreadMethod="pad" x1="59.91722938079265" y1="21.326700932332006" x2="47.08517649122995" y2="21.326608250009688"><stop offset="0.0" stop-color="#ead1dc"/><stop offset="1.0" stop-color="#c27ba0"/></linearGradient></defs><path fill="url(#p.3)" d="m604.19946 279.18503l153.62207 0l0 -5.519684l11.039368 11.039368l-11.039368 11.039368l0 -5.519684l-153.62207 0z" fill-rule="evenodd"/><path stroke="#a64d79" stroke-width="2.0" stroke-linejoin="round" stroke-linecap="butt" d="m604.19946 279.18503l153.62207 0l0 -5.519684l11.039368 11.039368l-11.039368 11.039368l0 -5.519684l-153.62207 0z" fill-rule="evenodd"/></g></svg>