<svg version="1.1" viewBox="0.0 0.0 1009.3070866141733 436.0603674540682" fill="none" stroke="none" stroke-linecap="square" stroke-miterlimit="10" xmlns:xlink="http://www.w3.org/1999/xlink" xmlns="http://www.w3.org/2000/svg"><clipPath id="p.0"><path d="m0 0l1009.30707 0l0 436.06036l-1009.30707 0l0 -436.06036z" clip-rule="nonzero"/></clipPath><g clip-path="url(#p.0)"><path fill="#000000" fill-opacity="0.0" d="m0 0l1009.30707 0l0 436.06036l-1009.30707 0z" fill-rule="evenodd"/><path fill="#76a5af" d="m792.9869 312.19815l43.19684 -46.199097l0 21.59842l0 0c62.194763 -8.787079 110.34796 -35.727615 125.02167 -69.94655l0 0c21.45813 50.0399 -34.071472 100.293655 -125.02167 113.14339l0 21.59842z" fill-rule="evenodd"/><path fill="#5e838b" d="m965.7743 239.24934l0 0c0 -52.216995 -77.35956 -94.54724 -172.78741 -94.54724l0 -43.196854l0 0c95.42786 0 172.78741 42.330246 172.78741 94.54724z" fill-rule="evenodd"/><path fill="#000000" fill-opacity="0.0" d="m965.7743 239.24934l0 0c0 -52.216995 -77.35956 -94.54724 -172.78741 -94.54724l0 -43.196854l0 0c95.42786 0 172.78741 42.330246 172.78741 94.54724l0 43.196854l0 0c0 43.113388 -53.301758 80.76662 -129.59058 91.54497l0 21.59842l-43.19684 -40.19458l43.19684 -46.199097l0 21.59842l0 0c62.194763 -8.787079 110.34796 -35.727615 125.02167 -69.94655" fill-rule="evenodd"/><path stroke="#134f5c" stroke-width="1.0" stroke-linejoin="round" stroke-linecap="butt" d="m965.7743 239.24934l0 0c0 -52.216995 -77.35956 -94.54724 -172.78741 -94.54724l0 -43.196854l0 0c95.42786 0 172.78741 42.330246 172.78741 94.54724l0 43.196854l0 0c0 43.113388 -53.301758 80.76662 -129.59058 91.54497l0 21.59842l-43.19684 -40.19458l43.19684 -46.199097l0 21.59842l0 0c62.194763 -8.787079 110.34796 -35.727615 125.02167 -69.94655" fill-rule="evenodd"/><path fill="#d9ead3" d="m100.0105 250.37927l692.9764 0l0 134.89764l-692.9764 0z" fill-rule="evenodd"/><path stroke="#6aa84f" stroke-width="4.0" stroke-linejoin="round" stroke-linecap="butt" d="m100.0105 250.37927l692.9764 0l0 134.89764l-692.9764 0z" fill-rule="evenodd"/><path fill="#000000" fill-opacity="0.0" d="m116.72966 288.2743l641.16534 0l0 87.90549l-641.16534 0z" fill-rule="evenodd"/><path fill="#38761d" d="m137.72966 307.2118l0 -0.4375q0 -0.859375 3.5625 -0.859375q1.796875 0 1.796875 0.65625q0 0.265625 -0.265625 0.546875q-1.265625 1.71875 -5.390625 8.765625l4.125 0.03125q1.375 0 2.5 -1.109375q0.5625 -0.59375 1.015625 -1.109375q0.453125 -0.515625 1.015625 -1.484375q0.578125 -0.96875 0.90625 -1.53125q0.46875 -0.84375 1.625 -3.203125q0 -0.171875 0.25 -0.421875q0.25 -0.25 0.59375 -0.421875q0.359375 -0.1875 1.09375 -0.3125q0.734375 -0.140625 1.734375 -0.140625q1.0 0 1.0 0.4375q0 0.1875 -0.15625 0.4375q-0.140625 0.25 -1.734375 2.6875q-1.578125 2.4375 -3.1875 5.0625q-1.59375 2.609375 -3.375 5.671875q-1.78125 3.0625 -2.90625 5.59375q-1.109375 2.53125 -1.109375 3.703125q-0.203125 0.5625 -0.828125 0.5625q-1.828125 0 -2.53125 -0.296875q-0.703125 -0.296875 -0.703125 -0.90625q0 -1.03125 2.21875 -4.828125q2.21875 -3.796875 2.21875 -4.609375q0 -0.8125 -0.671875 -1.21875q-0.671875 -0.40625 -2.234375 -0.40625q-1.5625 0 -2.171875 0.03125q-1.125 1.84375 -2.59375 4.71875q-1.46875 2.859375 -2.46875 4.6875q-1.0 1.828125 -1.59375 2.296875q-1.234375 0.9375 -3.03125 0.9375q-1.03125 0 -1.03125 -0.53125q0 -0.296875 0.875 -1.78125q0.890625 -1.484375 2.84375 -4.671875q1.96875 -3.1875 3.40625 -5.578125l-2.03125 0.09375q-0.5 0 -0.5 -0.265625q0 -0.5625 0.71875 -1.125q0.71875 -0.578125 1.171875 -0.734375q0.46875 -0.171875 1.9375 -0.234375q1.234375 -2.109375 3.171875 -5.84375q0.734375 -1.59375 0.734375 -2.859375zm21.828354 11.0625l-2.828125 -0.09375q-2.109375 0 -3.234375 1.359375q-0.796875 1.0 -2.125 3.265625q-1.3125 2.265625 -1.3125 3.609375q0 1.21875 2.4375 1.21875q1.5 0 3.203125 -0.5625q3.421875 -1.125 5.421875 -4.328125q0.234375 -0.296875 0.796875 -0.296875q0.578125 0 0.578125 0.65625q0 0.640625 -1.078125 2.703125q-1.0625 2.0625 -1.890625 3.109375q-0.4375 0.53125 -1.6875 0.59375q-1.25 0.0625 -3.8125 0.0625l-3.265625 0l-1.90625 -0.03125l-0.890625 -0.0625q-0.03125 0 -0.234375 0q-0.203125 0 -0.5 0.296875q-1.109375 0.96875 -3.140625 0.96875q-0.96875 0 -0.96875 -0.4375l0 -0.09375q0 -0.375 2.3125 -4.359375q2.328125 -3.984375 5.15625 -8.875q2.84375 -4.90625 3.640625 -6.71875q0.796875 -1.8125 0.796875 -3.109375l0 -0.375q0 -0.5625 7.09375 -0.5625q2.34375 0 4.0625 0.0625q0.5 -0.5625 2.578125 -0.5625q0.859375 0 0.859375 0.4375q0 0.765625 -1.515625 3.078125q-1.515625 2.3125 -2.640625 3.15625q-0.375 0.296875 -0.9375 0.296875q-0.5625 0 -0.5625 -0.234375q0 -0.109375 0.09375 -0.265625q0.53125 -1.03125 0.53125 -2.34375q0 -1.828125 -2.53125 -1.828125q-1.53125 0 -2.421875 0.8125q-0.875 0.796875 -1.75 2.234375q-0.859375 1.421875 -1.28125 2.453125q-0.40625 1.03125 -0.40625 1.296875q0 0.796875 0.78125 0.984375q0.78125 0.1875 3.109375 0.1875l2.46875 -0.09375q0.328125 0 0.328125 0.25q0 0.25 -0.359375 0.828125q-0.34375 0.578125 -0.703125 0.8125q-0.734375 0.5 -2.265625 0.5zm7.1606293 11.234375l-0.46875 -0.03125q-0.453125 0 -0.6875 0.296875q-1.140625 0.96875 -3.078125 0.96875q-1.0 0 -1.0 -0.4375l0 -0.09375q0 -0.375 2.3125 -4.359375q2.328125 -3.984375 5.140625 -8.875q2.8125 -4.90625 3.625 -6.734375q0.828125 -1.828125 0.828125 -3.03125l0 -0.4375q0 -0.859375 3.5625 -0.859375q1.796875 0 1.796875 0.65625q0 0.265625 -0.265625 0.546875q-2.65625 4.328125 -7.0625 12.359375l-0.46875 0.828125q-0.46875 0.84375 -0.671875 1.1875q-0.1875 0.34375 -0.609375 1.203125q-0.421875 0.84375 -0.609375 1.375q-0.578125 1.5 -0.578125 2.34375q0 1.21875 2.203125 1.21875l0.234375 0q1.359375 0 3.0 -0.5625q3.203125 -1.125 5.203125 -4.328125q0.125 -0.296875 0.734375 -0.296875q0.625 0 0.625 0.53125q0 0.796875 -1.0625 2.875q-1.0625 2.0625 -1.9375 3.0625q-0.421875 0.59375 -1.65625 0.59375q-1.234375 0.0625 -5.34375 0.0625l-3.765625 -0.0625zm17.430573 0l-0.46875 -0.03125q-0.453125 0 -0.6875 0.296875q-1.140625 0.96875 -3.078125 0.96875q-1.0 0 -1.0 -0.4375l0 -0.09375q0 -0.375 2.3125 -4.359375q2.328125 -3.984375 5.140625 -8.875q2.8125 -4.90625 3.625 -6.734375q0.828125 -1.828125 0.828125 -3.03125l0 -0.4375q0 -0.859375 3.5625 -0.859375q1.796875 0 1.796875 0.65625q0 0.265625 -0.265625 0.546875q-2.65625 4.328125 -7.0625 12.359375l-0.46875 0.828125q-0.46875 0.84375 -0.671875 1.1875q-0.1875 0.34375 -0.609375 1.203125q-0.421875 0.84375 -0.609375 1.375q-0.578125 1.5 -0.578125 2.34375q0 1.21875 2.203125 1.21875l0.234375 0q1.359375 0 3.0 -0.5625q3.203125 -1.125 5.203125 -4.328125q0.125 -0.296875 0.734375 -0.296875q0.625 0 0.625 0.53125q0 0.796875 -1.0625 2.875q-1.0625 2.0625 -1.9375 3.0625q-0.421875 0.59375 -1.65625 0.59375q-1.234375 0.0625 -5.34375 0.0625l-3.765625 -0.0625zm36.69307 -18.203125q0 1.875 -0.75 4.28125q-0.75 2.390625 -2.21875 4.890625q-1.453125 2.5 -3.375 4.625q-1.921875 2.109375 -4.546875 3.46875q-2.609375 1.34375 -5.390625 1.34375q-2.78125 0 -4.375 -1.546875q-1.59375 -1.5625 -1.59375 -4.296875q0 -1.859375 0.734375 -4.25q0.75 -2.40625 2.21875 -4.90625q1.46875 -2.5 3.375 -4.59375q1.921875 -2.109375 4.53125 -3.453125q2.625 -1.359375 5.40625 -1.359375q2.796875 0 4.390625 1.53125q1.59375 1.53125 1.59375 4.265625zm-3.921875 -0.296875q0 -3.671875 -2.671875 -3.671875q-2.234375 0 -4.984375 2.84375q-2.75 2.828125 -4.671875 6.84375q-1.90625 4.015625 -1.90625 7.1875q0 3.65625 2.671875 3.65625q2.1875 0 4.953125 -2.828125q2.765625 -2.828125 4.6875 -6.84375q1.921875 -4.015625 1.921875 -7.1875zm18.389725 -3.859375l-0.03125 -0.734375q0 -0.90625 3.09375 -0.90625q1.9375 0 1.9375 0.96875q0 0.171875 -0.0625 0.234375q-0.234375 1.296875 -2.640625 8.296875q-2.390625 7.0 -2.390625 7.71875q0 0.71875 0.65625 0.71875q0.5 0 0.765625 -0.265625q0.46875 -0.46875 1.171875 -1.171875q0.703125 -0.703125 3.828125 -5.046875q3.140625 -4.34375 5.03125 -7.515625q0.640625 -1.265625 4.203125 -1.265625q0.90625 0 0.90625 0.5625l-0.234375 0.640625q-1.0 2.03125 -2.703125 7.171875q-1.703125 5.125 -1.703125 6.015625q0 0.875 0.671875 0.875q0.5 0 0.765625 -0.265625q0.46875 -0.46875 0.9375 -0.9375q1.234375 -1.234375 5.40625 -7.046875q4.1874847 -5.8125 5.6562347 -8.6875q0.359375 -0.734375 0.828125 -0.96875q0.84375 -0.390625 2.9375 -0.46875l0.671875 0q1.734375 0 1.734375 0.578125q0 0.234375 -0.3125 0.53125q-3.265625 3.09375 -9.578125 10.515625q-6.3124847 7.40625 -8.57811 10.71875q-0.46875 0.6875 -0.734375 1.0q-0.265625 0.296875 -0.875 0.6875q-1.125 0.734375 -3.953125 0.734375q-1.640625 0 -1.640625 -0.796875l0.109375 -0.359375q0.1875 -0.640625 0.71875 -2.140625q0.546875 -1.5 0.90625 -2.53125q0.375 -1.03125 0.796875 -2.265625q0.84375 -2.5 0.84375 -3.0625q0 -0.578125 -0.5 -0.578125q-0.546875 0 -1.203125 0.8125q-2.640625 3.125 -6.40625 8.5q-0.625 0.890625 -1.0 1.28125q-0.359375 0.375 -1.53125 0.75q-1.171875 0.390625 -2.921875 0.390625q-1.734375 0 -1.734375 -0.796875l0.09375 -0.359375q1.171875 -3.375 3.109375 -9.703125q1.953125 -6.328125 2.65625 -9.296875q0.296875 -1.703125 0.296875 -2.53125zm44.689804 4.15625q0 1.875 -0.75 4.28125q-0.75 2.390625 -2.21875 4.890625q-1.453125 2.5 -3.375 4.625q-1.921875 2.109375 -4.546875 3.46875q-2.609375 1.34375 -5.390625 1.34375q-2.78125 0 -4.375 -1.546875q-1.59375 -1.5625 -1.59375 -4.296875q0 -1.859375 0.734375 -4.25q0.75 -2.40625 2.21875 -4.90625q1.46875 -2.5 3.375 -4.59375q1.921875 -2.109375 4.53125 -3.453125q2.625 -1.359375 5.40625 -1.359375q2.796875 0 4.390625 1.53125q1.59375 1.53125 1.59375 4.265625zm-3.921875 -0.296875q0 -3.671875 -2.671875 -3.671875q-2.234375 0 -4.984375 2.84375q-2.75 2.828125 -4.671875 6.84375q-1.90625 4.015625 -1.90625 7.1875q0 3.65625 2.671875 3.65625q2.1875 0 4.953125 -2.828125q2.765625 -2.828125 4.6875 -6.84375q1.921875 -4.015625 1.921875 -7.1875zm15.157227 17.265625l0.0625 1.0q0 0.53125 -1.59375 0.53125q-2.796875 0 -2.796875 -1.0625q0 -1.0625 1.484375 -4.59375q1.484375 -3.546875 1.484375 -4.40625q0 -1.765625 -2.171875 -1.765625l-0.53125 0.03125q-0.40625 0 -0.40625 -0.296875q0 -0.640625 0.484375 -1.28125q0.484375 -0.65625 1.21875 -0.65625q3.03125 0 5.421875 -1.796875q2.40625 -1.796875 2.40625 -3.796875q0 -1.4375 -0.890625 -2.0q-0.875 -0.5625 -2.40625 -0.5625q-1.53125 0 -2.328125 0.921875q-1.96875 2.46875 -6.328125 10.328125q-4.34375 7.84375 -4.875 9.640625q-0.296875 0.828125 -1.546875 1.21875q-1.25 0.40625 -2.4375 0.40625q-1.171875 0 -1.171875 -0.453125l0 -0.078125q0 -0.359375 2.296875 -4.25q2.296875 -3.90625 5.078125 -8.6875q2.78125 -4.78125 3.59375 -6.609375q0.828125 -1.84375 0.828125 -3.109375l0 -0.328125q0 -0.90625 5.0625 -0.90625q5.4375 0 7.15625 1.09375q0.734375 0.46875 1.25 1.375q0.515625 0.890625 0.515625 2.296875q0 1.40625 -1.140625 2.84375q-1.125 1.421875 -2.40625 2.109375q-1.28125 0.671875 -2.546875 0.984375q-1.265625 0.296875 -1.90625 0.5q-0.625 0.1875 -0.625 0.625q0 0.265625 0.484375 0.65625q0.484375 0.375 0.984375 0.921875q0.5 0.53125 0.5 1.125q0 0.59375 -1.109375 3.453125q-1.09375 2.84375 -1.09375 4.578125zm6.296112 1.234375l-0.46875 -0.03125q-0.453125 0 -0.6875 0.296875q-1.140625 0.96875 -3.078125 0.96875q-1.0 0 -1.0 -0.4375l0 -0.09375q0 -0.375 2.3125 -4.359375q2.328125 -3.984375 5.140625 -8.875q2.8125 -4.90625 3.625 -6.734375q0.828125 -1.828125 0.828125 -3.03125l0 -0.4375q0 -0.859375 3.5625 -0.859375q1.796875 0 1.796875 0.65625q0 0.265625 -0.265625 0.546875q-2.65625 4.328125 -7.0625 12.359375l-0.46875 0.828125q-0.46875 0.84375 -0.671875 1.1875q-0.1875 0.34375 -0.609375 1.203125q-0.421875 0.84375 -0.609375 1.375q-0.578125 1.5 -0.578125 2.34375q0 1.21875 2.203125 1.21875l0.234375 0q1.359375 0 3.0 -0.5625q3.203125 -1.125 5.203125 -4.328125q0.125 -0.296875 0.734375 -0.296875q0.625 0 0.625 0.53125q0 0.796875 -1.0625 2.875q-1.0625 2.0625 -1.9375 3.0625q-0.421875 0.59375 -1.65625 0.59375q-1.234375 0.0625 -5.34375 0.0625l-3.765625 -0.0625zm20.836823 0.53125q-1.765625 0 -2.265625 -0.125q-0.5 -0.109375 -0.859375 -0.203125q-0.34375 -0.078125 -0.453125 -0.109375q-0.09375 -0.03125 -0.296875 -0.03125q-0.390625 0 -0.71875 0.203125q-1.171875 0.96875 -3.078125 0.96875q-1.0 0 -1.0 -0.453125q0 -0.453125 2.3125 -4.453125q2.328125 -4.0 5.140625 -8.890625q2.8125 -4.90625 3.625 -6.734375q0.828125 -1.828125 0.828125 -3.171875l0 -0.265625q0 -0.96875 5.5625 -0.96875q8.265625 0 8.265625 5.640625q0 4.0625 -2.765625 8.96875q-1.4375 2.5625 -3.375 4.703125q-1.921875 2.125 -4.8125 3.53125q-2.875 1.390625 -6.109375 1.390625zm10.96875 -11.40625q1.234375 -2.390625 1.875 -4.46875q0.65625 -2.09375 0.65625 -3.5q0 -1.421875 -0.828125 -2.15625q-0.8125 -0.734375 -2.75 -0.734375q-1.328125 0 -2.125 0.9375q-2.09375 2.625 -6.0625 9.71875q-3.96875 7.078125 -3.96875 8.28125q0 1.328125 2.828125 1.328125q2.0 0 4.03125 -1.390625q2.03125 -1.40625 3.5625 -3.515625q1.546875 -2.125 2.78125 -4.5z" fill-rule="nonzero"/><path fill="#38761d" d="m539.7268 307.2118l0 -0.4375q0 -0.859375 3.5625 -0.859375q1.796875 0 1.796875 0.65625q0 0.265625 -0.265625 0.546875q-1.265625 1.71875 -5.390625 8.765625l4.125 0.03125q1.375 0 2.5 -1.109375q0.5625 -0.59375 1.015625 -1.109375q0.453125 -0.515625 1.015625 -1.484375q0.578125 -0.96875 0.90625 -1.53125q0.46875 -0.84375 1.625 -3.203125q0 -0.171875 0.25 -0.421875q0.25 -0.25 0.59375 -0.421875q0.359375 -0.1875 1.09375 -0.3125q0.734375 -0.140625 1.734375 -0.140625q1.0 0 1.0 0.4375q0 0.1875 -0.15625 0.4375q-0.140625 0.25 -1.734375 2.6875q-1.578125 2.4375 -3.1875 5.0625q-1.59375 2.609375 -3.375 5.671875q-1.78125 3.0625 -2.90625 5.59375q-1.109375 2.53125 -1.109375 3.703125q-0.203125 0.5625 -0.828125 0.5625q-1.828125 0 -2.53125 -0.296875q-0.703125 -0.296875 -0.703125 -0.90625q0 -1.03125 2.21875 -4.828125q2.21875 -3.796875 2.21875 -4.609375q0 -0.8125 -0.671875 -1.21875q-0.671875 -0.40625 -2.234375 -0.40625q-1.5625 0 -2.171875 0.03125q-1.125 1.84375 -2.59375 4.71875q-1.46875 2.859375 -2.46875 4.6875q-1.0 1.828125 -1.59375 2.296875q-1.234375 0.9375 -3.03125 0.9375q-1.03125 0 -1.03125 -0.53125q0 -0.296875 0.875 -1.78125q0.890625 -1.484375 2.84375 -4.671875q1.96875 -3.1875 3.40625 -5.578125l-2.03125 0.09375q-0.5 0 -0.5 -0.265625q0 -0.5625 0.71875 -1.125q0.71875 -0.578125 1.171875 -0.734375q0.46875 -0.171875 1.9375 -0.234375q1.234375 -2.109375 3.171875 -5.84375q0.734375 -1.59375 0.734375 -2.859375zm10.625244 22.296875l-0.46875 -0.03125q-0.453125 0 -0.6875 0.296875q-1.140625 0.96875 -3.078125 0.96875q-1.0 0 -1.0 -0.4375l0 -0.09375q0 -0.375 2.3125 -4.359375q2.328125 -3.984375 5.140625 -8.875q2.8125 -4.90625 3.625 -6.734375q0.828125 -1.828125 0.828125 -3.03125l0 -0.4375q0 -0.859375 3.5625 -0.859375q1.796875 0 1.796875 0.65625q0 0.265625 -0.265625 0.546875q-2.65625 4.328125 -7.0625 12.359375l-0.46875 0.828125q-0.46875 0.84375 -0.671875 1.1875q-0.1875 0.34375 -0.609375 1.203125q-0.421875 0.84375 -0.609375 1.375q-0.578125 1.5 -0.578125 2.34375q0 1.21875 2.203125 1.21875l0.234375 0q1.359375 0 3.0 -0.5625q3.203125 -1.125 5.203125 -4.328125q0.125 -0.296875 0.734375 -0.296875q0.625 0 0.625 0.53125q0 0.796875 -1.0625 2.875q-1.0625 2.0625 -1.9375 3.0625q-0.421875 0.59375 -1.65625 0.59375q-1.234375 0.0625 -5.34375 0.0625l-3.765625 -0.0625zm36.693054 -18.203125q0 1.875 -0.75 4.28125q-0.75 2.390625 -2.21875 4.890625q-1.453125 2.5 -3.375 4.625q-1.921875 2.109375 -4.546875 3.46875q-2.609375 1.34375 -5.390625 1.34375q-2.78125 0 -4.375 -1.546875q-1.59375 -1.5625 -1.59375 -4.296875q0 -1.859375 0.734375 -4.25q0.75 -2.40625 2.21875 -4.90625q1.46875 -2.5 3.375 -4.59375q1.921875 -2.109375 4.53125 -3.453125q2.625 -1.359375 5.40625 -1.359375q2.796875 0 4.390625 1.53125q1.59375 1.53125 1.59375 4.265625zm-3.921875 -0.296875q0 -3.671875 -2.671875 -3.671875q-2.234375 0 -4.984375 2.84375q-2.75 2.828125 -4.671875 6.84375q-1.90625 4.015625 -1.90625 7.1875q0 3.65625 2.671875 3.65625q2.1875 0 4.953125 -2.828125q2.765625 -2.828125 4.6875 -6.84375q1.921875 -4.015625 1.921875 -7.1875zm6.8291626 19.03125q-1.765625 0 -2.265625 -0.125q-0.5 -0.109375 -0.859375 -0.203125q-0.34375 -0.078125 -0.453125 -0.109375q-0.09375 -0.03125 -0.296875 -0.03125q-0.390625 0 -0.71875 0.203125q-1.171875 0.96875 -3.078125 0.96875q-1.0 0 -1.0 -0.453125q0 -0.453125 2.3125 -4.453125q2.328125 -4.0 5.140625 -8.890625q2.8125 -4.90625 3.625 -6.734375q0.828125 -1.828125 0.828125 -3.171875l0 -0.265625q0 -0.96875 5.5625 -0.96875q8.265625 0 8.265625 5.640625q0 4.0625 -2.765625 8.96875q-1.4375 2.5625 -3.375 4.703125q-1.921875 2.125 -4.8125 3.53125q-2.875 1.390625 -6.109375 1.390625zm10.96875 -11.40625q1.234375 -2.390625 1.875 -4.46875q0.65625 -2.09375 0.65625 -3.5q0 -1.421875 -0.828125 -2.15625q-0.8125 -0.734375 -2.75 -0.734375q-1.328125 0 -2.125 0.9375q-2.09375 2.625 -6.0625 9.71875q-3.96875 7.078125 -3.96875 8.28125q0 1.328125 2.828125 1.328125q2.0 0 4.03125 -1.390625q2.03125 -1.40625 3.5625 -3.515625q1.546875 -2.125 2.78125 -4.5zm16.7583 -0.359375l-2.828125 -0.09375q-2.109375 0 -3.234375 1.359375q-0.796875 1.0 -2.125 3.265625q-1.3125 2.265625 -1.3125 3.609375q0 1.21875 2.4375 1.21875q1.5 0 3.203125 -0.5625q3.421875 -1.125 5.421875 -4.328125q0.234375 -0.296875 0.796875 -0.296875q0.578125 0 0.578125 0.65625q0 0.640625 -1.078125 2.703125q-1.0625 2.0625 -1.890625 3.109375q-0.4375 0.53125 -1.6875 0.59375q-1.25 0.0625 -3.8125 0.0625l-3.265625 0l-1.90625 -0.03125l-0.890625 -0.0625q-0.03125 0 -0.234375 0q-0.203125 0 -0.5 0.296875q-1.109375 0.96875 -3.140625 0.96875q-0.96875 0 -0.96875 -0.4375l0 -0.09375q0 -0.375 2.3125 -4.359375q2.328125 -3.984375 5.15625 -8.875q2.84375 -4.90625 3.640625 -6.71875q0.796875 -1.8125 0.796875 -3.109375l0 -0.375q0 -0.5625 7.09375 -0.5625q2.34375 0 4.0625 0.0625q0.5 -0.5625 2.578125 -0.5625q0.859375 0 0.859375 0.4375q0 0.765625 -1.515625 3.078125q-1.515625 2.3125 -2.640625 3.15625q-0.375 0.296875 -0.9375 0.296875q-0.5625 0 -0.5625 -0.234375q0 -0.109375 0.09375 -0.265625q0.53125 -1.03125 0.53125 -2.34375q0 -1.828125 -2.53125 -1.828125q-1.53125 0 -2.421875 0.8125q-0.875 0.796875 -1.75 2.234375q-0.859375 1.421875 -1.28125 2.453125q-0.40625 1.03125 -0.40625 1.296875q0 0.796875 0.78125 0.984375q0.78125 0.1875 3.109375 0.1875l2.46875 -0.09375q0.328125 0 0.328125 0.25q0 0.25 -0.359375 0.828125q-0.34375 0.578125 -0.703125 0.8125q-0.734375 0.5 -2.265625 0.5zm26.723083 -6.96875q0 1.875 -0.75 4.28125q-0.75 2.390625 -2.21875 4.890625q-1.453125 2.5 -3.375 4.625q-1.921875 2.109375 -4.546875 3.46875q-2.609375 1.34375 -5.390625 1.34375q-2.78125 0 -4.375 -1.546875q-1.59375 -1.5625 -1.59375 -4.296875q0 -1.859375 0.734375 -4.25q0.75 -2.40625 2.21875 -4.90625q1.46875 -2.5 3.375 -4.59375q1.921875 -2.109375 4.53125 -3.453125q2.625 -1.359375 5.40625 -1.359375q2.796875 0 4.390625 1.53125q1.59375 1.53125 1.59375 4.265625zm-3.921875 -0.296875q0 -3.671875 -2.671875 -3.671875q-2.234375 0 -4.984375 2.84375q-2.75 2.828125 -4.671875 6.84375q-1.90625 4.015625 -1.90625 7.1875q0 3.65625 2.671875 3.65625q2.1875 0 4.953125 -2.828125q2.765625 -2.828125 4.6875 -6.84375q1.921875 -4.015625 1.921875 -7.1875zm15.157288 17.265625l0.0625 1.0q0 0.53125 -1.59375 0.53125q-2.796875 0 -2.796875 -1.0625q0 -1.0625 1.484375 -4.59375q1.484375 -3.546875 1.484375 -4.40625q0 -1.765625 -2.171875 -1.765625l-0.53125 0.03125q-0.40625 0 -0.40625 -0.296875q0 -0.640625 0.484375 -1.28125q0.484375 -0.65625 1.21875 -0.65625q3.03125 0 5.421875 -1.796875q2.40625 -1.796875 2.40625 -3.796875q0 -1.4375 -0.890625 -2.0q-0.875 -0.5625 -2.40625 -0.5625q-1.53125 0 -2.328125 0.921875q-1.96875 2.46875 -6.328125 10.328125q-4.34375 7.84375 -4.875 9.640625q-0.296875 0.828125 -1.546875 1.21875q-1.25 0.40625 -2.4375 0.40625q-1.171875 0 -1.171875 -0.453125l0 -0.078125q0 -0.359375 2.296875 -4.25q2.296875 -3.90625 5.078125 -8.6875q2.78125 -4.78125 3.59375 -6.609375q0.828125 -1.84375 0.828125 -3.109375l0 -0.328125q0 -0.90625 5.0625 -0.90625q5.4375 0 7.15625 1.09375q0.734375 0.46875 1.25 1.375q0.515625 0.890625 0.515625 2.296875q0 1.40625 -1.140625 2.84375q-1.125 1.421875 -2.40625 2.109375q-1.28125 0.671875 -2.546875 0.984375q-1.265625 0.296875 -1.90625 0.5q-0.625 0.1875 -0.625 0.625q0 0.265625 0.484375 0.65625q0.484375 0.375 0.984375 0.921875q0.5 0.53125 0.5 1.125q0 0.59375 -1.109375 3.453125q-1.09375 2.84375 -1.09375 4.578125zm6.2960815 1.234375l-0.46875 -0.03125q-0.453125 0 -0.6875 0.296875q-1.140625 0.96875 -3.078125 0.96875q-1.0 0 -1.0 -0.4375l0 -0.09375q0 -0.375 2.3125 -4.359375q2.328125 -3.984375 5.140625 -8.875q2.8125 -4.90625 3.625 -6.734375q0.828125 -1.828125 0.828125 -3.03125l0 -0.4375q0 -0.859375 3.5625 -0.859375q1.796875 0 1.796875 0.65625q0 0.265625 -0.265625 0.546875q-2.65625 4.328125 -7.0625 12.359375l-0.46875 0.828125q-0.46875 0.84375 -0.671875 1.1875q-0.1875 0.34375 -0.609375 1.203125q-0.421875 0.84375 -0.609375 1.375q-0.578125 1.5 -0.578125 2.34375q0 1.21875 2.203125 1.21875l0.234375 0q1.359375 0 3.0 -0.5625q3.203125 -1.125 5.203125 -4.328125q0.125 -0.296875 0.734375 -0.296875q0.625 0 0.625 0.53125q0 0.796875 -1.0625 2.875q-1.0625 2.0625 -1.9375 3.0625q-0.421875 0.59375 -1.65625 0.59375q-1.234375 0.0625 -5.34375 0.0625l-3.765625 -0.0625zm20.399292 -22.359375l-0.03125 -0.734375q0 -0.90625 3.09375 -0.90625q1.9375 0 1.9375 0.96875q0 0.171875 -0.0625 0.234375q-0.234375 1.296875 -2.640625 8.296875q-2.390625 7.0 -2.390625 7.71875q0 0.71875 0.65625 0.71875q0.5 0 0.765625 -0.265625q0.46875 -0.46875 1.171875 -1.171875q0.703125 -0.703125 3.828125 -5.046875q3.140625 -4.34375 5.03125 -7.515625q0.640625 -1.265625 4.203125 -1.265625q0.90625 0 0.90625 0.5625l-0.234375 0.640625q-1.0 2.03125 -2.703125 7.171875q-1.703125 5.125 -1.703125 6.015625q0 0.875 0.671875 0.875q0.5 0 0.765625 -0.265625q0.46875 -0.46875 0.9375 -0.9375q1.234375 -1.234375 5.40625 -7.046875q4.1875 -5.8125 5.65625 -8.6875q0.359375 -0.734375 0.828125 -0.96875q0.84375 -0.390625 2.9375 -0.46875l0.671875 0q1.734375 0 1.734375 0.578125q0 0.234375 -0.3125 0.53125q-3.265625 3.09375 -9.578125 10.515625q-6.3125 7.40625 -8.578125 10.71875q-0.46875 0.6875 -0.734375 1.0q-0.265625 0.296875 -0.875 0.6875q-1.125 0.734375 -3.953125 0.734375q-1.640625 0 -1.640625 -0.796875l0.109375 -0.359375q0.1875 -0.640625 0.71875 -2.140625q0.546875 -1.5 0.90625 -2.53125q0.375 -1.03125 0.796875 -2.265625q0.84375 -2.5 0.84375 -3.0625q0 -0.578125 -0.5 -0.578125q-0.546875 0 -1.203125 0.8125q-2.640625 3.125 -6.40625 8.5q-0.625 0.890625 -1.0 1.28125q-0.359375 0.375 -1.53125 0.75q-1.171875 0.390625 -2.921875 0.390625q-1.734375 0 -1.734375 -0.796875l0.09375 -0.359375q1.171875 -3.375 3.109375 -9.703125q1.953125 -6.328125 2.65625 -9.296875q0.296875 -1.703125 0.296875 -2.53125zm21.927368 22.359375l-0.46875 -0.03125q-0.453125 0 -0.6875 0.296875q-1.140625 0.96875 -3.078125 0.96875q-1.0 0 -1.0 -0.4375l0 -0.09375q0 -0.375 2.3125 -4.359375q2.328125 -3.984375 5.140625 -8.875q2.8125 -4.90625 3.625 -6.734375q0.828125 -1.828125 0.828125 -3.03125l0 -0.4375q0 -0.859375 3.5625 -0.859375q1.796875 0 1.796875 0.65625q0 0.265625 -0.265625 0.546875q-2.65625 4.328125 -7.0625 12.359375l-0.46875 0.828125q-0.46875 0.84375 -0.671875 1.1875q-0.1875 0.34375 -0.609375 1.203125q-0.421875 0.84375 -0.609375 1.375q-0.578125 1.5 -0.578125 2.34375q0 1.21875 2.203125 1.21875l0.234375 0q1.359375 0 3.0 -0.5625q3.203125 -1.125 5.203125 -4.328125q0.125 -0.296875 0.734375 -0.296875q0.625 0 0.625 0.53125q0 0.796875 -1.0625 2.875q-1.0625 2.0625 -1.9375 3.0625q-0.421875 0.59375 -1.65625 0.59375q-1.234375 0.0625 -5.34375 0.0625l-3.765625 -0.0625z" fill-rule="nonzero"/><defs><radialGradient id="p.1" gradientUnits="userSpaceOnUse" gradientTransform="matrix(8.329870917839845 0.0 0.0 8.329870917839845 0.0 0.0)" spreadMethod="pad" cx="51.408131210742745" cy="38.155223187050595" fx="51.408131210742745" fy="38.155223187050595" r="8.32987117767334"><stop offset="0.0" stop-color="#dcecd5"/><stop offset="1.0" stop-color="#93bc81"/></radialGradient></defs><path fill="url(#p.1)" d="m362.2861 307.02493l110.2677 0l0 -10.803162l21.606293 21.606323l-21.606293 21.606293l0 -10.803162l-110.2677 0z" fill-rule="evenodd"/><path stroke="#38761d" stroke-width="1.0" stroke-linejoin="round" stroke-linecap="butt" d="m362.2861 307.02493l110.2677 0l0 -10.803162l21.606293 21.606323l-21.606293 21.606293l0 -10.803162l-110.2677 0z" fill-rule="evenodd"/><path fill="#d0e0e3" d="m198.71129 25.75853l594.2677 0l0 172.94489l-594.2677 0z" fill-rule="evenodd"/><path stroke="#45818e" stroke-width="4.0" stroke-linejoin="round" stroke-linecap="butt" d="m198.71129 25.75853l594.2677 0l0 172.94489l-594.2677 0z" fill-rule="evenodd"/><path fill="#000000" fill-opacity="0.0" d="m135.2336 29.43832l692.9764 0l0 139.84251l-692.9764 0z" fill-rule="evenodd"/><path fill="#000000" d="m264.56802 50.353943l0 -0.515625q0 -1.046875 4.28125 -1.046875q2.15625 0 2.15625 0.8125q0 0.3125 -0.328125 0.640625q-1.515625 2.078125 -6.46875 10.515625l4.953125 0.03125q1.640625 0 3.0 -1.3125q0.6875 -0.71875 1.21875 -1.328125q0.546875 -0.625 1.21875 -1.78125q0.6875 -1.171875 1.078125 -1.84375q0.5625 -1.0 1.96875 -3.84375q0 -0.203125 0.296875 -0.5q0.296875 -0.296875 0.71875 -0.515625q0.421875 -0.234375 1.296875 -0.390625q0.890625 -0.15625 2.078125 -0.15625q1.203125 0 1.203125 0.515625q0 0.25 -0.1875 0.546875q-0.171875 0.296875 -2.078125 3.21875q-1.890625 2.921875 -3.8125 6.0625q-1.921875 3.140625 -4.0625 6.828125q-2.140625 3.671875 -3.484375 6.71875q-1.328125 3.03125 -1.328125 4.421875q-0.25 0.6875 -1.0 0.6875q-2.203125 0 -3.046875 -0.359375q-0.84375 -0.359375 -0.84375 -1.078125q0 -1.25 2.65625 -5.796875q2.671875 -4.5625 2.671875 -5.546875q0 -0.984375 -0.8125 -1.453125q-0.796875 -0.484375 -2.671875 -0.484375q-1.875 0 -2.59375 0.03125q-1.359375 2.203125 -3.125 5.65625q-1.765625 3.4375 -2.96875 5.640625q-1.1874847 2.1875 -1.9062347 2.75q-1.484375 1.125 -3.640625 1.125q-1.25 0 -1.25 -0.640625q0 -0.359375 1.0625 -2.140625q1.0625 -1.78125 3.421875 -5.59375q2.3593597 -3.828125 4.0781097 -6.703125l-2.4374847 0.109375q-0.59375 0 -0.59375 -0.3125q0 -0.6875 0.85935974 -1.359375q0.859375 -0.6875 1.40625 -0.875q0.5625 -0.203125 2.328125 -0.296875q1.484375 -2.515625 3.796875 -7.0q0.890625 -1.90625 0.890625 -3.4375z" fill-rule="nonzero"/><path fill="#000000" d="m298.72427 75.52582q0 -0.96875 1.03125 -1.859375q1.046875 -0.90625 2.171875 -0.90625q2.1875 0 2.1875 1.390625q0 1.046875 -1.046875 1.9375q-1.03125 0.875 -2.1875 0.875q-2.15625 0 -2.15625 -1.4375z" fill-rule="nonzero"/><path fill="#000000" d="m346.72427 75.52582q0 -0.96875 1.03125 -1.859375q1.046875 -0.90625 2.171875 -0.90625q2.1875 0 2.1875 1.390625q0 1.046875 -1.046875 1.9375q-1.03125 0.875 -2.1875 0.875q-2.15625 0 -2.15625 -1.4375z" fill-rule="nonzero"/><path fill="#000000" d="m406.56488 77.11957l-0.5625 -0.046875q-0.5625 0 -0.84375 0.359375q-1.359375 1.171875 -3.671875 1.171875q-1.203125 0 -1.203125 -0.53125l0 -0.109375q0 -0.4375 2.78125 -5.21875q2.78125 -4.78125 6.15625 -10.65625q3.375 -5.890625 4.359375 -8.09375q0.984375 -2.203125 0.984375 -3.640625l0 -0.515625q0 -1.046875 4.28125 -1.046875q2.15625 0 2.15625 0.8125q0 0.3125 -0.328125 0.640625q-3.1875 5.1875 -8.46875 14.828125l-0.5625 1.0q-0.5625 1.0 -0.8125 1.421875q-0.234375 0.421875 -0.734375 1.453125q-0.5 1.015625 -0.734375 1.65625q-0.6875 1.796875 -0.6875 2.796875q0 1.484375 2.640625 1.484375l0.28125 0q1.640625 0 3.609375 -0.6875q3.84375 -1.359375 6.234375 -5.203125q0.15625 -0.359375 0.890625 -0.359375q0.75 0 0.75 0.640625q0 0.96875 -1.28125 3.453125q-1.28125 2.46875 -2.3125 3.671875q-0.53125 0.71875 -2.0 0.71875q-1.484375 0.078125 -6.40625 0.078125l-4.515625 -0.078125z" fill-rule="nonzero"/><path fill="#000000" d="m442.72427 75.52582q0 -0.96875 1.03125 -1.859375q1.046875 -0.90625 2.171875 -0.90625q2.1875 0 2.1875 1.390625q0 1.046875 -1.046875 1.9375q-1.03125 0.875 -2.1875 0.875q-2.15625 0 -2.15625 -1.4375z" fill-rule="nonzero"/><path fill="#000000" d="m497.92426 75.52582q0 -0.96875 1.03125 -1.859375q1.046875 -0.90625 2.171875 -0.90625q2.1875 0 2.1875 1.390625q0 1.046875 -1.046875 1.9375q-1.03125 0.875 -2.1875 0.875q-2.15625 0 -2.15625 -1.4375z" fill-rule="nonzero"/><path fill="#000000" d="m582.43677 55.275818q0 2.25 -0.90625 5.125q-0.890625 2.875 -2.65625 5.875q-1.75 3.0 -4.0625 5.546875q-2.296875 2.53125 -5.4375 4.15625q-3.125 1.625 -6.46875 1.625q-3.34375 0 -5.265625 -1.859375q-1.921875 -1.859375 -1.921875 -5.140625q0 -2.25 0.890625 -5.125q0.90625 -2.875 2.671875 -5.875q1.765625 -3.0 4.0625 -5.515625q2.296875 -2.53125 5.4375 -4.140625q3.140625 -1.625 6.484375 -1.625q3.34375 0 5.25 1.84375q1.921875 1.828125 1.921875 5.109375zm-4.71875 -0.359375q0 -4.390625 -3.203125 -4.390625q-2.671875 0 -5.96875 3.40625q-3.296875 3.390625 -5.609375 8.21875q-2.296875 4.8125 -2.296875 8.609375q0 4.390625 3.203125 4.390625q2.640625 0 5.953125 -3.390625q3.328125 -3.40625 5.625 -8.21875q2.296875 -4.828125 2.296875 -8.625z" fill-rule="nonzero"/><path fill="#000000" d="m608.3243 75.52582q0 -0.96875 1.03125 -1.859375q1.046875 -0.90625 2.171875 -0.90625q2.1875 0 2.1875 1.390625q0 1.046875 -1.046875 1.9375q-1.03125 0.875 -2.1875 0.875q-2.15625 0 -2.15625 -1.4375z" fill-rule="nonzero"/><path fill="#000000" d="m649.12427 75.52582q0 -0.96875 1.03125 -1.859375q1.046875 -0.90625 2.171875 -0.90625q2.1875 0 2.1875 1.390625q0 1.046875 -1.046875 1.9375q-1.03125 0.875 -2.1875 0.875q-2.15625 0 -2.15625 -1.4375z" fill-rule="nonzero"/><path fill="#000000" d="m698.64307 77.76019q-2.125 0 -2.734375 -0.140625q-0.59375 -0.140625 -1.015625 -0.25q-0.40625 -0.09375 -0.53125 -0.140625q-0.125 -0.03125 -0.359375 -0.03125q-0.484375 0 -0.875 0.234375q-1.40625 1.171875 -3.6875 1.171875q-1.203125 0 -1.203125 -0.546875q0 -0.53125 2.78125 -5.328125q2.78125 -4.8125 6.15625 -10.6875q3.390625 -5.890625 4.359375 -8.078125q0.984375 -2.203125 0.984375 -3.8125l0 -0.3125q0 -1.15625 6.6875 -1.15625q9.921875 0 9.921875 6.75q0 4.890625 -3.328125 10.765625q-1.71875 3.078125 -4.046875 5.640625q-2.3125 2.5625 -5.78125 4.25q-3.453125 1.671875 -7.328125 1.671875zm13.15625 -13.703125q1.484375 -2.859375 2.265625 -5.359375q0.78125 -2.5 0.78125 -4.203125q0 -1.703125 -0.984375 -2.578125q-0.984375 -0.875 -3.296875 -0.875q-1.609375 0 -2.5625 1.109375q-2.515625 3.171875 -7.28125 11.671875q-4.765625 8.5 -4.765625 9.9375q0 1.59375 3.40625 1.59375q2.40625 0 4.84375 -1.671875q2.4375 -1.6875 4.265625 -4.21875q1.84375 -2.546875 3.328125 -5.40625z" fill-rule="nonzero"/><path fill="#000000" d="m255.1443 123.52582q0 -0.96875 1.0312347 -1.859375q1.046875 -0.90625 2.171875 -0.90625q2.1875 0 2.1875 1.390625q0 1.046875 -1.046875 1.9375q-1.03125 0.875 -2.1875 0.875q-2.1562347 0 -2.1562347 -1.4375z" fill-rule="nonzero"/><path fill="#000000" d="m321.2224 111.63519l-3.40625 -0.109375q-2.515625 0 -3.875 1.625q-0.953125 1.203125 -2.546875 3.921875q-1.578125 2.71875 -1.578125 4.328125q0 1.484375 2.921875 1.484375q1.796875 0 3.84375 -0.6875q4.125 -1.359375 6.515625 -5.203125q0.28125 -0.359375 0.953125 -0.359375q0.6875 0 0.6875 0.78125q0 0.78125 -1.28125 3.265625q-1.28125 2.46875 -2.28125 3.71875q-0.515625 0.640625 -2.015625 0.71875q-1.5 0.078125 -4.578125 0.078125l-3.921875 0l-2.28125 -0.046875l-1.078125 -0.078125q-0.03125 0 -0.28125 0q-0.234375 0 -0.59375 0.359375q-1.328125 1.171875 -3.765625 1.171875q-1.15625 0 -1.15625 -0.53125l0 -0.109375q0 -0.4375 2.78125 -5.21875q2.78125 -4.78125 6.171875 -10.65625q3.40625 -5.890625 4.359375 -8.0625q0.96875 -2.1875 0.96875 -3.75l0 -0.4375q0 -0.6875 8.515625 -0.6875q2.796875 0 4.875 0.09375q0.609375 -0.6875 3.09375 -0.6875q1.03125 0 1.03125 0.515625q0 0.921875 -1.828125 3.703125q-1.8125 2.78125 -3.171875 3.78125q-0.4375 0.359375 -1.125 0.359375q-0.671875 0 -0.671875 -0.28125q0 -0.109375 0.125 -0.3125q0.640625 -1.25 0.640625 -2.796875q0 -2.203125 -3.046875 -2.203125q-1.84375 0 -2.90625 0.96875q-1.046875 0.953125 -2.09375 2.671875q-1.046875 1.71875 -1.546875 2.953125q-0.5 1.234375 -0.5 1.5625q0 0.953125 0.9375 1.1875q0.953125 0.21875 3.75 0.21875l2.953125 -0.125q0.40625 0 0.40625 0.296875q0 0.296875 -0.421875 1.0q-0.421875 0.703125 -0.859375 0.984375q-0.875 0.59375 -2.71875 0.59375z" fill-rule="nonzero"/><path fill="#000000" d="m358.3443 123.52582q0 -0.96875 1.03125 -1.859375q1.046875 -0.90625 2.171875 -0.90625q2.1875 0 2.1875 1.390625q0 1.046875 -1.046875 1.9375q-1.03125 0.875 -2.1875 0.875q-2.15625 0 -2.15625 -1.4375z" fill-rule="nonzero"/><path fill="#000000" d="m413.54428 123.52582q0 -0.96875 1.03125 -1.859375q1.046875 -0.90625 2.171875 -0.90625q2.1875 0 2.1875 1.390625q0 1.046875 -1.046875 1.9375q-1.03125 0.875 -2.1875 0.875q-2.15625 0 -2.15625 -1.4375z" fill-rule="nonzero"/><path fill="#000000" d="m483.6568 103.27582q0 2.25 -0.90625 5.125q-0.890625 2.875 -2.65625 5.875q-1.75 3.0 -4.0625 5.546875q-2.296875 2.53125 -5.4375 4.15625q-3.125 1.625 -6.46875 1.625q-3.34375 0 -5.265625 -1.859375q-1.921875 -1.859375 -1.921875 -5.140625q0 -2.25 0.890625 -5.125q0.90625 -2.875 2.671875 -5.875q1.765625 -3.0 4.0625 -5.515625q2.296875 -2.53125 5.4375 -4.140625q3.140625 -1.625 6.484375 -1.625q3.34375 0 5.25 1.84375q1.921875 1.828125 1.921875 5.109375zm-4.71875 -0.359375q0 -4.390625 -3.203125 -4.390625q-2.671875 0 -5.96875 3.40625q-3.296875 3.390625 -5.609375 8.21875q-2.296875 4.8125 -2.296875 8.609375q0 4.390625 3.203125 4.390625q2.640625 0 5.953125 -3.390625q3.328125 -3.40625 5.625 -8.21875q2.296875 -4.828125 2.296875 -8.625z" fill-rule="nonzero"/><path fill="#000000" d="m509.54428 123.52582q0 -0.96875 1.03125 -1.859375q1.046875 -0.90625 2.1719055 -0.90625q2.1875 0 2.1875 1.390625q0 1.046875 -1.046875 1.9375q-1.03125 0.875 -2.1875305 0.875q-2.15625 0 -2.15625 -1.4375z" fill-rule="nonzero"/><path fill="#000000" d="m564.74426 123.52582q0 -0.96875 1.03125 -1.859375q1.046875 -0.90625 2.171875 -0.90625q2.1875 0 2.1875 1.390625q0 1.046875 -1.046875 1.9375q-1.03125 0.875 -2.1875 0.875q-2.15625 0 -2.15625 -1.4375z" fill-rule="nonzero"/><path fill="#000000" d="m631.463 123.63519l0.078125 1.203125q0 0.640625 -1.921875 0.640625q-3.359375 0 -3.359375 -1.28125q0 -1.28125 1.78125 -5.515625q1.78125 -4.25 1.78125 -5.28125q0 -2.125 -2.59375 -2.125l-0.640625 0.046875q-0.484375 0 -0.484375 -0.359375q0 -0.765625 0.578125 -1.546875q0.578125 -0.78125 1.453125 -0.78125q3.640625 0 6.515625 -2.15625q2.890625 -2.15625 2.890625 -4.5625q0 -1.71875 -1.0625 -2.390625q-1.0625 -0.6875 -2.90625 -0.6875q-1.828125 0 -2.796875 1.125q-2.359375 2.953125 -7.578125 12.375q-5.21875 9.421875 -5.859375 11.578125q-0.359375 1.0 -1.859375 1.484375q-1.5 0.484375 -2.921875 0.484375q-1.421875 0 -1.421875 -0.5625l0 -0.078125q0 -0.453125 2.765625 -5.125q2.765625 -4.6875 6.09375 -10.421875q3.34375 -5.734375 4.328125 -7.9375q0.984375 -2.203125 0.984375 -3.71875l0 -0.40625q0 -1.078125 6.078125 -1.078125q6.515625 0 8.59375 1.328125q0.890625 0.546875 1.5 1.640625q0.625 1.078125 0.625 2.765625q0 1.671875 -1.359375 3.390625q-1.359375 1.71875 -2.90625 2.546875q-1.53125 0.8125 -3.0625 1.171875q-1.515625 0.359375 -2.28125 0.609375q-0.75 0.234375 -0.75 0.75q0 0.3125 0.578125 0.78125q0.578125 0.453125 1.171875 1.09375q0.609375 0.640625 0.609375 1.359375q0 0.71875 -1.328125 4.140625q-1.3125 3.421875 -1.3125 5.5z" fill-rule="nonzero"/><path fill="#000000" d="m660.74426 123.52582q0 -0.96875 1.03125 -1.859375q1.046875 -0.90625 2.171875 -0.90625q2.1875 0 2.1875 1.390625q0 1.046875 -1.046875 1.9375q-1.03125 0.875 -2.1875 0.875q-2.15625 0 -2.15625 -1.4375z" fill-rule="nonzero"/><path fill="#000000" d="m701.54425 123.52582q0 -0.96875 1.03125 -1.859375q1.046875 -0.90625 2.171875 -0.90625q2.1875 0 2.1875 1.390625q0 1.046875 -1.046875 1.9375q-1.03125 0.875 -2.1875 0.875q-2.15625 0 -2.15625 -1.4375z" fill-rule="nonzero"/><path fill="#000000" d="m262.3961 171.52582q0 -0.96875 1.03125 -1.859375q1.046875 -0.90625 2.171875 -0.90625q2.1875 0 2.1875 1.390625q0 1.046875 -1.046875 1.9375q-1.03125 0.875 -2.1875 0.875q-2.15625 0 -2.15625 -1.4375z" fill-rule="nonzero"/><path fill="#000000" d="m317.59607 171.52582q0 -0.96875 1.03125 -1.859375q1.046875 -0.90625 2.171875 -0.90625q2.1875 0 2.1875 1.390625q0 1.046875 -1.046875 1.9375q-1.03125 0.875 -2.1875 0.875q-2.15625 0 -2.15625 -1.4375z" fill-rule="nonzero"/><path fill="#000000" d="m355.8367 173.11957l-0.5625 -0.046875q-0.5625 0 -0.84375 0.359375q-1.359375 1.171875 -3.671875 1.171875q-1.203125 0 -1.203125 -0.53125l0 -0.109375q0 -0.4375 2.78125 -5.21875q2.78125 -4.78125 6.15625 -10.65625q3.375 -5.890625 4.359375 -8.09375q0.984375 -2.203125 0.984375 -3.640625l0 -0.515625q0 -1.046875 4.28125 -1.046875q2.15625 0 2.15625 0.8125q0 0.3125 -0.328125 0.640625q-3.1875 5.1875 -8.46875 14.828125l-0.5625 1.0q-0.5625 1.0 -0.8125 1.421875q-0.234375 0.421875 -0.734375 1.453125q-0.5 1.015625 -0.734375 1.65625q-0.6875 1.796875 -0.6875 2.796875q0 1.484375 2.640625 1.484375l0.28125 0q1.640625 0 3.609375 -0.6875q3.84375 -1.359375 6.234375 -5.203125q0.15625 -0.359375 0.890625 -0.359375q0.75 0 0.75 0.640625q0 0.96875 -1.28125 3.453125q-1.28125 2.46875 -2.3125 3.671875q-0.53125 0.71875 -2.0 0.71875q-1.484375 0.078125 -6.40625 0.078125l-4.515625 -0.078125z" fill-rule="nonzero"/><path fill="#000000" d="m413.59607 171.52582q0 -0.96875 1.03125 -1.859375q1.046875 -0.90625 2.171875 -0.90625q2.1875 0 2.1875 1.390625q0 1.046875 -1.046875 1.9375q-1.03125 0.875 -2.1875 0.875q-2.15625 0 -2.15625 -1.4375z" fill-rule="nonzero"/><path fill="#000000" d="m461.59607 171.52582q0 -0.96875 1.03125 -1.859375q1.046875 -0.90625 2.171875 -0.90625q2.1875 0 2.1875 1.390625q0 1.046875 -1.046875 1.9375q-1.03125 0.875 -2.1875 0.875q-2.15625 0 -2.15625 -1.4375z" fill-rule="nonzero"/><path fill="#000000" d="m510.59918 146.27582l-0.046875 -0.875q0 -1.078125 3.71875 -1.078125q2.328125 0 2.328125 1.15625q0 0.203125 -0.078125 0.28125q-0.28125 1.5625 -3.171875 9.96875q-2.875 8.390625 -2.875 9.25q0 0.859375 0.796875 0.859375q0.609375 0 0.921875 -0.3125q0.5625 -0.5625 1.390625 -1.40625q0.84375 -0.84375 4.609375 -6.0625q3.765625 -5.21875 6.046875 -9.015625q0.75 -1.515625 5.03125 -1.515625q1.078125 0 1.078125 0.671875l-0.28125 0.765625q-1.1875 2.4375 -3.234375 8.59375q-2.046875 6.15625 -2.046875 7.21875q0 1.0625 0.8125 1.0625q0.59375 0 0.921875 -0.3125q0.546875 -0.5625 1.109375 -1.125q1.484375 -1.484375 6.5 -8.453125q5.015625 -6.984375 6.78125 -10.421875q0.4375 -0.890625 1.0 -1.171875q1.0 -0.46875 3.515625 -0.5625l0.8125 0q2.078125 0 2.078125 0.6875q0 0.28125 -0.359375 0.640625q-3.921875 3.71875 -11.5 12.625q-7.578125 8.890625 -10.3125 12.859375q-0.546875 0.828125 -0.875 1.1875q-0.3125 0.359375 -1.03125 0.84375q-1.359375 0.890625 -4.765625 0.890625q-1.953125 0 -1.953125 -0.96875l0.109375 -0.4375q0.25 -0.765625 0.875 -2.5625q0.640625 -1.796875 1.078125 -3.03125q0.453125 -1.25 0.96875 -2.734375q1.0 -3.0 1.0 -3.671875q0 -0.6875 -0.59375 -0.6875q-0.640625 0 -1.4375 0.96875q-3.171875 3.75 -7.6875 10.203125q-0.765625 1.078125 -1.203125 1.546875q-0.4375 0.453125 -1.84375 0.90625q-1.390625 0.46875 -3.5 0.46875q-2.09375 0 -2.09375 -0.96875l0.125 -0.4375q1.390625 -4.046875 3.734375 -11.640625q2.34375 -7.59375 3.1875 -11.15625q0.359375 -2.046875 0.359375 -3.046875zm50.476868 25.25q0 -0.96875 1.03125 -1.859375q1.046875 -0.90625 2.171875 -0.90625q2.1875 0 2.1875 1.390625q0 1.046875 -1.046875 1.9375q-1.03125 0.875 -2.1875 0.875q-2.15625 0 -2.15625 -1.4375zm58.27997 0q0 -0.96875 1.03125 -1.859375q1.046875 -0.90625 2.171875 -0.90625q2.1875 0 2.1875 1.390625q0 1.046875 -1.046875 1.9375q-1.03125 0.875 -2.1875 0.875q-2.15625 0 -2.15625 -1.4375zm41.320557 1.59375l-0.5625 -0.046875q-0.5625 0 -0.84375 0.359375q-1.359375 1.171875 -3.671875 1.171875q-1.203125 0 -1.203125 -0.53125l0 -0.109375q0 -0.4375 2.78125 -5.21875q2.78125 -4.78125 6.15625 -10.65625q3.375 -5.890625 4.359375 -8.09375q0.984375 -2.203125 0.984375 -3.640625l0 -0.515625q0 -1.046875 4.28125 -1.046875q2.15625 0 2.15625 0.8125q0 0.3125 -0.328125 0.640625q-3.1875 5.1875 -8.46875 14.828125l-0.5625 1.0q-0.5625 1.0 -0.8125 1.421875q-0.234375 0.421875 -0.734375 1.453125q-0.5 1.015625 -0.734375 1.65625q-0.6875 1.796875 -0.6875 2.796875q0 1.484375 2.640625 1.484375l0.28125 0q1.640625 0 3.609375 -0.6875q3.84375 -1.359375 6.234375 -5.203125q0.15625 -0.359375 0.890625 -0.359375q0.75 0 0.75 0.640625q0 0.96875 -1.28125 3.453125q-1.28125 2.46875 -2.3125 3.671875q-0.53125 0.71875 -2.0 0.71875q-1.484375 0.078125 -6.40625 0.078125l-4.515625 -0.078125zm45.079346 -1.59375q0 -0.96875 1.03125 -1.859375q1.046875 -0.90625 2.171875 -0.90625q2.1875 0 2.1875 1.390625q0 1.046875 -1.046875 1.9375q-1.03125 0.875 -2.1875 0.875q-2.15625 0 -2.15625 -1.4375z" fill-rule="nonzero"/><path fill="#a2c4c9" d="m152.84251 55.490814l62.456696 0l0 -5.0393715l10.078751 10.078739l-10.078751 10.078743l0 -5.0393677l-62.456696 0z" fill-rule="evenodd"/><path stroke="#45818e" stroke-width="1.0" stroke-linejoin="round" stroke-linecap="butt" d="m152.84251 55.490814l62.456696 0l0 -5.0393715l10.078751 10.078739l-10.078751 10.078743l0 -5.0393677l-62.456696 0z" fill-rule="evenodd"/><path fill="#45818e" d="m100.0105 58.90814l0 0c0 -11.932831 9.088264 -21.6063 20.29921 -21.6063l0 0c5.38369 0 10.546875 2.276371 14.353714 6.3283386c3.806839 4.0519676 5.9454956 9.547611 5.9454956 15.277962l0 0c0 11.932827 -9.088257 21.606297 -20.29921 21.606297l0 0c-11.210945 0 -20.29921 -9.67347 -20.29921 -21.606297z" fill-rule="evenodd"/><path stroke="#134f5c" stroke-width="3.0" stroke-linejoin="round" stroke-linecap="butt" d="m100.0105 58.90814l0 0c0 -11.932831 9.088264 -21.6063 20.29921 -21.6063l0 0c5.38369 0 10.546875 2.276371 14.353714 6.3283386c3.806839 4.0519676 5.9454956 9.547611 5.9454956 15.277962l0 0c0 11.932827 -9.088257 21.606297 -20.29921 21.606297l0 0c-11.210945 0 -20.29921 -9.67347 -20.29921 -21.606297z" fill-rule="evenodd"/><path fill="#45818e" d="m100.0105 116.62467l0 0c0 -11.932831 9.088264 -21.6063 20.29921 -21.6063l0 0c5.38369 0 10.546875 2.2763748 14.353714 6.3283386c3.806839 4.0519714 5.9454956 9.547615 5.9454956 15.277962l0 0c0 11.932823 -9.088257 21.6063 -20.29921 21.6063l0 0c-11.210945 0 -20.29921 -9.673477 -20.29921 -21.6063z" fill-rule="evenodd"/><path stroke="#134f5c" stroke-width="3.0" stroke-linejoin="round" stroke-linecap="butt" d="m100.0105 116.62467l0 0c0 -11.932831 9.088264 -21.6063 20.29921 -21.6063l0 0c5.38369 0 10.546875 2.2763748 14.353714 6.3283386c3.806839 4.0519714 5.9454956 9.547615 5.9454956 15.277962l0 0c0 11.932823 -9.088257 21.6063 -20.29921 21.6063l0 0c-11.210945 0 -20.29921 -9.673477 -20.29921 -21.6063z" fill-rule="evenodd"/><path fill="#45818e" d="m100.0105 174.3412l0 0c0 -11.932831 9.088264 -21.606293 20.29921 -21.606293l0 0c5.38369 0 10.546875 2.2763672 14.353714 6.3283386c3.806839 4.0519714 5.9454956 9.547607 5.9454956 15.277954l0 0c0 11.932831 -9.088257 21.606308 -20.29921 21.606308l0 0c-11.210945 0 -20.29921 -9.673477 -20.29921 -21.606308z" fill-rule="evenodd"/><path stroke="#134f5c" stroke-width="3.0" stroke-linejoin="round" stroke-linecap="butt" d="m100.0105 174.3412l0 0c0 -11.932831 9.088264 -21.606293 20.29921 -21.606293l0 0c5.38369 0 10.546875 2.2763672 14.353714 6.3283386c3.806839 4.0519714 5.9454956 9.547607 5.9454956 15.277954l0 0c0 11.932831 -9.088257 21.606308 -20.29921 21.606308l0 0c-11.210945 0 -20.29921 -9.673477 -20.29921 -21.606308z" fill-rule="evenodd"/><path fill="#000000" fill-opacity="0.0" d="m105.385826 37.301838l28.251976 0l0 37.700787l-28.251976 0z" fill-rule="evenodd"/><path fill="#d0e0e3" d="m123.52645 66.78184l-8.125 0l0 -1.90625l2.0 0l0 -11.1875l-2.0 0l0 -1.90625l6.125 0l0 13.09375l2.0 0l0 1.90625z" fill-rule="nonzero"/><path fill="#000000" fill-opacity="0.0" d="m102.29921 95.01837l34.4252 0l0 37.70079l-34.4252 0z" fill-rule="evenodd"/><path fill="#d0e0e3" d="m126.14296 114.014q0 0.921875 -0.25 1.59375q-0.25 0.671875 -0.671875 1.15625q-0.421875 0.46875 -1.0 0.796875q-0.578125 0.328125 -1.234375 0.578125q-0.65625 0.25 -1.359375 0.453125q-0.703125 0.203125 -1.390625 0.421875q-0.6875 0.21875 -1.328125 0.5q-0.625 0.28125 -1.140625 0.6875q-0.515625 0.40625 -0.875 0.984375q-0.359375 0.578125 -0.5 1.390625l9.75 0l0 1.921875l-14.203125 0q0.234375 -1.4375 0.65625 -2.484375q0.4375 -1.046875 1.0 -1.796875q0.5625 -0.75 1.21875 -1.25q0.65625 -0.515625 1.359375 -0.859375q0.703125 -0.34375 1.40625 -0.578125q0.703125 -0.234375 1.359375 -0.453125q0.65625 -0.21875 1.21875 -0.46875q0.578125 -0.25 1.0 -0.609375q0.421875 -0.359375 0.65625 -0.890625q0.234375 -0.53125 0.234375 -1.296875q0 -0.71875 -0.234375 -1.25q-0.234375 -0.53125 -0.65625 -0.875q-0.40625 -0.359375 -0.984375 -0.53125q-0.5625 -0.1875 -1.203125 -0.1875q-0.6875 0 -1.265625 0.25q-0.578125 0.25 -1.046875 0.703125q-0.453125 0.453125 -0.796875 1.09375q-0.328125 0.640625 -0.515625 1.40625l-3.1875 -1.765625q0.421875 -0.875 1.203125 -1.515625q0.796875 -0.640625 1.75 -1.078125q0.953125 -0.4375 1.984375 -0.640625q1.046875 -0.21875 1.96875 -0.21875q0.90625 0 1.78125 0.078125q0.875 0.0625 1.65625 0.265625q0.78125 0.203125 1.4375 0.546875q0.671875 0.34375 1.15625 0.875q0.5 0.53125 0.765625 1.28125q0.28125 0.75 0.28125 1.765625z" fill-rule="nonzero"/><path fill="#000000" fill-opacity="0.0" d="m102.29921 152.73491l31.338593 0l0 37.70079l-31.338593 0z" fill-rule="evenodd"/><path fill="#d0e0e3" d="m118.721085 182.51178q-0.9375 0 -2.015625 -0.21875q-1.078125 -0.203125 -2.109375 -0.625q-1.015625 -0.4375 -1.859375 -1.078125q-0.828125 -0.65625 -1.25 -1.53125l3.71875 -1.765625q0 0.71875 0.296875 1.359375q0.296875 0.625 0.78125 1.09375q0.5 0.46875 1.125 0.75q0.625 0.265625 1.3125 0.265625q0.640625 0 1.25 -0.1875q0.625 -0.203125 1.09375 -0.578125q0.46875 -0.375 0.75 -0.921875q0.296875 -0.546875 0.296875 -1.25q0 -0.78125 -0.265625 -1.34375q-0.25 -0.5625 -0.71875 -0.90625q-0.46875 -0.359375 -1.09375 -0.515625q-0.609375 -0.171875 -1.3125 -0.171875l-2.03125 0l0 -1.78125l2.03125 0q0.484375 0 0.9375 -0.125q0.46875 -0.125 0.828125 -0.375q0.359375 -0.265625 0.578125 -0.65625q0.21875 -0.390625 0.21875 -0.90625q0 -0.578125 -0.203125 -0.96875q-0.1875 -0.40625 -0.546875 -0.640625q-0.34375 -0.25 -0.8125 -0.359375q-0.46875 -0.109375 -1.0 -0.109375q-0.53125 0 -1.015625 0.140625q-0.484375 0.125 -0.859375 0.40625q-0.375 0.265625 -0.609375 0.671875q-0.234375 0.40625 -0.234375 0.96875l-2.96875 -2.1875q0.4375 -0.53125 1.125 -0.921875q0.6875 -0.390625 1.46875 -0.625q0.796875 -0.234375 1.59375 -0.34375q0.8125 -0.109375 1.5 -0.109375q0.625 0 1.328125 0.078125q0.703125 0.0625 1.375 0.234375q0.6875 0.15625 1.328125 0.4375q0.640625 0.28125 1.109375 0.71875q0.484375 0.421875 0.765625 1.015625q0.296875 0.59375 0.296875 1.390625q0 0.46875 -0.21875 0.921875q-0.203125 0.453125 -0.546875 0.84375q-0.328125 0.375 -0.75 0.671875q-0.421875 0.296875 -0.859375 0.46875q0.71875 0.15625 1.390625 0.515625q0.671875 0.359375 1.171875 0.890625q0.5 0.515625 0.796875 1.203125q0.296875 0.671875 0.296875 1.46875q0 1.0 -0.34375 1.75q-0.328125 0.75 -0.90625 1.265625q-0.5625 0.515625 -1.3125 0.84375q-0.75 0.328125 -1.59375 0.515625q-0.828125 0.1875 -1.6875 0.25q-0.859375 0.0625 -1.640625 0.0625z" fill-rule="nonzero"/><path fill="#a2c4c9" d="m152.84251 111.585304l62.456696 0l0 -5.0393753l10.078751 10.078743l-10.078751 10.078743l0 -5.0393753l-62.456696 0z" fill-rule="evenodd"/><path stroke="#45818e" stroke-width="1.0" stroke-linejoin="round" stroke-linecap="butt" d="m152.84251 111.585304l62.456696 0l0 -5.0393753l10.078751 10.078743l-10.078751 10.078743l0 -5.0393753l-62.456696 0z" fill-rule="evenodd"/><path fill="#a2c4c9" d="m152.84251 167.6798l62.456696 0l0 -5.0393677l10.078751 10.078735l-10.078751 10.078735l0 -5.0393677l-62.456696 0z" fill-rule="evenodd"/><path stroke="#45818e" stroke-width="1.0" stroke-linejoin="round" stroke-linecap="butt" d="m152.84251 167.6798l62.456696 0l0 -5.0393677l10.078751 10.078735l-10.078751 10.078735l0 -5.0393677l-62.456696 0z" fill-rule="evenodd"/></g></svg>