<svg version="1.1" viewBox="0.0 0.0 1009.3070866141733 436.0603674540682" fill="none" stroke="none" stroke-linecap="square" stroke-miterlimit="10" xmlns:xlink="http://www.w3.org/1999/xlink" xmlns="http://www.w3.org/2000/svg"><clipPath id="p.0"><path d="m0 0l1009.30707 0l0 436.06036l-1009.30707 0l0 -436.06036z" clip-rule="nonzero"/></clipPath><g clip-path="url(#p.0)"><path fill="#000000" fill-opacity="0.0" d="m0 0l1009.30707 0l0 436.06036l-1009.30707 0z" fill-rule="evenodd"/><path shape-rendering="crispEdges" fill="#d0e0e3" d="m135.0958 49.863518l69.2966 0l0 58.56955l-69.2966 0l0 -58.56955z" fill-rule="nonzero"/><path shape-rendering="crispEdges" fill="#d0e0e3" d="m204.3924 49.863518l69.29657 0l0 58.56955l-69.29657 0l0 -58.56955z" fill-rule="nonzero"/><path shape-rendering="crispEdges" fill="#d0e0e3" d="m273.68896 49.863518l69.2966 0l0 58.56955l-69.2966 0l0 -58.56955z" fill-rule="nonzero"/><path shape-rendering="crispEdges" fill="#d0e0e3" d="m342.98557 49.863518l69.2966 0l0 58.56955l-69.2966 0l0 -58.56955z" fill-rule="nonzero"/><path shape-rendering="crispEdges" fill="#d0e0e3" d="m412.28217 49.863518l69.29657 0l0 58.56955l-69.29657 0l0 -58.56955z" fill-rule="nonzero"/><path shape-rendering="crispEdges" fill="#d0e0e3" d="m481.57874 49.863518l69.29657 0l0 58.56955l-69.29657 0l0 -58.56955z" fill-rule="nonzero"/><path shape-rendering="crispEdges" fill="#d0e0e3" d="m550.8753 49.863518l69.29663 0l0 58.56955l-69.29663 0l0 -58.56955z" fill-rule="nonzero"/><path shape-rendering="crispEdges" fill="#d0e0e3" d="m620.17194 49.863518l69.29657 0l0 58.56955l-69.29657 0l0 -58.56955z" fill-rule="nonzero"/><path shape-rendering="crispEdges" fill="#d0e0e3" d="m689.4685 49.863518l69.29657 0l0 58.56955l-69.29657 0l0 -58.56955z" fill-rule="nonzero"/><path shape-rendering="crispEdges" fill="#d0e0e3" d="m758.7651 49.863518l69.29663 0l0 58.56955l-69.29663 0l0 -58.56955z" fill-rule="nonzero"/><path shape-rendering="crispEdges" fill="#d0e0e3" d="m135.0958 108.43307l69.2966 0l0 58.569557l-69.2966 0l0 -58.569557z" fill-rule="nonzero"/><path shape-rendering="crispEdges" fill="#d0e0e3" d="m204.3924 108.43307l69.29657 0l0 58.569557l-69.29657 0l0 -58.569557z" fill-rule="nonzero"/><path shape-rendering="crispEdges" fill="#d0e0e3" d="m273.68896 108.43307l69.2966 0l0 58.569557l-69.2966 0l0 -58.569557z" fill-rule="nonzero"/><path shape-rendering="crispEdges" fill="#d0e0e3" d="m342.98557 108.43307l69.2966 0l0 58.569557l-69.2966 0l0 -58.569557z" fill-rule="nonzero"/><path shape-rendering="crispEdges" fill="#d0e0e3" d="m412.28217 108.43307l69.29657 0l0 58.569557l-69.29657 0l0 -58.569557z" fill-rule="nonzero"/><path shape-rendering="crispEdges" fill="#d0e0e3" d="m481.57874 108.43307l69.29657 0l0 58.569557l-69.29657 0l0 -58.569557z" fill-rule="nonzero"/><path shape-rendering="crispEdges" fill="#d0e0e3" d="m550.8753 108.43307l69.29663 0l0 58.569557l-69.29663 0l0 -58.569557z" fill-rule="nonzero"/><path shape-rendering="crispEdges" fill="#d0e0e3" d="m620.17194 108.43307l69.29657 0l0 58.569557l-69.29657 0l0 -58.569557z" fill-rule="nonzero"/><path shape-rendering="crispEdges" fill="#d0e0e3" d="m689.4685 108.43307l69.29657 0l0 58.569557l-69.29657 0l0 -58.569557z" fill-rule="nonzero"/><path shape-rendering="crispEdges" fill="#d0e0e3" d="m758.7651 108.43307l69.29663 0l0 58.569557l-69.29663 0l0 -58.569557z" fill-rule="nonzero"/><path stroke="#45818e" stroke-width="4.0" stroke-linecap="butt" d="m135.0958 47.863518l0 121.13911" fill-rule="nonzero"/><path stroke="#45818e" stroke-width="4.0" stroke-linecap="butt" d="m204.3924 47.863518l0 121.13911" fill-rule="nonzero"/><path stroke="#45818e" stroke-width="4.0" stroke-linecap="butt" d="m273.68896 47.863518l0 121.13911" fill-rule="nonzero"/><path stroke="#45818e" stroke-width="4.0" stroke-linecap="butt" d="m342.98557 47.863518l0 121.13911" fill-rule="nonzero"/><path stroke="#45818e" stroke-width="4.0" stroke-linecap="butt" d="m412.28217 47.863518l0 121.13911" fill-rule="nonzero"/><path stroke="#45818e" stroke-width="4.0" stroke-linecap="butt" d="m481.57874 47.863518l0 121.13911" fill-rule="nonzero"/><path stroke="#45818e" stroke-width="4.0" stroke-linecap="butt" d="m550.8753 47.863518l0 121.13911" fill-rule="nonzero"/><path stroke="#45818e" stroke-width="4.0" stroke-linecap="butt" d="m620.17194 47.863518l0 121.13911" fill-rule="nonzero"/><path stroke="#45818e" stroke-width="4.0" stroke-linecap="butt" d="m689.4685 47.863518l0 121.13911" fill-rule="nonzero"/><path stroke="#45818e" stroke-width="4.0" stroke-linecap="butt" d="m758.7651 47.863518l0 121.13911" fill-rule="nonzero"/><path stroke="#45818e" stroke-width="4.0" stroke-linecap="butt" d="m828.0617 47.863518l0 121.13911" fill-rule="nonzero"/><path stroke="#45818e" stroke-width="4.0" stroke-linecap="butt" d="m133.0958 49.863518l696.96594 0" fill-rule="nonzero"/><path stroke="#45818e" stroke-width="4.0" stroke-linecap="butt" d="m133.0958 108.43307l696.96594 0" fill-rule="nonzero"/><path stroke="#45818e" stroke-width="4.0" stroke-linecap="butt" d="m133.0958 167.00262l696.96594 0" fill-rule="nonzero"/><path fill="#0c343d" d="m146.95517 77.74477q-0.1875 0 -0.25 -0.234375q0 -0.453125 0.640625 -1.03125q0.640625 -0.59375 1.03125 -0.75q0.390625 -0.171875 2.5625 -0.21875l0.375 -0.4375q8.109375 -9.34375 11.25 -9.34375q0.265625 -0.03125 0.609375 -0.03125q1.84375 0 1.84375 0.875q0 0.171875 -0.34375 0.859375l-1.203125 2.390625q-0.84375 1.71875 -1.65625 3.46875q-4.3125 9.515625 -5.0 12.484375q0 0.203125 -0.546875 0.203125q-0.546875 0 -1.328125 -0.609375q-0.765625 -0.59375 -0.765625 -1.046875q0 -0.8125 1.296875 -3.109375q1.3125 -2.296875 1.3125 -2.984375q0 -0.9375 -3.625 -0.9375q-0.53125 0 -1.65625 0.046875l-1.015625 1.34375q-1.859375 2.5 -3.5625 6.203125q-0.296875 0.671875 -1.796875 0.671875q-1.484375 0 -1.484375 -0.421875q0 -0.296875 1.65625 -2.578125q1.671875 -2.28125 3.96875 -5.046875q-0.40625 0.046875 -1.015625 0.109375q-0.609375 0.046875 -0.953125 0.09375q-0.328125 0.03125 -0.34375 0.03125zm11.046875 -3.4375q1.046875 -1.25 1.5625 -2.53125q0.53125 -1.28125 0.53125 -1.734375q0 -0.453125 -0.453125 -0.453125q-0.8125 0 -2.65625 1.703125q-1.828125 1.6875 -3.984375 4.21875l2.90625 0.046875q1.0625 0 2.09375 -1.25z" fill-rule="nonzero"/><path fill="#0c343d" d="m226.67365 82.61977q-1.171875 1.078125 -3.078125 1.765625q-1.890625 0.671875 -3.671875 0.671875q-1.78125 0 -2.546875 -0.1875q-0.765625 -0.171875 -0.890625 -0.171875q-0.265625 0 -0.53125 0.171875q-0.859375 0.765625 -2.0625 0.765625q-1.1875 0 -1.1875 -0.421875q0 -0.296875 1.84375 -3.484375q1.859375 -3.203125 4.109375 -7.125q2.25 -3.921875 2.90625 -5.390625q0.65625 -1.46875 0.65625 -2.53125l0 -0.21875q0 -0.71875 4.125 -0.71875q3.78125 0 4.859375 0.40625q1.375 0.53125 1.71875 1.40625q0.21875 0.546875 0.21875 1.28125q0 1.203125 -0.875 2.265625q-1.625 1.921875 -4.21875 2.53125q-0.984375 0.25 -1.171875 0.40625q-0.1875 0.15625 -0.1875 0.328125q0 0.171875 0.390625 0.4375q0.390625 0.25 0.84375 0.546875q0.46875 0.28125 0.859375 0.953125q0.390625 0.671875 0.390625 1.703125q0 1.015625 -0.65625 2.265625q-0.65625 1.25 -1.84375 2.34375zm-2.328125 -1.453125q0.78125 -0.9375 1.21875 -1.890625q0.4375 -0.96875 0.4375 -1.625q0 -0.65625 -0.203125 -1.109375q-0.203125 -0.46875 -0.46875 -0.703125q-0.265625 -0.25 -0.640625 -0.390625q-0.546875 -0.203125 -1.109375 -0.203125l-0.265625 0q-0.359375 0 -0.359375 -0.25q0 -0.546875 0.40625 -1.171875q0.421875 -0.640625 0.953125 -0.640625q2.171875 0 3.875 -1.4375q1.703125 -1.4375 1.703125 -3.0625q0 -1.40625 -1.859375 -1.40625q-1.546875 0 -2.171875 0.734375q-1.671875 2.078125 -4.84375 7.75q-3.171875 5.671875 -3.171875 6.65625q0 0.390625 0.4375 0.6875q0.4375 0.296875 1.59375 0.296875q1.171875 0 2.4375 -0.65625q1.265625 -0.65625 2.03125 -1.578125z" fill-rule="nonzero"/><path fill="#0c343d" d="m288.92334 85.10414q-4.390625 0 -4.390625 -4.484375q0 -1.296875 0.625 -3.15625q0.625 -1.875 1.84375 -3.890625q1.234375 -2.015625 2.78125 -3.734375q1.546875 -1.734375 3.625 -2.859375q2.078125 -1.125 4.1875 -1.125q0.984375 0 1.515625 0.234375q0.53125 0.21875 0.5625 0.21875q0.046875 0 0.671875 -0.265625q0.625 -0.265625 1.484375 -0.265625q0.875 0 0.875 0.5q0 0.484375 -1.03125 2.140625q-1.015625 1.65625 -2.453125 3.171875q-1.4375 1.515625 -2.296875 1.515625q-0.109375 0.03125 -0.265625 0.03125q-0.5 0 -0.5 -0.296875q0 -0.046875 0.359375 -0.59375q0.375 -0.546875 0.75 -1.46875q0.375 -0.921875 0.375 -1.484375q0 -0.5625 -0.0625 -0.796875q-0.046875 -0.234375 -0.359375 -0.546875q-0.296875 -0.328125 -0.828125 -0.328125q-1.4375 0 -3.421875 2.1875q-1.984375 2.1875 -3.421875 5.140625q-1.421875 2.9375 -1.421875 4.984375q0 2.453125 2.234375 2.453125q2.671875 0 5.171875 -3.4375q0.109375 -0.21875 0.21875 -0.21875q0.125 0 0.1875 0.015625q0.078125 0.015625 0.1875 0.171875q0.125 0.140625 0.125 0.546875q0 0.390625 -0.546875 1.328125q-0.546875 0.921875 -1.453125 1.921875q-0.90625 0.984375 -2.34375 1.6875q-1.4375 0.703125 -2.984375 0.703125z" fill-rule="nonzero"/><path fill="#0c343d" d="m358.17307 85.07289q-1.421875 0 -1.828125 -0.09375q-0.390625 -0.09375 -0.671875 -0.15625q-0.28125 -0.0625 -0.359375 -0.09375q-0.078125 -0.03125 -0.234375 -0.03125q-0.328125 0 -0.59375 0.171875q-0.921875 0.765625 -2.453125 0.765625q-0.796875 0 -0.796875 -0.359375q0 -0.359375 1.84375 -3.546875q1.859375 -3.203125 4.109375 -7.125q2.265625 -3.921875 2.90625 -5.390625q0.65625 -1.46875 0.65625 -2.53125l0 -0.21875q0 -0.765625 4.453125 -0.765625q6.609375 0 6.609375 4.5q0 3.25 -2.203125 7.171875q-1.15625 2.0625 -2.703125 3.765625q-1.546875 1.703125 -3.859375 2.828125q-2.296875 1.109375 -4.875 1.109375zm8.765625 -9.125q0.984375 -1.90625 1.5 -3.5625q0.53125 -1.671875 0.53125 -2.796875q0 -1.140625 -0.65625 -1.71875q-0.65625 -0.59375 -2.203125 -0.59375q-1.0625 0 -1.703125 0.734375q-1.671875 2.109375 -4.859375 7.78125q-3.171875 5.65625 -3.171875 6.625q0 1.0625 2.265625 1.0625q1.609375 0 3.234375 -1.109375q1.625 -1.125 2.84375 -2.8125q1.234375 -1.703125 2.21875 -3.609375z" fill-rule="nonzero"/><path fill="#0c343d" d="m433.70404 75.66664l-2.265625 -0.078125q-1.671875 0 -2.578125 1.09375q-0.640625 0.796875 -1.703125 2.609375q-1.046875 1.8125 -1.046875 2.875q0 0.984375 1.9375 0.984375q1.203125 0 2.5625 -0.453125q2.75 -0.90625 4.34375 -3.453125q0.1875 -0.25 0.640625 -0.25q0.453125 0 0.453125 0.53125q0 0.515625 -0.859375 2.171875q-0.84375 1.640625 -1.515625 2.46875q-0.34375 0.4375 -1.34375 0.484375q-1.0 0.046875 -3.046875 0.046875l-2.609375 0l-1.53125 -0.015625l-0.71875 -0.0625q-0.015625 0 -0.1875 0q-0.15625 0 -0.390625 0.25q-0.890625 0.765625 -2.515625 0.765625q-0.765625 0 -0.765625 -0.34375l0 -0.078125q0 -0.296875 1.84375 -3.484375q1.859375 -3.1875 4.125 -7.09375q2.265625 -3.921875 2.90625 -5.375q0.640625 -1.453125 0.640625 -2.5l0 -0.296875q0 -0.453125 5.671875 -0.453125q1.875 0 3.25 0.0625q0.40625 -0.453125 2.0625 -0.453125q0.6875 0 0.6875 0.34375q0 0.609375 -1.21875 2.46875q-1.203125 1.84375 -2.109375 2.515625q-0.296875 0.234375 -0.75 0.234375q-0.453125 0 -0.453125 -0.1875q0 -0.078125 0.078125 -0.203125q0.4375 -0.828125 0.4375 -1.875q0 -1.453125 -2.03125 -1.453125q-1.234375 0 -1.9375 0.640625q-0.703125 0.625 -1.40625 1.78125q-0.6875 1.140625 -1.015625 1.96875q-0.328125 0.828125 -0.328125 1.046875q0 0.640625 0.625 0.78125q0.625 0.140625 2.484375 0.140625l1.984375 -0.078125q0.265625 0 0.265625 0.203125q0 0.203125 -0.28125 0.671875q-0.28125 0.453125 -0.578125 0.640625q-0.59375 0.40625 -1.8125 0.40625z" fill-rule="nonzero"/><path fill="#0c343d" d="m502.65686 75.66664l-2.296875 -0.078125q-1.671875 0 -2.5625 1.09375q-1.40625 1.84375 -2.921875 4.8125q-1.5 2.96875 -2.078125 3.390625q-0.96875 0.75 -2.453125 0.75q-0.8125 0 -0.8125 -0.34375l0 -0.078125q0 -0.296875 1.859375 -3.484375q1.859375 -3.1875 4.109375 -7.09375q2.25 -3.921875 2.90625 -5.390625q0.65625 -1.46875 0.65625 -2.5l0 -0.28125q0 -0.453125 5.671875 -0.453125q1.859375 0 3.25 0.0625q0.40625 -0.453125 2.03125 -0.453125q0.71875 0 0.71875 0.34375q0 0.640625 -1.296875 2.578125q-1.296875 1.921875 -2.171875 2.484375q-0.375 0.1875 -0.71875 0.1875q-0.34375 0 -0.34375 -0.21875q0 -0.015625 0.125 -0.28125q0.375 -0.75 0.375 -1.796875q0 -1.453125 -2.046875 -1.453125q-1.234375 0 -1.9375 0.640625q-0.703125 0.625 -1.40625 1.78125q-0.6875 1.140625 -1.015625 1.96875q-0.328125 0.828125 -0.328125 1.140625q0 0.296875 0.28125 0.5625q0.296875 0.265625 2.859375 0.265625q1.140625 0 1.53125 -0.03125q0.40625 -0.046875 0.4375 -0.046875q0.234375 0 0.234375 0.1875q0 0.109375 -0.015625 0.15625q-0.375 0.90625 -0.90625 1.25q-0.515625 0.328125 -1.734375 0.328125z" fill-rule="nonzero"/><path fill="#0c343d" d="m570.71906 84.61977q-0.375 0 -0.65625 -0.34375q-0.265625 -0.34375 -0.34375 -0.6875l-0.09375 -0.34375q-0.078125 -0.296875 -0.390625 -0.296875q-0.296875 0 -0.53125 0.1875q-2.515625 1.96875 -4.671875 1.96875q-2.765625 0 -2.765625 -3.703125q0 -1.3125 0.671875 -3.25q0.6875 -1.953125 1.953125 -4.0625q1.28125 -2.125 2.890625 -3.96875q1.625 -1.859375 3.734375 -3.0625q2.125 -1.203125 4.234375 -1.203125q1.140625 0 1.859375 0.40625q0.109375 0.046875 0.234375 0.046875q0.140625 0 0.28125 -0.078125q0.65625 -0.453125 1.6875 -0.453125q1.046875 0 1.046875 0.515625q0 0.625 -1.328125 2.53125q-2.078125 2.953125 -3.40625 2.953125q-0.34375 0 -0.46875 -0.046875q-0.125 -0.0625 -0.125 -0.21875q0 -0.15625 0.171875 -0.53125q0.53125 -1.125 0.53125 -1.859375q0 -0.734375 -0.28125 -1.109375q-0.28125 -0.390625 -1.15625 -0.390625q-1.609375 0 -3.8125 2.421875q-2.1875 2.40625 -3.765625 5.5625q-1.578125 3.15625 -1.578125 5.203125q0 1.734375 1.4375 1.734375q1.125 0 2.546875 -1.140625q1.4375 -1.15625 2.34375 -2.46875q0.921875 -1.3125 0.921875 -1.890625q0 -0.578125 -0.5625 -0.796875q-0.546875 -0.234375 -2.15625 -0.234375q-0.3125 0 -0.3125 -0.234375q0 -0.453125 0.515625 -0.9375q0.515625 -0.484375 1.0 -0.53125q1.921875 -0.140625 4.03125 -0.140625q2.125 0 2.125 0.375q0 0.328125 -0.359375 1.0q-0.359375 0.65625 -0.59375 1.078125q-0.21875 0.40625 -0.65625 1.140625q-0.4375 0.734375 -0.703125 1.15625q-0.265625 0.421875 -0.8125 1.296875q-0.546875 0.859375 -0.875 1.40625q-0.3125 0.53125 -0.78125 1.40625q-0.46875 0.875 -0.6875 1.234375q-0.203125 0.359375 -0.34375 0.359375z" fill-rule="nonzero"/><path fill="#0c343d" d="m638.7657 66.82289l0 -0.359375q0 -0.6875 2.859375 -0.6875q1.4375 0 1.4375 0.53125q0 0.21875 -0.21875 0.4375q-1.015625 1.375 -4.3125 7.0l3.296875 0.03125q1.09375 0 2.0 -0.875q0.453125 -0.484375 0.8125 -0.890625q0.359375 -0.421875 0.8125 -1.1875q0.453125 -0.78125 0.71875 -1.234375q0.375 -0.671875 1.3125 -2.5625q0 -0.125 0.203125 -0.328125q0.203125 -0.203125 0.46875 -0.34375q0.28125 -0.15625 0.859375 -0.25q0.59375 -0.109375 1.390625 -0.109375q0.8125 0 0.8125 0.34375q0 0.15625 -0.125 0.359375q-0.109375 0.203125 -1.390625 2.15625q-1.265625 1.9375 -2.546875 4.03125q-1.265625 2.09375 -2.703125 4.546875q-1.421875 2.453125 -2.3125 4.484375q-0.890625 2.015625 -0.890625 2.953125q-0.15625 0.453125 -0.671875 0.453125q-1.46875 0 -2.03125 -0.25q-0.546875 -0.234375 -0.546875 -0.71875q0 -0.828125 1.765625 -3.859375q1.78125 -3.046875 1.78125 -3.6875q0 -0.65625 -0.546875 -0.96875q-0.53125 -0.328125 -1.78125 -0.328125q-1.25 0 -1.734375 0.015625q-0.90625 1.46875 -2.078125 3.765625q-1.171875 2.296875 -1.96875 3.765625q-0.796875 1.453125 -1.28125 1.828125q-0.984375 0.75 -2.421875 0.75q-0.828125 0 -0.828125 -0.421875q0 -0.25 0.703125 -1.421875q0.703125 -1.1875 2.28125 -3.734375q1.578125 -2.546875 2.71875 -4.46875l-1.625 0.078125q-0.40625 0 -0.40625 -0.21875q0 -0.453125 0.578125 -0.90625q0.578125 -0.453125 0.9375 -0.578125q0.375 -0.140625 1.5625 -0.1875q0.984375 -1.6875 2.53125 -4.671875q0.578125 -1.28125 0.578125 -2.28125z" fill-rule="nonzero"/><path fill="#0c343d" d="m698.8435 83.58852q0 -0.625 0.6875 -1.21875q0.703125 -0.59375 1.4375 -0.59375q1.46875 0 1.46875 0.90625q0 0.71875 -0.703125 1.296875q-0.6875 0.5625 -1.453125 0.5625q-1.4375 0 -1.4375 -0.953125zm5.625 0q0 -0.625 0.6875 -1.21875q0.703125 -0.59375 1.4375 -0.59375q1.46875 0 1.46875 0.90625q0 0.71875 -0.703125 1.296875q-0.6875 0.5625 -1.421875 0.5625q-1.46875 0 -1.46875 -0.953125zm5.625 0q0 -0.625 0.6875 -1.21875q0.703125 -0.59375 1.4375 -0.59375q1.46875 0 1.46875 0.90625q0 0.71875 -0.703125 1.296875q-0.6875 0.5625 -1.453125 0.5625q-1.4375 0 -1.4375 -0.953125z" fill-rule="nonzero"/><path fill="#0c343d" d="m788.9526 67.02602q0 1.28125 -5.59375 5.609375q-2.3125 1.78125 -4.65625 3.59375q-2.328125 1.8125 -3.96875 3.453125q-1.640625 1.640625 -1.640625 2.515625q0 0.484375 0.609375 0.65625q0.625 0.171875 1.390625 0.171875q0.78125 0 2.015625 -0.5q1.234375 -0.515625 2.21875 -1.234375q2.109375 -1.578125 3.09375 -2.671875l0.453125 -0.5q0.5625 -0.453125 0.96875 -0.453125l0.046875 0q0.421875 0 0.421875 0.265625q-0.046875 0.640625 -2.140625 3.90625q-2.09375 3.265625 -2.78125 3.34375l-0.296875 0q-1.59375 0 -2.390625 -0.609375q-2.5625 0.234375 -3.28125 0.234375q-3.546875 0 -4.8125 -0.21875q-1.265625 -0.203125 -1.265625 -0.890625q0 -0.9375 1.65625 -2.71875q1.671875 -1.796875 4.046875 -3.703125q2.390625 -1.921875 4.78125 -3.765625q2.40625 -1.84375 4.078125 -3.234375q1.6875 -1.40625 1.71875 -1.8125l0 -0.015625q0 -0.71875 -1.453125 -0.71875q-1.453125 0 -2.921875 0.765625q-1.46875 0.75 -3.140625 2.140625q-0.609375 0.46875 -1.0 0.46875q-0.390625 0 -0.390625 -0.28125q0.03125 -0.296875 1.3125 -2.265625q1.28125 -1.984375 2.109375 -2.671875q0.34375 -0.328125 0.84375 -0.328125q1.125 0 1.84375 0.59375q1.765625 -0.15625 3.96875 -0.15625q4.15625 0 4.15625 1.03125z" fill-rule="nonzero"/><path fill="#0c343d" d="m164.00204 128.65807q0 1.5 -0.59375 3.421875q-0.59375 1.921875 -1.78125 3.921875q-1.171875 2.0 -2.703125 3.6875q-1.53125 1.6875 -3.625 2.765625q-2.09375 1.078125 -4.3125 1.078125q-2.21875 0 -3.5 -1.234375q-1.28125 -1.234375 -1.28125 -3.421875q0 -1.5 0.59375 -3.40625q0.609375 -1.921875 1.78125 -3.921875q1.171875 -2.0 2.703125 -3.671875q1.53125 -1.6875 3.625 -2.765625q2.09375 -1.078125 4.3125 -1.078125q2.234375 0 3.5 1.234375q1.28125 1.21875 1.28125 3.390625zm-3.140625 -0.234375q0 -2.9375 -2.125 -2.9375q-1.796875 0 -4.0 2.265625q-2.1875 2.265625 -3.71875 5.484375q-1.53125 3.21875 -1.53125 5.75q0 2.921875 2.125 2.921875q1.765625 0 3.96875 -2.265625q2.21875 -2.265625 3.75 -5.46875q1.53125 -3.21875 1.53125 -5.75z" fill-rule="nonzero"/><path fill="#0c343d" d="m228.18927 136.79869q0 2.828125 -2.34375 4.734375q-2.328125 1.90625 -5.953125 1.90625q-2.0 0 -3.03125 -0.59375q-0.109375 -0.046875 -0.25 -0.046875q-0.125 0 -0.984375 0.28125q-0.84375 0.296875 -1.71875 0.296875q-0.859375 0 -0.859375 -0.5q0 -0.703125 1.671875 -3.609375q1.6875 -2.921875 2.984375 -3.9375q0.5625 -0.421875 1.09375 -0.421875q0.53125 0 0.53125 0.28125q0 0.0625 -0.359375 0.671875q-0.359375 0.59375 -0.71875 1.578125q-0.359375 0.984375 -0.359375 1.6875q0 0.703125 0.140625 1.1875q0.15625 0.484375 0.75 0.984375q0.609375 0.484375 1.46875 0.484375q0.875 0 1.625 -0.203125q0.765625 -0.21875 1.515625 -0.671875q0.75 -0.453125 1.21875 -1.328125q0.484375 -0.890625 0.484375 -2.046875q0 -1.15625 -0.71875 -2.359375q-0.71875 -1.203125 -1.578125 -2.046875q-0.84375 -0.84375 -1.5625 -1.921875q-0.71875 -1.078125 -0.71875 -2.09375q0 -1.03125 0.53125 -1.90625q0.546875 -0.890625 1.359375 -1.40625q0.828125 -0.515625 1.859375 -0.859375q1.765625 -0.59375 3.125 -0.59375q1.359375 0 2.0 0.125q0.65625 0.109375 0.984375 0.21875q0.34375 0.109375 0.421875 0.109375q0.078125 0 0.21875 -0.078125q0.796875 -0.453125 1.71875 -0.453125q0.9375 0 0.9375 0.453125q0 0.75 -1.78125 3.34375q-1.765625 2.59375 -2.640625 2.59375q-0.71875 0 -0.71875 -0.3125q0 -0.046875 0.1875 -0.375q0.578125 -1.0625 0.578125 -2.421875q0 -0.75 -0.640625 -1.15625q-0.625 -0.421875 -1.3125 -0.421875q-0.671875 0 -1.390625 0.21875q-0.703125 0.203125 -1.40625 0.84375q-0.703125 0.640625 -0.703125 1.546875q0 0.890625 0.671875 1.859375q0.6875 0.96875 1.5 1.78125q0.8125 0.8125 1.484375 2.0625q0.6875 1.234375 0.6875 2.515625z" fill-rule="nonzero"/><path fill="#0c343d" d="m288.92334 143.67369q-4.390625 0 -4.390625 -4.484375q0 -1.296875 0.625 -3.15625q0.625 -1.875 1.84375 -3.890625q1.234375 -2.015625 2.78125 -3.734375q1.546875 -1.734375 3.625 -2.859375q2.078125 -1.125 4.1875 -1.125q0.984375 0 1.515625 0.234375q0.53125 0.21875 0.5625 0.21875q0.046875 0 0.671875 -0.265625q0.625 -0.265625 1.484375 -0.265625q0.875 0 0.875 0.5q0 0.484375 -1.03125 2.140625q-1.015625 1.65625 -2.453125 3.171875q-1.4375 1.515625 -2.296875 1.515625q-0.109375 0.03125 -0.265625 0.03125q-0.5 0 -0.5 -0.296875q0 -0.046875 0.359375 -0.59375q0.375 -0.546875 0.75 -1.46875q0.375 -0.921875 0.375 -1.484375q0 -0.5625 -0.0625 -0.796875q-0.046875 -0.234375 -0.359375 -0.546875q-0.296875 -0.328125 -0.828125 -0.328125q-1.4375 0 -3.421875 2.1875q-1.984375 2.1875 -3.421875 5.140625q-1.421875 2.9375 -1.421875 4.984375q0 2.453125 2.234375 2.453125q2.671875 0 5.171875 -3.4375q0.109375 -0.21875 0.21875 -0.21875q0.125 0 0.1875 0.015625q0.078125 0.015625 0.1875 0.171875q0.125 0.140625 0.125 0.546875q0 0.390625 -0.546875 1.328125q-0.546875 0.921875 -1.453125 1.921875q-0.90625 0.984375 -2.34375 1.6875q-1.4375 0.703125 -2.984375 0.703125z" fill-rule="nonzero"/><path fill="#0c343d" d="m358.9387 143.53307q-2.234375 0 -3.515625 -1.234375q-1.28125 -1.234375 -1.28125 -3.421875q0 -1.5 0.59375 -3.40625q0.609375 -1.921875 1.78125 -3.921875q1.171875 -2.0 2.703125 -3.671875q1.53125 -1.6875 3.625 -2.765625q2.09375 -1.078125 4.3125 -1.078125q2.234375 0 3.515625 1.234375q1.28125 1.21875 1.28125 3.640625q0 2.421875 -1.84375 6.03125q-1.84375 3.609375 -4.5 5.640625q-1.0625 0.828125 -1.0625 1.3125q0 0.125 0.09375 0.46875q0.109375 0.328125 0.109375 0.671875q0 0.90625 -0.625 1.890625q-0.625 0.984375 -1.375 0.984375l-0.078125 -0.078125q-0.046875 -0.15625 -0.109375 -0.453125q-0.28125 -2.078125 -1.4375 -2.078125l-0.34375 0.046875q-0.71875 0.1875 -1.84375 0.1875zm3.890625 -8.015625q0.1875 0 0.25 0.265625q0 0.109375 0.09375 0.828125q0.09375 0.71875 0.1875 1.078125q0.09375 0.359375 0.1875 0.625q0.25 0.609375 0.625 0.609375q0.546875 0 1.65625 -1.703125q1.109375 -1.703125 2.03125 -4.265625q0.9375 -2.578125 0.9375 -4.53125q0 -2.9375 -2.125 -2.9375q-1.765625 0 -3.984375 2.265625q-2.203125 2.265625 -3.734375 5.484375q-1.53125 3.21875 -1.53125 5.75q0 0.5625 0.09375 1.109375q0.09375 0.53125 0.609375 1.171875q0.515625 0.640625 1.4375 0.640625q1.625 0 1.625 -0.609375q0 -0.265625 -0.296875 -0.765625q-0.296875 -0.515625 -0.296875 -1.203125q0 -1.28125 0.859375 -2.546875q0.875 -1.265625 1.375 -1.265625z" fill-rule="nonzero"/><path fill="#0c343d" d="m433.51654 142.62682l0.03125 0.5625q0 0.4375 -1.28125 0.4375q-2.265625 0 -2.265625 -0.90625q0 -0.828125 1.359375 -4.046875q1.359375 -3.21875 1.359375 -3.9375q0 -1.328125 -2.078125 -1.328125l-0.90625 0l-1.25 2.21875q-0.859375 1.484375 -1.84375 3.484375q-0.984375 2.0 -1.546875 2.96875q-0.5625 0.953125 -1.09375 1.375q-0.9375 0.75 -2.453125 0.75q-0.6875 0 -0.765625 -0.234375q-0.03125 -0.078125 -0.03125 -0.265625q0 -0.1875 0.765625 -1.484375q0.78125 -1.296875 2.421875 -3.9375q1.640625 -2.65625 2.859375 -4.765625l-1.84375 0.078125q-0.1875 0 -0.265625 -0.21875q0 -0.453125 0.484375 -0.859375q0.484375 -0.40625 0.875 -0.546875q0.40625 -0.15625 1.765625 -0.21875q1.3125 -2.3125 2.21875 -4.078125q0.578125 -1.359375 0.578125 -2.390625l0 -0.25q0 -0.6875 2.828125 -0.6875q1.4375 0 1.4375 0.53125q0 0.21875 -0.609375 1.0q-0.59375 0.765625 -3.59375 5.90625q0.796875 -0.03125 1.515625 -0.34375q0.71875 -0.328125 2.28125 -1.78125q1.578125 -1.46875 3.84375 -4.25q0.0625 -0.09375 0.21875 -0.265625q0.15625 -0.1875 0.984375 -0.453125q0.84375 -0.28125 2.328125 -0.28125q1.484375 0 1.484375 0.46875q0 0.15625 -2.34375 1.8125q-7.046875 4.96875 -7.046875 5.765625q0 0.34375 0.859375 0.953125q0.859375 0.609375 0.859375 1.234375q0 0.015625 -1.078125 3.265625q-1.0625 3.234375 -1.0625 4.71875z" fill-rule="nonzero"/><path fill="#0c343d" d="m496.1256 141.70494q2.03125 0 4.203125 -3.5q3.015625 -4.84375 5.875 -10.53125q0.578125 -1.1875 0.578125 -2.28125l0 -0.359375q0 -0.6875 2.859375 -0.6875q1.4375 0 1.4375 0.53125q0 0.21875 -0.46875 0.796875q-0.46875 0.5625 -2.640625 4.234375q-2.171875 3.65625 -2.796875 4.828125q-0.625 1.15625 -1.171875 2.21875q-0.546875 1.046875 -0.828125 1.5625q-0.28125 0.515625 -0.703125 1.28125q-0.40625 0.75 -0.671875 1.09375q-0.265625 0.328125 -0.6875 0.8125q-0.40625 0.46875 -0.78125 0.671875q-0.359375 0.203125 -0.859375 0.453125q-0.5 0.25 -1.078125 0.34375q-1.578125 0.203125 -2.796875 0.203125q-1.203125 0 -2.0 -0.453125q-0.109375 -0.046875 -0.265625 -0.046875q-0.140625 0 -0.25 0.078125q-0.71875 0.453125 -1.734375 0.453125q-1.0 0 -1.0 -0.515625q0 -0.765625 2.03125 -4.0q2.046875 -3.25 3.40625 -3.96875q0.28125 -0.1875 0.78125 -0.1875q0.515625 0 0.515625 0.296875q0 0.0625 -0.5625 0.96875q-0.546875 0.90625 -1.09375 2.171875q-0.546875 1.265625 -0.546875 2.0q0 0.734375 0.328125 1.140625q0.328125 0.390625 0.921875 0.390625z" fill-rule="nonzero"/><path fill="#0c343d" d="m565.65656 143.70494q-1.921875 0 -3.1875 -0.90625q-1.265625 -0.90625 -1.265625 -2.5625q0 -1.0625 1.046875 -3.15625q1.0625 -2.09375 2.890625 -5.125q1.828125 -3.046875 2.609375 -4.609375q0.78125 -1.5625 0.78125 -2.546875q0 -0.265625 0.171875 -0.421875q0.375 -0.375 2.546875 -0.375q1.453125 0 1.453125 0.5625q0 0.265625 -0.1875 0.453125q-1.46875 2.046875 -4.515625 7.296875q-3.03125 5.25 -3.03125 6.6875q0 2.109375 1.921875 2.109375q1.734375 0 2.6875 -0.90625q0.71875 -0.71875 1.203125 -1.484375q1.0625 -1.625 2.765625 -5.109375q1.703125 -3.484375 3.046875 -6.1875q1.359375 -2.703125 1.90625 -3.140625q0.546875 -0.4375 1.90625 -0.4375q1.375 0 1.375 0.3125q0 0.21875 -0.46875 0.78125q-0.453125 0.546875 -1.359375 1.9375q-0.90625 1.390625 -2.09375 3.3125q-1.1875 1.921875 -2.078125 3.390625q-0.875 1.453125 -2.0625 3.46875q-1.1875 2.015625 -1.390625 2.359375q-2.515625 4.296875 -6.671875 4.296875z" fill-rule="nonzero"/><path fill="#0c343d" d="m634.29694 129.32994l-0.03125 -2.828125q0 -1.109375 -0.171875 -1.421875q-0.15625 -0.328125 -0.15625 -0.546875q0 -0.53125 2.09375 -0.53125q2.09375 0 2.09375 0.984375q0 0.671875 -0.4375 3.21875q-0.4375 2.546875 -0.46875 3.5q-0.015625 0.9375 0.515625 0.9375q0.3125 0 0.71875 -0.359375q1.625 -1.4375 3.640625 -3.625q2.03125 -2.203125 2.6875 -3.0625q0.671875 -0.875 1.125 -1.0625q0.96875 -0.375 2.296875 -0.421875l0.453125 0q1.515625 0 1.515625 0.46875q0 0.28125 -0.453125 0.546875q-1.703125 0.984375 -5.875 4.484375q-4.171875 3.484375 -6.09375 5.53125q-0.765625 0.828125 -2.609375 4.25q-1.84375 3.421875 -2.5 3.875q-0.609375 0.53125 -1.8125 0.53125q-1.203125 0 -1.203125 -0.453125l0 -0.078125q0 -0.1875 0.875 -1.640625q2.859375 -4.671875 3.203125 -5.875q0.59375 -1.921875 0.59375 -6.421875z" fill-rule="nonzero"/><path fill="#0c343d" d="m698.8435 142.15807q0 -0.625 0.6875 -1.21875q0.703125 -0.59375 1.4375 -0.59375q1.46875 0 1.46875 0.90625q0 0.71875 -0.703125 1.296875q-0.6875 0.5625 -1.453125 0.5625q-1.4375 0 -1.4375 -0.953125zm5.625 0q0 -0.625 0.6875 -1.21875q0.703125 -0.59375 1.4375 -0.59375q1.46875 0 1.46875 0.90625q0 0.71875 -0.703125 1.296875q-0.6875 0.5625 -1.421875 0.5625q-1.46875 0 -1.46875 -0.953125zm5.625 0q0 -0.625 0.6875 -1.21875q0.703125 -0.59375 1.4375 -0.59375q1.46875 0 1.46875 0.90625q0 0.71875 -0.703125 1.296875q-0.6875 0.5625 -1.453125 0.5625q-1.4375 0 -1.4375 -0.953125z" fill-rule="nonzero"/><path fill="#0c343d" d="m788.9526 125.595566q0 1.28125 -5.59375 5.609375q-2.3125 1.78125 -4.65625 3.59375q-2.328125 1.8125 -3.96875 3.453125q-1.640625 1.640625 -1.640625 2.515625q0 0.484375 0.609375 0.65625q0.625 0.171875 1.390625 0.171875q0.78125 0 2.015625 -0.5q1.234375 -0.515625 2.21875 -1.234375q2.109375 -1.578125 3.09375 -2.671875l0.453125 -0.5q0.5625 -0.453125 0.96875 -0.453125l0.046875 0q0.421875 0 0.421875 0.265625q-0.046875 0.640625 -2.140625 3.90625q-2.09375 3.265625 -2.78125 3.34375l-0.296875 0q-1.59375 0 -2.390625 -0.609375q-2.5625 0.234375 -3.28125 0.234375q-3.546875 0 -4.8125 -0.21875q-1.265625 -0.203125 -1.265625 -0.890625q0 -0.9375 1.65625 -2.71875q1.671875 -1.796875 4.046875 -3.703125q2.390625 -1.921875 4.78125 -3.765625q2.40625 -1.84375 4.078125 -3.234375q1.6875 -1.40625 1.71875 -1.8125l0 -0.015625q0 -0.71875 -1.453125 -0.71875q-1.453125 0 -2.921875 0.765625q-1.46875 0.75 -3.140625 2.140625q-0.609375 0.46875 -1.0 0.46875q-0.390625 0 -0.390625 -0.28125q0.03125 -0.296875 1.3125 -2.265625q1.28125 -1.984375 2.109375 -2.671875q0.34375 -0.328125 0.84375 -0.328125q1.125 0 1.84375 0.59375q1.765625 -0.15625 3.96875 -0.15625q4.15625 0 4.15625 1.03125z" fill-rule="nonzero"/><path fill="#76a5af" d="m830.8793 314.95932l43.19684 -46.199127l0 21.59842l0 0c62.194763 -8.787079 110.34796 -35.7276 125.02167 -69.94653l0 0c21.45813 50.039917 -34.071472 100.29364 -125.02167 113.1434l0 21.59842z" fill-rule="evenodd"/><path fill="#5e838b" d="m1003.6667 242.0105l0 0c0 -52.216995 -77.35956 -94.54724 -172.78741 -94.54724l0 -43.196854l0 0c95.42786 0 172.78741 42.330246 172.78741 94.54724z" fill-rule="evenodd"/><path fill="#000000" fill-opacity="0.0" d="m1003.6667 242.0105l0 0c0 -52.216995 -77.35956 -94.54724 -172.78741 -94.54724l0 -43.196854l0 0c95.42786 0 172.78741 42.330246 172.78741 94.54724l0 43.196854l0 0c0 43.113373 -53.301758 80.76663 -129.59058 91.54498l0 21.59842l-43.19684 -40.19458l43.19684 -46.199127l0 21.59842l0 0c62.194763 -8.787079 110.34796 -35.7276 125.02167 -69.94653" fill-rule="evenodd"/><path stroke="#134f5c" stroke-width="1.0" stroke-linejoin="round" stroke-linecap="butt" d="m1003.6667 242.0105l0 0c0 -52.216995 -77.35956 -94.54724 -172.78741 -94.54724l0 -43.196854l0 0c95.42786 0 172.78741 42.330246 172.78741 94.54724l0 43.196854l0 0c0 43.113373 -53.301758 80.76663 -129.59058 91.54498l0 21.59842l-43.19684 -40.19458l43.19684 -46.199127l0 21.59842l0 0c62.194763 -8.787079 110.34796 -35.7276 125.02167 -69.94653" fill-rule="evenodd"/><path fill="#d9ead3" d="m135.09186 251.2979l692.9764 0l0 134.89763l-692.9764 0z" fill-rule="evenodd"/><path stroke="#6aa84f" stroke-width="4.0" stroke-linejoin="round" stroke-linecap="butt" d="m135.09186 251.2979l692.9764 0l0 134.89763l-692.9764 0z" fill-rule="evenodd"/><path fill="#000000" fill-opacity="0.0" d="m151.81102 289.1929l641.16534 0l0 87.90552l-641.16534 0z" fill-rule="evenodd"/><path fill="#38761d" d="m172.81102 308.1304l0 -0.4375q0 -0.859375 3.5625 -0.859375q1.796875 0 1.796875 0.65625q0 0.265625 -0.265625 0.546875q-1.265625 1.71875 -5.390625 8.765625l4.125 0.03125q1.375 0 2.5 -1.109375q0.5625 -0.59375 1.015625 -1.109375q0.453125 -0.515625 1.015625 -1.484375q0.578125 -0.96875 0.90625 -1.53125q0.46875 -0.84375 1.625 -3.203125q0 -0.171875 0.25 -0.421875q0.25 -0.25 0.59375 -0.421875q0.359375 -0.1875 1.09375 -0.3125q0.734375 -0.140625 1.734375 -0.140625q1.0 0 1.0 0.4375q0 0.1875 -0.15625 0.4375q-0.140625 0.25 -1.734375 2.6875q-1.578125 2.4375 -3.1875 5.0625q-1.59375 2.609375 -3.375 5.671875q-1.78125 3.0625 -2.90625 5.59375q-1.109375 2.53125 -1.109375 3.703125q-0.203125 0.5625 -0.828125 0.5625q-1.828125 0 -2.53125 -0.296875q-0.703125 -0.296875 -0.703125 -0.90625q0 -1.03125 2.21875 -4.828125q2.21875 -3.796875 2.21875 -4.609375q0 -0.8125 -0.671875 -1.21875q-0.671875 -0.40625 -2.234375 -0.40625q-1.5625 0 -2.171875 0.03125q-1.125 1.84375 -2.59375 4.71875q-1.46875 2.859375 -2.46875 4.6875q-1.0 1.828125 -1.59375 2.296875q-1.234375 0.9375 -3.03125 0.9375q-1.03125 0 -1.03125 -0.53125q0 -0.296875 0.875 -1.78125q0.890625 -1.484375 2.84375 -4.671875q1.96875 -3.1875 3.40625 -5.578125l-2.03125 0.09375q-0.5 0 -0.5 -0.265625q0 -0.5625 0.71875 -1.125q0.71875 -0.578125 1.171875 -0.734375q0.46875 -0.171875 1.9375 -0.234375q1.234375 -2.109375 3.171875 -5.84375q0.734375 -1.59375 0.734375 -2.859375zm21.828354 11.0625l-2.828125 -0.09375q-2.109375 0 -3.234375 1.359375q-0.796875 1.0 -2.125 3.265625q-1.3125 2.265625 -1.3125 3.609375q0 1.21875 2.4375 1.21875q1.5 0 3.203125 -0.5625q3.421875 -1.125 5.421875 -4.328125q0.234375 -0.296875 0.796875 -0.296875q0.578125 0 0.578125 0.65625q0 0.640625 -1.078125 2.703125q-1.0625 2.0625 -1.890625 3.109375q-0.4375 0.53125 -1.6875 0.59375q-1.25 0.0625 -3.8125 0.0625l-3.265625 0l-1.90625 -0.03125l-0.890625 -0.0625q-0.03125 0 -0.234375 0q-0.203125 0 -0.5 0.296875q-1.109375 0.96875 -3.140625 0.96875q-0.96875 0 -0.96875 -0.4375l0 -0.09375q0 -0.375 2.3125 -4.359375q2.328125 -3.984375 5.15625 -8.875q2.84375 -4.90625 3.640625 -6.71875q0.796875 -1.8125 0.796875 -3.109375l0 -0.375q0 -0.5625 7.09375 -0.5625q2.34375 0 4.0625 0.0625q0.5 -0.5625 2.578125 -0.5625q0.859375 0 0.859375 0.4375q0 0.765625 -1.515625 3.078125q-1.515625 2.3125 -2.640625 3.15625q-0.375 0.296875 -0.9375 0.296875q-0.5625 0 -0.5625 -0.234375q0 -0.109375 0.09375 -0.265625q0.53125 -1.03125 0.53125 -2.34375q0 -1.828125 -2.53125 -1.828125q-1.53125 0 -2.421875 0.8125q-0.875 0.796875 -1.75 2.234375q-0.859375 1.421875 -1.28125 2.453125q-0.40625 1.03125 -0.40625 1.296875q0 0.796875 0.78125 0.984375q0.78125 0.1875 3.109375 0.1875l2.46875 -0.09375q0.328125 0 0.328125 0.25q0 0.25 -0.359375 0.828125q-0.34375 0.578125 -0.703125 0.8125q-0.734375 0.5 -2.265625 0.5zm7.1606293 11.234375l-0.46875 -0.03125q-0.453125 0 -0.6875 0.296875q-1.140625 0.96875 -3.078125 0.96875q-1.0 0 -1.0 -0.4375l0 -0.09375q0 -0.375 2.3125 -4.359375q2.328125 -3.984375 5.140625 -8.875q2.8125 -4.90625 3.625 -6.734375q0.828125 -1.828125 0.828125 -3.03125l0 -0.4375q0 -0.859375 3.5625 -0.859375q1.796875 0 1.796875 0.65625q0 0.265625 -0.265625 0.546875q-2.65625 4.328125 -7.0625 12.359375l-0.46875 0.828125q-0.46875 0.84375 -0.671875 1.1875q-0.1875 0.34375 -0.609375 1.203125q-0.421875 0.84375 -0.609375 1.375q-0.578125 1.5 -0.578125 2.34375q0 1.21875 2.203125 1.21875l0.234375 0q1.359375 0 3.0 -0.5625q3.203125 -1.125 5.203125 -4.328125q0.125 -0.296875 0.734375 -0.296875q0.625 0 0.625 0.53125q0 0.796875 -1.0625 2.875q-1.0625 2.0625 -1.9375 3.0625q-0.421875 0.59375 -1.65625 0.59375q-1.234375 0.0625 -5.34375 0.0625l-3.765625 -0.0625zm17.430573 0l-0.46875 -0.03125q-0.453125 0 -0.6875 0.296875q-1.140625 0.96875 -3.078125 0.96875q-1.0 0 -1.0 -0.4375l0 -0.09375q0 -0.375 2.3125 -4.359375q2.328125 -3.984375 5.140625 -8.875q2.8125 -4.90625 3.625 -6.734375q0.828125 -1.828125 0.828125 -3.03125l0 -0.4375q0 -0.859375 3.5625 -0.859375q1.796875 0 1.796875 0.65625q0 0.265625 -0.265625 0.546875q-2.65625 4.328125 -7.0625 12.359375l-0.46875 0.828125q-0.46875 0.84375 -0.671875 1.1875q-0.1875 0.34375 -0.609375 1.203125q-0.421875 0.84375 -0.609375 1.375q-0.578125 1.5 -0.578125 2.34375q0 1.21875 2.203125 1.21875l0.234375 0q1.359375 0 3.0 -0.5625q3.203125 -1.125 5.203125 -4.328125q0.125 -0.296875 0.734375 -0.296875q0.625 0 0.625 0.53125q0 0.796875 -1.0625 2.875q-1.0625 2.0625 -1.9375 3.0625q-0.421875 0.59375 -1.65625 0.59375q-1.234375 0.0625 -5.34375 0.0625l-3.765625 -0.0625zm36.69307 -18.203125q0 1.875 -0.75 4.28125q-0.75 2.390625 -2.21875 4.890625q-1.453125 2.5 -3.375 4.625q-1.921875 2.109375 -4.546875 3.46875q-2.609375 1.34375 -5.390625 1.34375q-2.78125 0 -4.375 -1.546875q-1.59375 -1.5625 -1.59375 -4.296875q0 -1.859375 0.734375 -4.25q0.75 -2.40625 2.21875 -4.90625q1.46875 -2.5 3.375 -4.59375q1.921875 -2.109375 4.53125 -3.453125q2.625 -1.359375 5.40625 -1.359375q2.796875 0 4.390625 1.53125q1.59375 1.53125 1.59375 4.265625zm-3.921875 -0.296875q0 -3.671875 -2.671875 -3.671875q-2.234375 0 -4.984375 2.84375q-2.75 2.828125 -4.671875 6.84375q-1.90625 4.015625 -1.90625 7.1875q0 3.65625 2.671875 3.65625q2.1875 0 4.953125 -2.828125q2.765625 -2.828125 4.6875 -6.84375q1.921875 -4.015625 1.921875 -7.1875zm18.38974 -3.859375l-0.03125 -0.734375q0 -0.90625 3.09375 -0.90625q1.9375 0 1.9375 0.96875q0 0.171875 -0.0625 0.234375q-0.234375 1.296875 -2.640625 8.296875q-2.390625 7.0 -2.390625 7.71875q0 0.71875 0.65625 0.71875q0.5 0 0.765625 -0.265625q0.46875 -0.46875 1.171875 -1.171875q0.703125 -0.703125 3.828125 -5.046875q3.140625 -4.34375 5.03125 -7.515625q0.640625 -1.265625 4.203125 -1.265625q0.90625 0 0.90625 0.5625l-0.234375 0.640625q-1.0 2.03125 -2.703125 7.171875q-1.703125 5.125 -1.703125 6.015625q0 0.875 0.671875 0.875q0.5 0 0.765625 -0.265625q0.46875 -0.46875 0.9375 -0.9375q1.234375 -1.234375 5.40625 -7.046875q4.1875 -5.8125 5.65625 -8.6875q0.359375 -0.734375 0.828125 -0.96875q0.84375 -0.390625 2.9375 -0.46875l0.671875 0q1.734375 0 1.734375 0.578125q0 0.234375 -0.3125 0.53125q-3.265625 3.09375 -9.578125 10.515625q-6.3125 7.40625 -8.578125 10.71875q-0.46875 0.6875 -0.734375 1.0q-0.265625 0.296875 -0.875 0.6875q-1.125 0.734375 -3.953125 0.734375q-1.640625 0 -1.640625 -0.796875l0.109375 -0.359375q0.1875 -0.640625 0.71875 -2.140625q0.546875 -1.5 0.90625 -2.53125q0.375 -1.03125 0.796875 -2.265625q0.84375 -2.5 0.84375 -3.0625q0 -0.578125 -0.5 -0.578125q-0.546875 0 -1.203125 0.8125q-2.640625 3.125 -6.40625 8.5q-0.625 0.890625 -1.0 1.28125q-0.359375 0.375 -1.53125 0.75q-1.171875 0.390625 -2.921875 0.390625q-1.734375 0 -1.734375 -0.796875l0.09375 -0.359375q1.171875 -3.375 3.109375 -9.703125q1.953125 -6.328125 2.65625 -9.296875q0.296875 -1.703125 0.296875 -2.53125zm44.68979 4.15625q0 1.875 -0.75 4.28125q-0.75 2.390625 -2.21875 4.890625q-1.453125 2.5 -3.375 4.625q-1.921875 2.109375 -4.546875 3.46875q-2.609375 1.34375 -5.390625 1.34375q-2.78125 0 -4.375 -1.546875q-1.59375 -1.5625 -1.59375 -4.296875q0 -1.859375 0.734375 -4.25q0.75 -2.40625 2.21875 -4.90625q1.46875 -2.5 3.375 -4.59375q1.921875 -2.109375 4.53125 -3.453125q2.625 -1.359375 5.40625 -1.359375q2.796875 0 4.390625 1.53125q1.59375 1.53125 1.59375 4.265625zm-3.921875 -0.296875q0 -3.671875 -2.671875 -3.671875q-2.234375 0 -4.984375 2.84375q-2.75 2.828125 -4.671875 6.84375q-1.90625 4.015625 -1.90625 7.1875q0 3.65625 2.671875 3.65625q2.1875 0 4.953125 -2.828125q2.765625 -2.828125 4.6875 -6.84375q1.921875 -4.015625 1.921875 -7.1875zm15.157257 17.265625l0.0625 1.0q0 0.53125 -1.59375 0.53125q-2.796875 0 -2.796875 -1.0625q0 -1.0625 1.484375 -4.59375q1.484375 -3.546875 1.484375 -4.40625q0 -1.765625 -2.171875 -1.765625l-0.53125 0.03125q-0.40625 0 -0.40625 -0.296875q0 -0.640625 0.484375 -1.28125q0.484375 -0.65625 1.21875 -0.65625q3.03125 0 5.421875 -1.796875q2.40625 -1.796875 2.40625 -3.796875q0 -1.4375 -0.890625 -2.0q-0.875 -0.5625 -2.40625 -0.5625q-1.53125 0 -2.328125 0.921875q-1.96875 2.46875 -6.328125 10.328125q-4.34375 7.84375 -4.875 9.640625q-0.296875 0.828125 -1.546875 1.21875q-1.25 0.40625 -2.4375 0.40625q-1.171875 0 -1.171875 -0.453125l0 -0.078125q0 -0.359375 2.296875 -4.25q2.296875 -3.90625 5.078125 -8.6875q2.78125 -4.78125 3.59375 -6.609375q0.828125 -1.84375 0.828125 -3.109375l0 -0.328125q0 -0.90625 5.0625 -0.90625q5.4375 0 7.15625 1.09375q0.734375 0.46875 1.25 1.375q0.515625 0.890625 0.515625 2.296875q0 1.40625 -1.140625 2.84375q-1.125 1.421875 -2.40625 2.109375q-1.28125 0.671875 -2.546875 0.984375q-1.265625 0.296875 -1.90625 0.5q-0.625 0.1875 -0.625 0.625q0 0.265625 0.484375 0.65625q0.484375 0.375 0.984375 0.921875q0.5 0.53125 0.5 1.125q0 0.59375 -1.109375 3.453125q-1.09375 2.84375 -1.09375 4.578125zm6.2960815 1.234375l-0.46875 -0.03125q-0.453125 0 -0.6875 0.296875q-1.140625 0.96875 -3.078125 0.96875q-1.0 0 -1.0 -0.4375l0 -0.09375q0 -0.375 2.3125 -4.359375q2.328125 -3.984375 5.140625 -8.875q2.8125 -4.90625 3.625 -6.734375q0.828125 -1.828125 0.828125 -3.03125l0 -0.4375q0 -0.859375 3.5625 -0.859375q1.796875 0 1.796875 0.65625q0 0.265625 -0.265625 0.546875q-2.65625 4.328125 -7.0625 12.359375l-0.46875 0.828125q-0.46875 0.84375 -0.671875 1.1875q-0.1875 0.34375 -0.609375 1.203125q-0.421875 0.84375 -0.609375 1.375q-0.578125 1.5 -0.578125 2.34375q0 1.21875 2.203125 1.21875l0.234375 0q1.359375 0 3.0 -0.5625q3.203125 -1.125 5.203125 -4.328125q0.125 -0.296875 0.734375 -0.296875q0.625 0 0.625 0.53125q0 0.796875 -1.0625 2.875q-1.0625 2.0625 -1.9375 3.0625q-0.421875 0.59375 -1.65625 0.59375q-1.234375 0.0625 -5.34375 0.0625l-3.765625 -0.0625zm20.836823 0.53125q-1.765625 0 -2.265625 -0.125q-0.5 -0.109375 -0.859375 -0.203125q-0.34375 -0.078125 -0.453125 -0.109375q-0.09375 -0.03125 -0.296875 -0.03125q-0.390625 0 -0.71875 0.203125q-1.171875 0.96875 -3.078125 0.96875q-1.0 0 -1.0 -0.453125q0 -0.453125 2.3125 -4.453125q2.328125 -4.0 5.140625 -8.890625q2.8125 -4.90625 3.625 -6.734375q0.828125 -1.828125 0.828125 -3.171875l0 -0.265625q0 -0.96875 5.5625 -0.96875q8.265625 0 8.265625 5.640625q0 4.0625 -2.765625 8.96875q-1.4375 2.5625 -3.375 4.703125q-1.921875 2.125 -4.8125 3.53125q-2.875 1.390625 -6.109375 1.390625zm10.96875 -11.40625q1.234375 -2.390625 1.875 -4.46875q0.65625 -2.09375 0.65625 -3.5q0 -1.421875 -0.828125 -2.15625q-0.8125 -0.734375 -2.75 -0.734375q-1.328125 0 -2.125 0.9375q-2.09375 2.625 -6.0625 9.71875q-3.96875 7.078125 -3.96875 8.28125q0 1.328125 2.828125 1.328125q2.0 0 4.03125 -1.390625q2.03125 -1.40625 3.5625 -3.515625q1.546875 -2.125 2.78125 -4.5z" fill-rule="nonzero"/><path fill="#38761d" d="m570.10504 307.98978l-0.0625 -0.6875q0 -0.875 3.125 -0.875q1.90625 0 1.90625 1.0q0 0.640625 -2.46875 8.0625q-2.46875 7.40625 -2.46875 8.140625q0 0.734375 0.671875 0.734375q0.53125 0 0.796875 -0.265625l0.328125 -0.34375q0.078125 -0.0625 0.265625 -0.28125q0.203125 -0.21875 0.3125 -0.3125q1.328125 -1.328125 5.640625 -7.109375q4.3125 -5.796875 5.75 -8.625q0.375 -0.734375 0.84375 -0.96875q0.828125 -0.390625 2.921875 -0.46875l0.671875 0q1.734375 0 1.734375 0.578125q0 0.234375 -0.296875 0.53125q-3.203125 3.09375 -10.125 10.9375q-6.90625 7.828125 -8.34375 10.296875q-0.5 0.859375 -0.9375 1.296875q-0.4375 0.421875 -1.609375 0.765625q-1.15625 0.359375 -2.90625 0.359375q-1.75 0 -1.75 -0.796875l0.109375 -0.359375q1.0625 -3.109375 2.953125 -9.515625q1.90625 -6.421875 2.609375 -9.484375q0.328125 -2.0 0.328125 -2.609375zm19.996887 0l-0.0625 -0.6875q0 -0.875 3.125 -0.875q1.90625 0 1.90625 1.0q0 0.640625 -2.46875 8.0625q-2.46875 7.40625 -2.46875 8.140625q0 0.734375 0.671875 0.734375q0.53125 0 0.796875 -0.265625l0.328125 -0.34375q0.078125 -0.0625 0.265625 -0.28125q0.203125 -0.21875 0.3125 -0.3125q1.328125 -1.328125 5.640625 -7.109375q4.3125 -5.796875 5.75 -8.625q0.375 -0.734375 0.84375 -0.96875q0.828125 -0.390625 2.921875 -0.46875l0.671875 0q1.734375 0 1.734375 0.578125q0 0.234375 -0.296875 0.53125q-3.203125 3.09375 -10.125 10.9375q-6.90625 7.828125 -8.34375 10.296875q-0.5 0.859375 -0.9375 1.296875q-0.4375 0.421875 -1.609375 0.765625q-1.15625 0.359375 -2.90625 0.359375q-1.75 0 -1.75 -0.796875l0.109375 -0.359375q1.0625 -3.109375 2.953125 -9.515625q1.90625 -6.421875 2.609375 -9.484375q0.328125 -2.0 0.328125 -2.609375zm11.028992 22.4375l-0.46875 -0.03125q-0.453125 0 -0.6875 0.296875q-1.140625 0.96875 -3.078125 0.96875q-1.0 0 -1.0 -0.4375l0 -0.09375q0 -0.375 2.3125 -4.359375q2.328125 -3.984375 5.140625 -8.875q2.8125 -4.90625 3.625 -6.734375q0.828125 -1.828125 0.828125 -3.03125l0 -0.4375q0 -0.859375 3.5625 -0.859375q1.796875 0 1.796875 0.65625q0 0.265625 -0.265625 0.546875q-2.65625 4.328125 -7.0625 12.359375l-0.46875 0.828125q-0.46875 0.84375 -0.671875 1.1875q-0.1875 0.34375 -0.609375 1.203125q-0.421875 0.84375 -0.609375 1.375q-0.578125 1.5 -0.578125 2.34375q0 1.21875 2.203125 1.21875l0.234375 0q1.359375 0 3.0 -0.5625q3.203125 -1.125 5.203125 -4.328125q0.125 -0.296875 0.734375 -0.296875q0.625 0 0.625 0.53125q0 0.796875 -1.0625 2.875q-1.0625 2.0625 -1.9375 3.0625q-0.421875 0.59375 -1.65625 0.59375q-1.234375 0.0625 -5.34375 0.0625l-3.765625 -0.0625zm18.442078 -17.359375l-0.046875 -3.53125q0 -1.40625 -0.203125 -1.796875q-0.1875 -0.40625 -0.1875 -0.671875q0 -0.671875 2.609375 -0.671875q2.625 0 2.625 1.234375q0 0.828125 -0.5625 4.015625q-0.546875 3.1875 -0.578125 4.375q-0.03125 1.171875 0.640625 1.171875q0.390625 0 0.890625 -0.4375q2.03125 -1.796875 4.5625 -4.546875q2.546875 -2.75 3.375 -3.828125q0.828125 -1.078125 1.40625 -1.3125q1.1875 -0.46875 2.859375 -0.53125l0.5625 0q1.90625 0 1.90625 0.59375q0 0.328125 -0.5625 0.671875q-2.140625 1.234375 -7.359375 5.59375q-5.21875 4.359375 -7.609375 6.9375q-0.96875 1.03125 -3.265625 5.3125q-2.296875 4.28125 -3.140625 4.84375q-0.765625 0.671875 -2.265625 0.671875q-1.5 0 -1.5 -0.5625l0 -0.109375q0 -0.234375 1.109375 -2.0625q3.5625 -5.828125 4.0 -7.328125q0.734375 -2.40625 0.734375 -8.03125zm14.659546 17.953125q-2.40625 0 -3.984375 -1.125q-1.578125 -1.140625 -1.578125 -3.203125q0 -1.328125 1.3125 -3.9375q1.3125 -2.625 3.59375 -6.421875q2.28125 -3.796875 3.265625 -5.75q0.984375 -1.953125 0.984375 -3.1875q0 -0.328125 0.203125 -0.53125q0.46875 -0.46875 3.203125 -0.46875q1.796875 0 1.796875 0.703125q0 0.328125 -0.234375 0.5625q-1.828125 2.5625 -5.640625 9.140625q-3.796875 6.5625 -3.796875 8.359375q0 2.625 2.40625 2.625q2.171875 0 3.359375 -1.125q0.90625 -0.90625 1.5 -1.875q1.34375 -2.03125 3.46875 -6.375q2.140625 -4.34375 3.8125 -7.71875q1.6875 -3.390625 2.375 -3.9375q0.6875 -0.5625 2.390625 -0.5625q1.71875 0 1.71875 0.40625q0 0.265625 -0.578125 0.96875q-0.578125 0.6875 -1.71875 2.421875q-1.125 1.734375 -2.609375 4.140625q-1.484375 2.390625 -2.59375 4.234375q-1.09375 1.828125 -2.578125 4.34375q-1.484375 2.515625 -1.75 2.953125q-3.125 5.359375 -8.328125 5.359375zm25.090271 -9.234375q-0.234375 0 -0.296875 -0.296875q0 -0.5625 0.796875 -1.296875q0.796875 -0.734375 1.28125 -0.921875q0.484375 -0.203125 3.21875 -0.28125l0.46875 -0.53125q10.125 -11.6875 14.0625 -11.6875q0.328125 -0.046875 0.765625 -0.046875q2.296875 0 2.296875 1.109375q0 0.203125 -0.421875 1.0625l-1.5 3.0q-1.078125 2.125 -2.078125 4.328125q-5.390625 11.90625 -6.265625 15.609375q0 0.265625 -0.6875 0.265625q-0.671875 0 -1.640625 -0.75q-0.96875 -0.75 -0.96875 -1.328125q0 -1.03125 1.625 -3.890625q1.640625 -2.875 1.640625 -3.734375q0 -1.171875 -4.53125 -1.171875q-0.65625 0 -2.0625 0.0625l-1.265625 1.671875q-2.328125 3.140625 -4.46875 7.765625q-0.359375 0.828125 -2.234375 0.828125q-1.859375 0 -1.859375 -0.53125q0 -0.359375 2.078125 -3.203125q2.078125 -2.859375 4.953125 -6.328125q-0.5 0.078125 -1.265625 0.140625q-0.765625 0.0625 -1.1875 0.109375q-0.421875 0.046875 -0.453125 0.046875zm13.828125 -4.28125q1.3125 -1.578125 1.953125 -3.171875q0.65625 -1.609375 0.65625 -2.171875q0 -0.5625 -0.5625 -0.5625q-1.0 0 -3.3125 2.125q-2.296875 2.109375 -5.0 5.265625l3.640625 0.078125q1.328125 0 2.625 -1.5625zm9.503235 13.484375q-5.5 0 -5.5 -5.59375q0 -1.640625 0.78125 -3.96875q0.78125 -2.328125 2.3125 -4.84375q1.546875 -2.515625 3.46875 -4.6875q1.9375 -2.171875 4.53125 -3.5625q2.609375 -1.40625 5.234375 -1.40625q1.234375 0 1.90625 0.28125q0.671875 0.28125 0.71875 0.28125q0.046875 0 0.828125 -0.328125q0.78125 -0.328125 1.859375 -0.328125q1.09375 0 1.09375 0.625q0 0.609375 -1.28125 2.671875q-1.28125 2.0625 -3.09375 3.96875q-1.796875 1.890625 -2.859375 1.890625q-0.140625 0.03125 -0.328125 0.03125q-0.640625 0 -0.640625 -0.359375q0 -0.0625 0.46875 -0.75q0.46875 -0.6875 0.9375 -1.828125q0.46875 -1.15625 0.46875 -1.84375q0 -0.703125 -0.078125 -1.0q-0.0625 -0.3125 -0.453125 -0.703125q-0.375 -0.40625 -1.046875 -0.40625q-1.796875 0 -4.28125 2.734375q-2.484375 2.734375 -4.265625 6.421875q-1.78125 3.671875 -1.78125 6.234375q0 3.078125 2.796875 3.078125q3.34375 0 6.46875 -4.3125q0.140625 -0.265625 0.28125 -0.265625q0.15625 0 0.234375 0.03125q0.078125 0.015625 0.234375 0.203125q0.15625 0.171875 0.15625 0.671875q0 0.5 -0.6875 1.671875q-0.6875 1.15625 -1.828125 2.390625q-1.125 1.234375 -2.921875 2.125q-1.796875 0.875 -3.734375 0.875zm12.971313 -2.46875q0 0.671875 0.078125 1.015625q0.078125 0.328125 0.078125 0.484375q0 0.765625 -3.25 0.765625q-3.25 0 -3.25 -0.765625l0.203125 -0.390625q1.140625 -0.671875 4.53125 -6.1875q3.40625 -5.515625 6.90625 -12.453125q0.734375 -1.453125 0.734375 -2.765625l0 -0.53125q0 -0.859375 3.5625 -0.859375q1.796875 0 1.796875 0.65625q0 0.265625 -0.265625 0.546875q-2.265625 2.921875 -6.703125 10.96875q-4.421875 8.046875 -4.421875 9.515625zm7.1226807 1.90625l-0.46875 -0.03125q-0.453125 0 -0.6875 0.296875q-1.140625 0.96875 -3.078125 0.96875q-1.0 0 -1.0 -0.4375l0 -0.09375q0 -0.375 2.3125 -4.359375q2.328125 -3.984375 5.140625 -8.875q2.8125 -4.90625 3.625 -6.734375q0.828125 -1.828125 0.828125 -3.03125l0 -0.4375q0 -0.859375 3.5625 -0.859375q1.796875 0 1.796875 0.65625q0 0.265625 -0.265625 0.546875q-2.65625 4.328125 -7.0625 12.359375l-0.46875 0.828125q-0.46875 0.84375 -0.671875 1.1875q-0.1875 0.34375 -0.609375 1.203125q-0.421875 0.84375 -0.609375 1.375q-0.578125 1.5 -0.578125 2.34375q0 1.21875 2.203125 1.21875l0.234375 0q1.359375 0 3.0 -0.5625q3.203125 -1.125 5.203125 -4.328125q0.125 -0.296875 0.734375 -0.296875q0.625 0 0.625 0.53125q0 0.796875 -1.0625 2.875q-1.0625 2.0625 -1.9375 3.0625q-0.421875 0.59375 -1.65625 0.59375q-1.234375 0.0625 -5.34375 0.0625l-3.765625 -0.0625zm21.805542 0.40625q-2.796875 0 -4.40625 -1.546875q-1.59375 -1.5625 -1.59375 -4.296875q0 -1.859375 0.75 -4.25q0.75 -2.40625 2.203125 -4.90625q1.46875 -2.5 3.390625 -4.59375q1.921875 -2.109375 4.53125 -3.453125q2.625 -1.359375 5.40625 -1.359375q2.78125 0 4.375 1.53125q1.609375 1.53125 1.609375 4.578125q0 3.03125 -2.3125 7.546875q-2.296875 4.515625 -5.625 7.046875q-1.328125 1.03125 -1.328125 1.625q0 0.171875 0.125 0.59375q0.140625 0.40625 0.140625 0.84375q0 1.140625 -0.796875 2.359375q-0.78125 1.234375 -1.703125 1.234375l-0.109375 -0.09375q-0.0625 -0.203125 -0.125 -0.5625q-0.375 -2.609375 -1.796875 -2.609375l-0.4375 0.078125q-0.90625 0.234375 -2.296875 0.234375zm4.859375 -10.046875q0.234375 0 0.296875 0.34375q0 0.125 0.109375 1.03125q0.125 0.90625 0.234375 1.359375q0.125 0.4375 0.265625 0.765625q0.296875 0.78125 0.765625 0.78125q0.703125 0 2.078125 -2.140625q1.390625 -2.140625 2.546875 -5.34375q1.171875 -3.21875 1.171875 -5.65625q0 -3.671875 -2.671875 -3.671875q-2.1875 0 -4.96875 2.84375q-2.765625 2.828125 -4.6875 6.84375q-1.90625 4.015625 -1.90625 7.1875q0 0.703125 0.109375 1.390625q0.125 0.671875 0.765625 1.46875q0.65625 0.796875 1.796875 0.796875q2.03125 0 2.03125 -0.765625q0 -0.328125 -0.375 -0.953125q-0.359375 -0.640625 -0.359375 -1.5q0 -1.609375 1.078125 -3.1875q1.09375 -1.59375 1.71875 -1.59375z" fill-rule="nonzero"/><defs><radialGradient id="p.1" gradientUnits="userSpaceOnUse" gradientTransform="matrix(8.329870917839845 0.0 0.0 8.329870917839845 0.0 0.0)" spreadMethod="pad" cx="55.61964483147168" cy="38.26550522859296" fx="55.61964483147168" fy="38.26550522859296" r="8.32987117767334"><stop offset="0.0" stop-color="#dcecd5"/><stop offset="1.0" stop-color="#93bc81"/></radialGradient></defs><path fill="url(#p.1)" d="m397.36746 307.94357l110.2677 0l0 -10.803162l21.606293 21.606293l-21.606293 21.606323l0 -10.803162l-110.2677 0z" fill-rule="evenodd"/><path stroke="#38761d" stroke-width="1.0" stroke-linejoin="round" stroke-linecap="butt" d="m397.36746 307.94357l110.2677 0l0 -10.803162l21.606293 21.606293l-21.606293 21.606323l0 -10.803162l-110.2677 0z" fill-rule="evenodd"/><path fill="#c27ba0" d="m96.13648 96.86868l0 0c0 10.698044 9.917908 20.29245 24.952728 24.138832l0 -5.109108l14.007896 15.848785l-14.007896 12.389099l0 -5.1091003l0 0c-15.034821 -3.8463745 -24.952728 -13.440781 -24.952728 -24.138832z" fill-rule="evenodd"/><path fill="#9b627f" d="m135.0971 89.019684l0 0c-16.283623 0 -30.8497 6.7239685 -36.521156 16.858833l0 0c-4.4433136 -7.940201 -2.7504272 -16.82174 4.5319977 -23.776627c7.2824326 -6.9548798 19.231697 -11.101891 31.989159 -11.101891z" fill-rule="evenodd"/><path fill="#000000" fill-opacity="0.0" d="m96.13648 96.86868l0 0c0 10.698044 9.917908 20.29245 24.952728 24.138832l0 -5.109108l14.007896 15.848785l-14.007896 12.389099l0 -5.1091003l0 0c-15.034821 -3.8463745 -24.952728 -13.440781 -24.952728 -24.138832l0 -18.019676l0 0c0 -14.2868805 17.443268 -25.868683 38.960625 -25.868683l0 18.019684l0 0c-16.283623 0 -30.8497 6.7239685 -36.521156 16.858833" fill-rule="evenodd"/><path stroke="#741b47" stroke-width="1.0" stroke-linejoin="round" stroke-linecap="butt" d="m96.13648 96.86868l0 0c0 10.698044 9.917908 20.29245 24.952728 24.138832l0 -5.109108l14.007896 15.848785l-14.007896 12.389099l0 -5.1091003l0 0c-15.034821 -3.8463745 -24.952728 -13.440781 -24.952728 -24.138832l0 -18.019676l0 0c0 -14.2868805 17.443268 -25.868683 38.960625 -25.868683l0 18.019684l0 0c-16.283623 0 -30.8497 6.7239685 -36.521156 16.858833" fill-rule="evenodd"/><path fill="#d5a6bd" d="m5.2362204 56.44882l85.00787 0l0 74.866135l-85.00787 0z" fill-rule="evenodd"/><path stroke="#741b47" stroke-width="3.0" stroke-linejoin="round" stroke-linecap="butt" d="m5.2362204 56.44882l85.00787 0l0 74.866135l-85.00787 0z" fill-rule="evenodd"/><path fill="#000000" fill-opacity="0.0" d="m1.488189 71.0l92.50394 0l0 52.0l-92.50394 0z" fill-rule="evenodd"/><path fill="#a64d79" d="m15.863189 87.530624q-0.203125 0.25 -0.46875 0.25q-0.265625 0 -0.4375 -0.3125q-0.28125 -0.59375 -0.28125 -1.34375q0 -2.328125 1.765626 -2.328125q0.96875 0 0.96875 0.765625q0 0.328125 -0.21875 0.671875l-1.328126 2.296875zm2.421876 0q-0.203125 0.25 -0.46875 0.25q-0.265625 0 -0.453125 -0.3125q-0.25 -0.59375 -0.25 -1.34375q0 -2.328125 1.75 -2.328125q0.96875 0 0.96875 0.765625q0 0.328125 -0.21875 0.671875l-1.328125 2.296875zm10.953812 -0.59375q0 1.015625 -0.40625 2.3125q-0.390625 1.296875 -1.171875 2.640625q-0.78125 1.328125 -1.828125 2.46875q-1.03125 1.140625 -2.453125 1.875q-1.421875 0.734375 -2.984375 0.734375q-1.5625 0 -2.5 -0.90625q-0.9375 -0.90625 -0.9375 -2.484375q0 -1.03125 0.40625 -2.3125q0.40625 -1.296875 1.171875 -2.625q0.78125 -1.34375 1.8125 -2.46875q1.046875 -1.140625 2.46875 -1.875q1.421875 -0.734375 2.984375 -0.734375q1.5625 0 2.5 0.90625q0.9375 0.890625 0.9375 2.46875zm-2.75 -0.15625q0 -1.546875 -1.03125 -1.546875q-1.0 0 -2.359375 1.40625q-1.359375 1.390625 -2.328125 3.421875q-0.96875 2.015625 -0.96875 3.578125q0 1.546875 1.03125 1.546875q0.984375 0 2.34375 -1.390625q1.375 -1.390625 2.34375 -3.40625q0.96875 -2.03125 0.96875 -3.609375zm8.603348 8.96875l0.03125 0.515625q0 0.65625 -1.1875 0.65625q-1.828125 0 -1.828125 -0.765625q0 -0.78125 0.765625 -2.609375q0.78125 -1.84375 0.78125 -2.21875q0 -0.5625 -0.75 -0.5625l-0.28125 0.015625q-0.578125 0 -0.578125 -0.515625q0 -0.453125 0.328125 -0.90625q0.34375 -0.453125 0.90625 -0.453125q1.453125 0 2.578125 -0.84375q1.140625 -0.859375 1.140625 -1.703125q0 -0.546875 -0.34375 -0.765625q-0.328125 -0.21875 -0.984375 -0.21875q-0.65625 0 -0.953125 0.359375q-1.015625 1.25 -3.265625 5.3125q-2.234375 4.046875 -2.5 4.9375q-0.21875 0.609375 -0.984375 0.859375q-0.75 0.25 -1.578125 0.25q-0.828125 0 -0.828125 -0.609375l0 -0.03125q0 -0.28125 1.21875 -2.359375q1.21875 -2.078125 2.65625 -4.546875q1.453125 -2.484375 1.859375 -3.390625q0.40625 -0.90625 0.40625 -1.484375l0 -0.171875q0 -0.828125 2.984375 -0.828125q2.9375 0 3.921875 0.640625q0.453125 0.28125 0.765625 0.828125q0.328125 0.546875 0.328125 1.390625q0 0.828125 -0.65625 1.65625q-0.65625 0.8125 -1.375 1.203125q-0.71875 0.390625 -1.40625 0.546875q-0.671875 0.15625 -0.890625 0.203125q-0.21875 0.046875 -0.171875 0.046875q-0.078125 0 0.15625 0.140625q0.234375 0.125 0.546875 0.46875q0.328125 0.34375 0.328125 0.75q0 0.40625 -0.578125 1.890625q-0.5625 1.484375 -0.5625 2.3125zm2.341751 -3.46875q-0.421875 0 -0.515625 -0.484375q0 -0.484375 0.484375 -0.9375q0.5 -0.46875 0.8125 -0.59375q0.3125 -0.125 1.65625 -0.171875l0.140625 -0.140625q5.359375 -6.21875 7.5625 -6.21875q0.171875 -0.015625 0.40625 -0.015625q1.5625 0 1.5625 0.9375q0 0.203125 -0.28125 0.71875l-0.765625 1.546875q-0.546875 1.109375 -1.078125 2.25q-2.78125 6.140625 -3.21875 8.0q0 0.453125 -0.59375 0.453125q-0.59375 0 -1.21875 -0.484375q-0.625 -0.484375 -0.625 -0.953125q0 -0.625 0.84375 -2.109375q0.859375 -1.5 0.859375 -1.859375q0 -0.234375 -2.0 -0.234375q-0.34375 0 -0.890625 0.03125l-0.5625 0.71875q-1.171875 1.609375 -2.265625 3.984375q-0.3125 0.625 -1.578125 0.625q-1.25 0 -1.25 -0.625q0 -0.3125 1.125 -1.84375q1.125 -1.53125 2.65625 -2.984375q0.015625 0.265625 -0.390625 0.296875q-0.390625 0.03125 -0.609375 0.0625q-0.21875 0.03125 -0.265625 0.03125zm6.9375 -2.875q0.609375 -0.734375 0.921875 -1.5q0.3125 -0.765625 0.34375 -0.890625q0.046875 -0.125 0.046875 -0.046875q-0.390625 0 -1.53125 1.046875q-1.125 1.046875 -2.03125 2.09375l1.125 0.03125q0.53125 0 1.125 -0.734375zm5.699936 6.46875q0 -0.78125 0.5625 -3.875q0.5625 -3.109375 0.5625 -3.234375q0 -0.125 0.0625 -0.125q0.078125 0 -0.171875 0.296875q-0.234375 0.28125 -0.421875 0.59375l-0.21875 0.375q-1.390625 2.25 -3.125 5.984375q-0.390625 0.828125 -0.796875 1.109375q-0.390625 0.28125 -1.203125 0.28125q-0.8125 0 -0.8125 -0.625l0 -0.046875q0 -0.328125 0.921875 -1.828125q3.375 -5.40625 4.921875 -8.546875q0.375 -0.734375 0.375 -1.28125l0 -0.28125q0 -0.25 0.15625 -0.46875q0.171875 -0.21875 0.75 -0.390625q0.59375 -0.171875 1.53125 -0.171875q1.6875 0 1.6875 0.859375q0 0.203125 -0.71875 3.40625q-0.703125 3.203125 -0.8125 3.78125q-0.109375 0.578125 -0.109375 0.359375q0.046875 0 0.203125 -0.15625q0.171875 -0.15625 0.265625 -0.328125l0.125 -0.234375q1.109375 -1.796875 1.984375 -3.578125q0.875 -1.796875 1.3125 -2.6875q0.4375 -0.890625 0.84375 -1.171875q0.546875 -0.328125 1.46875 -0.328125q0.921875 0 0.921875 0.578125l0 0.03125q0 0.234375 -0.953125 1.609375q-0.953125 1.375 -2.46875 3.78125q-1.5 2.40625 -2.609375 4.59375q-0.453125 1.046875 -0.453125 1.640625q0 0.3125 -0.15625 0.53125q-0.15625 0.21875 -0.703125 0.328125q-0.546875 0.109375 -1.0625 0.109375l-0.546875 0q-0.265625 0 -0.578125 -0.109375q-0.734375 -0.21875 -0.734375 -0.78125zm11.853424 0.875q-0.40625 0 -0.671875 -0.3125q-0.25 -0.328125 -0.328125 -0.65625l-0.046875 -0.21875q0.109375 -0.03125 0.0625 0.03125q-0.046875 0.0625 -0.109375 0.109375q-1.71875 1.359375 -3.25 1.359375q-2.15625 0 -2.15625 -2.78125q0 -0.90625 0.453125 -2.21875q0.453125 -1.3125 1.296875 -2.71875q0.859375 -1.40625 1.9375 -2.640625q1.078125 -1.234375 2.515625 -2.046875q1.453125 -0.828125 2.921875 -0.828125q0.84375 0 1.359375 0.296875q-0.015625 0 -0.015625 0q0 0 0 0q0.515625 -0.34375 1.421875 -0.34375q0.921875 0 0.921875 0.6875q0 0.515625 -0.9375 1.84375q-1.453125 2.078125 -2.515625 2.078125q-0.28125 0 -0.515625 -0.078125q-0.21875 -0.09375 -0.21875 -0.359375q0 -0.28125 0.140625 -0.59375q0.3125 -0.65625 0.3125 -1.03125q0 -0.375 -0.109375 -0.5q-0.09375 -0.140625 -0.46875 -0.140625q-0.890625 0 -2.25 1.5q-1.359375 1.484375 -2.34375 3.484375q-0.984375 1.984375 -0.984375 3.234375q0 0.765625 0.5625 0.765625q0.609375 0 1.46875 -0.6875q0.859375 -0.6875 1.40625 -1.46875q0.546875 -0.796875 0.546875 -1.0q0 -0.203125 -0.21875 -0.28125q-0.21875 -0.09375 -1.1875 -0.09375q-0.5625 0 -0.5625 -0.515625q0 -0.4375 0.4375 -0.84375q0.4375 -0.40625 0.875 -0.46875q1.265625 -0.078125 2.828125 -0.078125q1.5625 0 1.5625 0.59375q0 0.3125 -0.265625 0.78125q-0.25 0.46875 -0.40625 0.75q-0.140625 0.265625 -0.421875 0.75q-0.28125 0.484375 -0.46875 0.765625q-0.171875 0.265625 -0.53125 0.828125q-0.34375 0.5625 -0.5625 0.90625q-0.203125 0.34375 -0.5 0.921875q-0.296875 0.5625 -0.5 0.890625q-0.1875 0.328125 -0.484375 0.328125zm9.937851 -5.828125l-1.46875 -0.046875q-0.921875 0 -1.40625 0.578125q-0.40625 0.484375 -1.0625 1.609375q-0.640625 1.125 -0.640625 1.734375q0 0.28125 0.90625 0.28125q0.71875 0 1.546875 -0.28125q1.65625 -0.546875 2.640625 -2.109375q0.25 -0.3125 0.796875 -0.3125q0.5625 0 0.5625 0.5625q0 0.5625 -0.59375 1.6875q-0.578125 1.109375 -1.015625 1.6875q-0.34375 0.40625 -1.078125 0.4375q-0.71875 0.046875 -2.0625 0.046875l-1.703125 0l-1.0 -0.015625l-0.46875 -0.03125q0 0 -0.03125 0q-0.03125 0 -0.09375 0.0625q-0.671875 0.59375 -1.875 0.59375q-0.859375 0 -0.859375 -0.59375l0 -0.046875q0 -0.28125 1.21875 -2.390625q1.234375 -2.125 2.703125 -4.65625q1.46875 -2.53125 1.859375 -3.4375q0.40625 -0.90625 0.40625 -1.5l0 -0.203125q0 -0.640625 4.046875 -0.640625q1.21875 0 1.953125 0.03125q0.265625 -0.296875 1.5 -0.296875q0.8125 0 0.8125 0.578125q0 0.515625 -0.84375 1.796875q-0.828125 1.265625 -1.46875 1.734375q-0.28125 0.234375 -0.828125 0.234375q-0.53125 0 -0.53125 -0.484375q0 -0.15625 0.109375 -0.328125q0.21875 -0.421875 0.21875 -1.03125q0 -0.59375 -0.953125 -0.59375q-0.65625 0 -1.046875 0.359375q-0.390625 0.359375 -0.8125 1.0625q-0.421875 0.703125 -0.625 1.203125q-0.203125 0.484375 -0.203125 0.5625q0 0.125 0.25 0.1875q0.25 0.0625 1.40625 0.0625l1.28125 -0.0625q0.546875 0 0.546875 0.375q0 0.359375 -0.234375 0.75q-0.234375 0.375 -0.5 0.515625q-0.453125 0.328125 -1.359375 0.328125zm10.34462 -6.25q0.484375 -0.84375 1.515625 -0.84375q1.03125 0 1.03125 0.796875q0 0.796875 -1.390625 1.984375q-1.390625 1.171875 -2.03125 1.171875q-0.546875 0 -0.546875 -0.5q0 -0.125 0.625 -1.203125q0.625 -1.078125 0.796875 -1.40625zm-2.5 0q0.484375 -0.84375 1.515625 -0.84375q1.03125 0 1.03125 0.796875q0 0.796875 -1.390625 1.984375q-1.390625 1.171875 -2.03125 1.171875q-0.5625 0 -0.5625 -0.5q0 -0.140625 1.4375 -2.609375z" fill-rule="nonzero"/><defs><linearGradient id="p.2" gradientUnits="userSpaceOnUse" gradientTransform="matrix(7.211110370754842 0.0 0.0 7.211110370754842 0.0 0.0)" spreadMethod="pad" x1="4.720406196636399" y1="18.626097916317168" x2="4.720380249120602" y2="25.837208287025323"><stop offset="0.0" stop-color="#c27ba0"/><stop offset="1.0" stop-color="#741b47"/></linearGradient></defs><path fill="url(#p.2)" d="m34.03937 170.67717l7.8188972 0l0 -36.362213l15.6377945 0l0 36.362213l7.818901 0l-15.637798 15.637787z" fill-rule="evenodd"/><path stroke="#741b47" stroke-width="1.0" stroke-linejoin="round" stroke-linecap="butt" d="m34.03937 170.67717l7.8188972 0l0 -36.362213l15.6377945 0l0 36.362213l7.818901 0l-15.637798 15.637787z" fill-rule="evenodd"/><path fill="#c27ba0" d="m9.199475 192.27034l220.7874 0l0 43.2126l-220.7874 0z" fill-rule="evenodd"/><path stroke="#741b47" stroke-width="4.0" stroke-linejoin="round" stroke-linecap="butt" d="m9.199475 192.27034l220.7874 0l0 43.2126l-220.7874 0z" fill-rule="evenodd"/><path fill="#741b47" d="m32.136974 210.73415q0 1.046875 -0.421875 2.390625q-0.421875 1.34375 -1.25 2.75q-0.8125 1.390625 -1.890625 2.578125q-1.0625 1.1875 -2.53125 1.953125q-1.46875 0.75 -3.03125 0.75q-1.546875 0 -2.453125 -0.859375q-0.890625 -0.875 -0.890625 -2.40625q0 -1.046875 0.421875 -2.390625q0.421875 -1.34375 1.234375 -2.734375q0.828125 -1.40625 1.890625 -2.578125q1.078125 -1.1875 2.546875 -1.9375q1.46875 -0.75 3.015625 -0.75q1.5625 0 2.453125 0.859375q0.90625 0.859375 0.90625 2.375zm-2.203125 -0.15625q0 -2.0625 -1.484375 -2.0625q-1.25 0 -2.796875 1.59375q-1.546875 1.578125 -2.625 3.828125q-1.0625 2.25 -1.0625 4.03125q0 2.046875 1.5 2.046875q1.234375 0 2.78125 -1.578125q1.546875 -1.59375 2.609375 -3.84375q1.078125 -2.25 1.078125 -4.015625zm8.496689 9.65625l0.03125 0.5625q0 0.296875 -0.890625 0.296875q-1.578125 0 -1.578125 -0.59375q0 -0.59375 0.828125 -2.5625q0.84375 -1.984375 0.84375 -2.46875q0 -1.0 -1.21875 -1.0l-0.296875 0.015625q-0.21875 0 -0.21875 -0.15625q0 -0.359375 0.265625 -0.71875q0.265625 -0.375 0.671875 -0.375q1.703125 0 3.046875 -1.0q1.34375 -1.015625 1.34375 -2.125q0 -0.8125 -0.5 -1.125q-0.484375 -0.3125 -1.34375 -0.3125q-0.859375 0 -1.3125 0.515625q-1.09375 1.390625 -3.53125 5.78125q-2.4375 4.390625 -2.734375 5.40625q-0.171875 0.453125 -0.875 0.671875q-0.6875 0.234375 -1.359375 0.234375q-0.65625 0 -0.65625 -0.265625l0 -0.03125q0 -0.203125 1.28125 -2.390625q1.296875 -2.1875 2.84375 -4.859375q1.5625 -2.671875 2.015625 -3.703125q0.46875 -1.03125 0.46875 -1.734375l0 -0.1875q0 -0.5 2.828125 -0.5q3.046875 0 4.015625 0.609375q0.40625 0.265625 0.6875 0.765625q0.296875 0.5 0.296875 1.296875q0 0.78125 -0.640625 1.578125q-0.625 0.796875 -1.34375 1.1875q-0.71875 0.375 -1.4375 0.546875q-0.703125 0.171875 -1.0625 0.28125q-0.34375 0.109375 -0.34375 0.359375q0 0.140625 0.265625 0.359375q0.265625 0.21875 0.546875 0.515625q0.28125 0.296875 0.28125 0.640625q0 0.328125 -0.609375 1.921875q-0.609375 1.59375 -0.609375 2.5625zm2.906372 -4.140625q-0.140625 0 -0.171875 -0.171875q0 -0.3125 0.4375 -0.71875q0.453125 -0.40625 0.71875 -0.515625q0.28125 -0.125 1.8125 -0.15625l0.265625 -0.296875q5.671875 -6.546875 7.859375 -6.546875q0.1875 -0.03125 0.4375 -0.03125q1.28125 0 1.28125 0.625q0 0.109375 -0.234375 0.59375l-0.84375 1.671875q-0.59375 1.203125 -1.15625 2.4375q-3.015625 6.65625 -3.5 8.734375q0 0.140625 -0.390625 0.140625q-0.375 0 -0.921875 -0.421875q-0.546875 -0.421875 -0.546875 -0.734375q0 -0.578125 0.90625 -2.171875q0.921875 -1.609375 0.921875 -2.09375q0 -0.65625 -2.53125 -0.65625q-0.375 0 -1.15625 0.03125l-0.703125 0.9375q-1.3125 1.75 -2.5 4.34375q-0.21875 0.46875 -1.265625 0.46875q-1.03125 0 -1.03125 -0.296875q0 -0.203125 1.15625 -1.796875q1.171875 -1.59375 2.78125 -3.546875q-0.28125 0.046875 -0.71875 0.09375q-0.421875 0.03125 -0.65625 0.0625q-0.234375 0.015625 -0.25 0.015625zm7.734375 -2.40625q0.734375 -0.875 1.09375 -1.765625q0.359375 -0.90625 0.359375 -1.21875q0 -0.3125 -0.3125 -0.3125q-0.5625 0 -1.84375 1.1875q-1.28125 1.171875 -2.796875 2.953125l2.03125 0.03125q0.75 0 1.46875 -0.875zm6.2498474 6.6875q0 -0.828125 0.609375 -4.15625q0.609375 -3.34375 0.609375 -3.6875q0 -0.359375 -0.203125 -0.359375q-0.1875 0 -0.53125 0.40625q-0.328125 0.390625 -0.5625 0.75l-0.234375 0.390625q-1.5 2.453125 -3.375 6.484375q-0.375 0.8125 -0.71875 1.046875q-0.328125 0.234375 -0.953125 0.234375q-0.625 0 -0.625 -0.28125l0 -0.046875q0 -0.25 0.953125 -1.78125q3.640625 -5.828125 5.3125 -9.234375q0.4375 -0.859375 0.4375 -1.546875l0 -0.296875q0 -0.125 0.09375 -0.265625q0.109375 -0.140625 0.640625 -0.296875q0.546875 -0.171875 1.5 -0.171875q1.4375 0 1.4375 0.546875q0 0.171875 -0.765625 3.625q-0.765625 3.453125 -0.765625 4.171875q0 0.71875 0.140625 0.71875q0.234375 0 0.46875 -0.25q0.25 -0.25 0.375 -0.46875l0.140625 -0.234375q1.1875 -1.96875 2.140625 -3.890625q0.953125 -1.9375 1.390625 -2.84375q0.453125 -0.921875 0.796875 -1.15625q0.4843788 -0.28125 1.2187538 -0.28125q0.75 0 0.75 0.21875l0 0.03125q0 0.140625 -0.984375 1.578125q-0.9843788 1.4375 -2.6250038 4.046875q-1.625 2.59375 -2.84375 4.953125q-0.515625 1.21875 -0.515625 1.953125q0 0.21875 -0.09375 0.328125q-0.078125 0.109375 -0.578125 0.203125q-0.484375 0.109375 -1.015625 0.109375l-0.59375 0q-0.203125 0 -0.5 -0.09375q-0.53125 -0.140625 -0.53125 -0.453125zm12.392475 0.53125q-0.265625 0 -0.46875 -0.234375q-0.1875 -0.25 -0.234375 -0.484375l-0.0625 -0.25q-0.0625 -0.203125 -0.28125 -0.203125q-0.203125 0 -0.375 0.125q-1.75 1.390625 -3.2656288 1.390625q-1.9375 0 -1.9375 -2.59375q0 -0.921875 0.46875 -2.28125q0.484375 -1.359375 1.375 -2.84375q0.90625 -1.484375 2.0312538 -2.78125q1.125 -1.296875 2.609375 -2.125q1.484375 -0.84375 2.953125 -0.84375q0.8125 0 1.3125 0.265625q0.078125 0.046875 0.171875 0.046875q0.09375 0 0.1875 -0.0625q0.453125 -0.3125 1.1875 -0.3125q0.734375 0 0.734375 0.359375q0 0.4375 -0.9375 1.765625q-1.453125 2.078125 -2.390625 2.078125q-0.25 0 -0.328125 -0.03125q-0.078125 -0.046875 -0.078125 -0.15625q0 -0.109375 0.109375 -0.375q0.375 -0.78125 0.375 -1.296875q0 -0.515625 -0.203125 -0.78125q-0.1875 -0.28125 -0.8125 -0.28125q-1.109375 0 -2.65625 1.703125q-1.53125 1.6875 -2.640625 3.890625q-1.0937538 2.203125 -1.0937538 3.640625q0 1.21875 1.0000038 1.21875q0.78125 0 1.78125 -0.796875q1.0 -0.8125 1.640625 -1.734375q0.640625 -0.921875 0.640625 -1.3125q0 -0.40625 -0.390625 -0.5625q-0.390625 -0.15625 -1.5 -0.15625q-0.234375 0 -0.234375 -0.171875q0 -0.328125 0.359375 -0.65625q0.375 -0.34375 0.703125 -0.375q1.34375 -0.09375 2.828125 -0.09375q1.484375 0 1.484375 0.265625q0 0.21875 -0.25 0.6875q-0.25 0.46875 -0.40625 0.765625q-0.15625 0.28125 -0.46875 0.796875q-0.3125 0.515625 -0.5 0.8125q-0.1875 0.296875 -0.578125 0.90625q-0.375 0.59375 -0.59375 0.96875q-0.21875 0.375 -0.546875 1.0q-0.328125 0.609375 -0.484375 0.859375q-0.140625 0.25 -0.234375 0.25zm10.68306 -6.265625l-1.578125 -0.0625q-1.171875 0 -1.8125 0.765625q-0.453125 0.5625 -1.1875 1.84375q-0.734375 1.265625 -0.734375 2.0q0 0.6875 1.359375 0.6875q0.84375 0 1.796875 -0.3125q1.921875 -0.625 3.046875 -2.421875q0.125 -0.171875 0.4375 -0.171875q0.3125 0 0.3125 0.375q0 0.359375 -0.59375 1.515625q-0.59375 1.15625 -1.0625 1.734375q-0.234375 0.296875 -0.9375 0.328125q-0.703125 0.046875 -2.140625 0.046875l-1.828125 0l-1.0625 -0.015625l-0.5 -0.046875q-0.015625 0 -0.140625 0q-0.109375 0 -0.265625 0.171875q-0.625 0.546875 -1.765625 0.546875q-0.53125 0 -0.53125 -0.25l0 -0.0625q0 -0.203125 1.296875 -2.421875q1.296875 -2.234375 2.875 -4.96875q1.59375 -2.75 2.03125 -3.765625q0.453125 -1.015625 0.453125 -1.75l0 -0.203125q0 -0.3125 3.96875 -0.3125q1.3125 0 2.28125 0.03125q0.28125 -0.3125 1.4375 -0.3125q0.484375 0 0.484375 0.234375q0 0.4375 -0.859375 1.734375q-0.84375 1.296875 -1.46875 1.765625q-0.203125 0.15625 -0.53125 0.15625q-0.3125 0 -0.3125 -0.125q0 -0.0625 0.0625 -0.15625q0.296875 -0.578125 0.296875 -1.296875q0 -1.03125 -1.421875 -1.03125q-0.859375 0 -1.359375 0.453125q-0.484375 0.453125 -0.96875 1.25q-0.484375 0.796875 -0.71875 1.375q-0.234375 0.578125 -0.234375 0.734375q0 0.4375 0.4375 0.546875q0.4375 0.109375 1.75 0.109375l1.375 -0.0625q0.1875 0 0.1875 0.140625q0 0.140625 -0.203125 0.46875q-0.1875 0.328125 -0.390625 0.453125q-0.421875 0.28125 -1.28125 0.28125zm14.9696045 -3.90625q0 1.046875 -0.421875 2.390625q-0.421875 1.34375 -1.25 2.75q-0.8125 1.390625 -1.890625 2.578125q-1.0625 1.1875 -2.53125 1.953125q-1.46875 0.75 -3.03125 0.75q-1.546875 0 -2.453125 -0.859375q-0.890625 -0.875 -0.890625 -2.40625q0 -1.046875 0.421875 -2.390625q0.421875 -1.34375 1.234375 -2.734375q0.828125 -1.40625 1.890625 -2.578125q1.078125 -1.1875 2.546875 -1.9375q1.46875 -0.75 3.015625 -0.75q1.5625 0 2.453125 0.859375q0.90625 0.859375 0.90625 2.375zm-2.203125 -0.15625q0 -2.0625 -1.484375 -2.0625q-1.25 0 -2.796875 1.59375q-1.546875 1.578125 -2.625 3.828125q-1.0625 2.25 -1.0625 4.03125q0 2.046875 1.5 2.046875q1.234375 0 2.78125 -1.578125q1.546875 -1.59375 2.609375 -3.84375q1.078125 -2.25 1.078125 -4.015625zm8.496689 9.65625l0.03125 0.5625q0 0.296875 -0.890625 0.296875q-1.578125 0 -1.578125 -0.59375q0 -0.59375 0.828125 -2.5625q0.84375 -1.984375 0.84375 -2.46875q0 -1.0 -1.21875 -1.0l-0.296875 0.015625q-0.21875 0 -0.21875 -0.15625q0 -0.359375 0.265625 -0.71875q0.265625 -0.375 0.671875 -0.375q1.703125 0 3.046875 -1.0q1.34375 -1.015625 1.34375 -2.125q0 -0.8125 -0.5 -1.125q-0.484375 -0.3125 -1.34375 -0.3125q-0.859375 0 -1.3125 0.515625q-1.09375 1.390625 -3.53125 5.78125q-2.4375 4.390625 -2.734375 5.40625q-0.171875 0.453125 -0.875 0.671875q-0.6875 0.234375 -1.359375 0.234375q-0.65625 0 -0.65625 -0.265625l0 -0.03125q0 -0.203125 1.28125 -2.390625q1.296875 -2.1875 2.84375 -4.859375q1.5625 -2.671875 2.015625 -3.703125q0.46875 -1.03125 0.46875 -1.734375l0 -0.1875q0 -0.5 2.828125 -0.5q3.046875 0 4.015625 0.609375q0.40625 0.265625 0.6875 0.765625q0.296875 0.5 0.296875 1.296875q0 0.78125 -0.640625 1.578125q-0.625 0.796875 -1.34375 1.1875q-0.71875 0.375 -1.4375 0.546875q-0.703125 0.171875 -1.0625 0.28125q-0.34375 0.109375 -0.34375 0.359375q0 0.140625 0.265625 0.359375q0.265625 0.21875 0.546875 0.515625q0.28125 0.296875 0.28125 0.640625q0 0.328125 -0.609375 1.921875q-0.609375 1.59375 -0.609375 2.5625zm2.906372 -4.140625q-0.140625 0 -0.171875 -0.171875q0 -0.3125 0.4375 -0.71875q0.453125 -0.40625 0.71875 -0.515625q0.28125 -0.125 1.8125 -0.15625l0.265625 -0.296875q5.671875 -6.546875 7.859375 -6.546875q0.1875 -0.03125 0.4375 -0.03125q1.28125 0 1.28125 0.625q0 0.109375 -0.234375 0.59375l-0.84375 1.671875q-0.59375 1.203125 -1.15625 2.4375q-3.015625 6.65625 -3.5 8.734375q0 0.140625 -0.390625 0.140625q-0.375 0 -0.921875 -0.421875q-0.546875 -0.421875 -0.546875 -0.734375q0 -0.578125 0.90625 -2.171875q0.921875 -1.609375 0.921875 -2.09375q0 -0.65625 -2.53125 -0.65625q-0.375 0 -1.15625 0.03125l-0.703125 0.9375q-1.3125 1.75 -2.5 4.34375q-0.21875 0.46875 -1.265625 0.46875q-1.03125 0 -1.03125 -0.296875q0 -0.203125 1.15625 -1.796875q1.171875 -1.59375 2.78125 -3.546875q-0.28125 0.046875 -0.71875 0.09375q-0.421875 0.03125 -0.65625 0.0625q-0.234375 0.015625 -0.25 0.015625zm7.734375 -2.40625q0.734375 -0.875 1.09375 -1.765625q0.359375 -0.90625 0.359375 -1.21875q0 -0.3125 -0.3125 -0.3125q-0.5625 0 -1.84375 1.1875q-1.28125 1.171875 -2.796875 2.953125l2.03125 0.03125q0.75 0 1.46875 -0.875zm6.2498474 6.6875q0 -0.828125 0.609375 -4.15625q0.609375 -3.34375 0.609375 -3.6875q0 -0.359375 -0.203125 -0.359375q-0.1875 0 -0.53125 0.40625q-0.328125 0.390625 -0.5625 0.75l-0.234375 0.390625q-1.5 2.453125 -3.375 6.484375q-0.375 0.8125 -0.71875 1.046875q-0.328125 0.234375 -0.953125 0.234375q-0.625 0 -0.625 -0.28125l0 -0.046875q0 -0.25 0.953125 -1.78125q3.640625 -5.828125 5.3125 -9.234375q0.4375 -0.859375 0.4375 -1.546875l0 -0.296875q0 -0.125 0.09375 -0.265625q0.109375 -0.140625 0.640625 -0.296875q0.546875 -0.171875 1.5 -0.171875q1.4375 0 1.4375 0.546875q0 0.171875 -0.765625 3.625q-0.765625 3.453125 -0.765625 4.171875q0 0.71875 0.140625 0.71875q0.234375 0 0.46875 -0.25q0.25 -0.25 0.375 -0.46875l0.140625 -0.234375q1.1875 -1.96875 2.140625 -3.890625q0.953125 -1.9375 1.390625 -2.84375q0.453125 -0.921875 0.796875 -1.15625q0.484375 -0.28125 1.21875 -0.28125q0.75 0 0.75 0.21875l0 0.03125q0 0.140625 -0.984375 1.578125q-0.984375 1.4375 -2.625 4.046875q-1.625 2.59375 -2.84375 4.953125q-0.515625 1.21875 -0.515625 1.953125q0 0.21875 -0.09375 0.328125q-0.078125 0.109375 -0.578125 0.203125q-0.484375 0.109375 -1.015625 0.109375l-0.59375 0q-0.203125 0 -0.5 -0.09375q-0.53125 -0.140625 -0.53125 -0.453125zm12.392471 0.53125q-0.265625 0 -0.46875 -0.234375q-0.1875 -0.25 -0.234375 -0.484375l-0.0625 -0.25q-0.0625 -0.203125 -0.28125 -0.203125q-0.203125 0 -0.375 0.125q-1.75 1.390625 -3.265625 1.390625q-1.9375 0 -1.9375 -2.59375q0 -0.921875 0.46875 -2.28125q0.484375 -1.359375 1.375 -2.84375q0.90625 -1.484375 2.03125 -2.78125q1.125 -1.296875 2.609375 -2.125q1.484375 -0.84375 2.953125 -0.84375q0.8125 0 1.3125 0.265625q0.078125 0.046875 0.171875 0.046875q0.09375 0 0.1875 -0.0625q0.453125 -0.3125 1.1875 -0.3125q0.734375 0 0.734375 0.359375q0 0.4375 -0.9375 1.765625q-1.453125 2.078125 -2.390625 2.078125q-0.25 0 -0.328125 -0.03125q-0.078125 -0.046875 -0.078125 -0.15625q0 -0.109375 0.109375 -0.375q0.375 -0.78125 0.375 -1.296875q0 -0.515625 -0.203125 -0.78125q-0.1875 -0.28125 -0.8125 -0.28125q-1.109375 0 -2.65625 1.703125q-1.53125 1.6875 -2.640625 3.890625q-1.09375 2.203125 -1.09375 3.640625q0 1.21875 1.0 1.21875q0.78125 0 1.78125 -0.796875q1.0 -0.8125 1.640625 -1.734375q0.640625 -0.921875 0.640625 -1.3125q0 -0.40625 -0.390625 -0.5625q-0.390625 -0.15625 -1.5 -0.15625q-0.234375 0 -0.234375 -0.171875q0 -0.328125 0.359375 -0.65625q0.375 -0.34375 0.703125 -0.375q1.34375 -0.09375 2.828125 -0.09375q1.484375 0 1.484375 0.265625q0 0.21875 -0.25 0.6875q-0.25 0.46875 -0.40625 0.765625q-0.15625 0.28125 -0.46875 0.796875q-0.3125 0.515625 -0.5 0.8125q-0.1875 0.296875 -0.578125 0.90625q-0.375 0.59375 -0.59375 0.96875q-0.21875 0.375 -0.546875 1.0q-0.328125 0.609375 -0.484375 0.859375q-0.140625 0.25 -0.234375 0.25zm10.68306 -6.265625l-1.578125 -0.0625q-1.171875 0 -1.8125 0.765625q-0.453125 0.5625 -1.1875 1.84375q-0.734375 1.265625 -0.734375 2.0q0 0.6875 1.359375 0.6875q0.84375 0 1.796875 -0.3125q1.921875 -0.625 3.046875 -2.421875q0.125 -0.171875 0.4375 -0.171875q0.3125 0 0.3125 0.375q0 0.359375 -0.59375 1.515625q-0.59375 1.15625 -1.0625 1.734375q-0.234375 0.296875 -0.9375 0.328125q-0.703125 0.046875 -2.140625 0.046875l-1.828125 0l-1.0625 -0.015625l-0.5 -0.046875q-0.015625 0 -0.140625 0q-0.109375 0 -0.265625 0.171875q-0.625 0.546875 -1.765625 0.546875q-0.53125 0 -0.53125 -0.25l0 -0.0625q0 -0.203125 1.296875 -2.421875q1.296875 -2.234375 2.875 -4.96875q1.59375 -2.75 2.03125 -3.765625q0.453125 -1.015625 0.453125 -1.75l0 -0.203125q0 -0.3125 3.96875 -0.3125q1.3125 0 2.28125 0.03125q0.28125 -0.3125 1.4375 -0.3125q0.484375 0 0.484375 0.234375q0 0.4375 -0.859375 1.734375q-0.84375 1.296875 -1.46875 1.765625q-0.203125 0.15625 -0.53125 0.15625q-0.3125 0 -0.3125 -0.125q0 -0.0625 0.0625 -0.15625q0.296875 -0.578125 0.296875 -1.296875q0 -1.03125 -1.421875 -1.03125q-0.859375 0 -1.359375 0.453125q-0.484375 0.453125 -0.96875 1.25q-0.484375 0.796875 -0.71875 1.375q-0.234375 0.578125 -0.234375 0.734375q0 0.4375 0.4375 0.546875q0.4375 0.109375 1.75 0.109375l1.375 -0.0625q0.1875 0 0.1875 0.140625q0 0.140625 -0.203125 0.46875q-0.1875 0.328125 -0.390625 0.453125q-0.421875 0.28125 -1.28125 0.28125zm14.9696045 -3.90625q0 1.046875 -0.421875 2.390625q-0.421875 1.34375 -1.25 2.75q-0.8125 1.390625 -1.890625 2.578125q-1.0625 1.1875 -2.53125 1.953125q-1.46875 0.75 -3.03125 0.75q-1.546875 0 -2.453125 -0.859375q-0.890625 -0.875 -0.890625 -2.40625q0 -1.046875 0.421875 -2.390625q0.421875 -1.34375 1.234375 -2.734375q0.828125 -1.40625 1.890625 -2.578125q1.078125 -1.1875 2.546875 -1.9375q1.46875 -0.75 3.015625 -0.75q1.5625 0 2.453125 0.859375q0.90625 0.859375 0.90625 2.375zm-2.203125 -0.15625q0 -2.0625 -1.484375 -2.0625q-1.25 0 -2.796875 1.59375q-1.546875 1.578125 -2.625 3.828125q-1.0625 2.25 -1.0625 4.03125q0 2.046875 1.5 2.046875q1.234375 0 2.78125 -1.578125q1.546875 -1.59375 2.609375 -3.84375q1.078125 -2.25 1.078125 -4.015625zm8.496689 9.65625l0.03125 0.5625q0 0.296875 -0.890625 0.296875q-1.578125 0 -1.578125 -0.59375q0 -0.59375 0.828125 -2.5625q0.84375 -1.984375 0.84375 -2.46875q0 -1.0 -1.21875 -1.0l-0.296875 0.015625q-0.21875 0 -0.21875 -0.15625q0 -0.359375 0.265625 -0.71875q0.265625 -0.375 0.671875 -0.375q1.703125 0 3.046875 -1.0q1.34375 -1.015625 1.34375 -2.125q0 -0.8125 -0.5 -1.125q-0.484375 -0.3125 -1.34375 -0.3125q-0.859375 0 -1.3125 0.515625q-1.09375 1.390625 -3.53125 5.78125q-2.4375 4.390625 -2.734375 5.40625q-0.171875 0.453125 -0.875 0.671875q-0.6875 0.234375 -1.359375 0.234375q-0.65625 0 -0.65625 -0.265625l0 -0.03125q0 -0.203125 1.28125 -2.390625q1.296875 -2.1875 2.84375 -4.859375q1.5625 -2.671875 2.015625 -3.703125q0.46875 -1.03125 0.46875 -1.734375l0 -0.1875q0 -0.5 2.828125 -0.5q3.046875 0 4.015625 0.609375q0.40625 0.265625 0.6875 0.765625q0.296875 0.5 0.296875 1.296875q0 0.78125 -0.640625 1.578125q-0.625 0.796875 -1.34375 1.1875q-0.71875 0.375 -1.4375 0.546875q-0.703125 0.171875 -1.0625 0.28125q-0.34375 0.109375 -0.34375 0.359375q0 0.140625 0.265625 0.359375q0.265625 0.21875 0.546875 0.515625q0.28125 0.296875 0.28125 0.640625q0 0.328125 -0.609375 1.921875q-0.609375 1.59375 -0.609375 2.5625zm2.906372 -4.140625q-0.140625 0 -0.171875 -0.171875q0 -0.3125 0.4375 -0.71875q0.453125 -0.40625 0.71875 -0.515625q0.28125 -0.125 1.8125 -0.15625l0.265625 -0.296875q5.671875 -6.546875 7.859375 -6.546875q0.1875 -0.03125 0.4375 -0.03125q1.28125 0 1.28125 0.625q0 0.109375 -0.234375 0.59375l-0.84375 1.671875q-0.59375 1.203125 -1.15625 2.4375q-3.015625 6.65625 -3.5 8.734375q0 0.140625 -0.390625 0.140625q-0.375 0 -0.921875 -0.421875q-0.546875 -0.421875 -0.546875 -0.734375q0 -0.578125 0.90625 -2.171875q0.921875 -1.609375 0.921875 -2.09375q0 -0.65625 -2.53125 -0.65625q-0.375 0 -1.15625 0.03125l-0.703125 0.9375q-1.3125 1.75 -2.5 4.34375q-0.21875 0.46875 -1.265625 0.46875q-1.03125 0 -1.03125 -0.296875q0 -0.203125 1.15625 -1.796875q1.171875 -1.59375 2.78125 -3.546875q-0.28125 0.046875 -0.71875 0.09375q-0.421875 0.03125 -0.65625 0.0625q-0.234375 0.015625 -0.25 0.015625zm7.734375 -2.40625q0.734375 -0.875 1.09375 -1.765625q0.359375 -0.90625 0.359375 -1.21875q0 -0.3125 -0.3125 -0.3125q-0.5625 0 -1.84375 1.1875q-1.28125 1.171875 -2.796875 2.953125l2.03125 0.03125q0.75 0 1.46875 -0.875zm6.2498474 6.6875q0 -0.828125 0.609375 -4.15625q0.609375 -3.34375 0.609375 -3.6875q0 -0.359375 -0.203125 -0.359375q-0.1875 0 -0.53125 0.40625q-0.328125 0.390625 -0.5625 0.75l-0.234375 0.390625q-1.5 2.453125 -3.375 6.484375q-0.375 0.8125 -0.71875 1.046875q-0.328125 0.234375 -0.953125 0.234375q-0.625 0 -0.625 -0.28125l0 -0.046875q0 -0.25 0.953125 -1.78125q3.640625 -5.828125 5.3125 -9.234375q0.4375 -0.859375 0.4375 -1.546875l0 -0.296875q0 -0.125 0.09375 -0.265625q0.109375 -0.140625 0.640625 -0.296875q0.546875 -0.171875 1.5 -0.171875q1.4375 0 1.4375 0.546875q0 0.171875 -0.765625 3.625q-0.765625 3.453125 -0.765625 4.171875q0 0.71875 0.140625 0.71875q0.234375 0 0.46875 -0.25q0.25 -0.25 0.375 -0.46875l0.140625 -0.234375q1.1875 -1.96875 2.140625 -3.890625q0.953125 -1.9375 1.390625 -2.84375q0.453125 -0.921875 0.796875 -1.15625q0.484375 -0.28125 1.21875 -0.28125q0.75 0 0.75 0.21875l0 0.03125q0 0.140625 -0.984375 1.578125q-0.984375 1.4375 -2.625 4.046875q-1.625 2.59375 -2.84375 4.953125q-0.515625 1.21875 -0.515625 1.953125q0 0.21875 -0.09375 0.328125q-0.078125 0.109375 -0.578125 0.203125q-0.484375 0.109375 -1.015625 0.109375l-0.59375 0q-0.203125 0 -0.5 -0.09375q-0.53125 -0.140625 -0.53125 -0.453125zm12.392471 0.53125q-0.265625 0 -0.46875 -0.234375q-0.1875 -0.25 -0.234375 -0.484375l-0.0625 -0.25q-0.0625 -0.203125 -0.28125 -0.203125q-0.203125 0 -0.375 0.125q-1.75 1.390625 -3.265625 1.390625q-1.9375 0 -1.9375 -2.59375q0 -0.921875 0.46875 -2.28125q0.484375 -1.359375 1.375 -2.84375q0.90625 -1.484375 2.03125 -2.78125q1.125 -1.296875 2.609375 -2.125q1.484375 -0.84375 2.953125 -0.84375q0.8125 0 1.3125 0.265625q0.078125 0.046875 0.171875 0.046875q0.09375 0 0.1875 -0.0625q0.453125 -0.3125 1.1875 -0.3125q0.734375 0 0.734375 0.359375q0 0.4375 -0.9375 1.765625q-1.453125 2.078125 -2.390625 2.078125q-0.25 0 -0.328125 -0.03125q-0.078125 -0.046875 -0.078125 -0.15625q0 -0.109375 0.109375 -0.375q0.375 -0.78125 0.375 -1.296875q0 -0.515625 -0.203125 -0.78125q-0.1875 -0.28125 -0.8125 -0.28125q-1.109375 0 -2.65625 1.703125q-1.53125 1.6875 -2.640625 3.890625q-1.09375 2.203125 -1.09375 3.640625q0 1.21875 1.0 1.21875q0.78125 0 1.78125 -0.796875q1.0 -0.8125 1.640625 -1.734375q0.640625 -0.921875 0.640625 -1.3125q0 -0.40625 -0.390625 -0.5625q-0.390625 -0.15625 -1.5 -0.15625q-0.234375 0 -0.234375 -0.171875q0 -0.328125 0.359375 -0.65625q0.375 -0.34375 0.703125 -0.375q1.34375 -0.09375 2.828125 -0.09375q1.484375 0 1.484375 0.265625q0 0.21875 -0.25 0.6875q-0.25 0.46875 -0.40625 0.765625q-0.15625 0.28125 -0.46875 0.796875q-0.3125 0.515625 -0.5 0.8125q-0.1875 0.296875 -0.578125 0.90625q-0.375 0.59375 -0.59375 0.96875q-0.21875 0.375 -0.546875 1.0q-0.328125 0.609375 -0.484375 0.859375q-0.140625 0.25 -0.234375 0.25zm10.68306 -6.265625l-1.578125 -0.0625q-1.171875 0 -1.8125 0.765625q-0.453125 0.5625 -1.1875 1.84375q-0.734375 1.265625 -0.734375 2.0q0 0.6875 1.359375 0.6875q0.84375 0 1.796875 -0.3125q1.921875 -0.625 3.046875 -2.421875q0.125 -0.171875 0.4375 -0.171875q0.3125 0 0.3125 0.375q0 0.359375 -0.59375 1.515625q-0.59375 1.15625 -1.0625 1.734375q-0.234375 0.296875 -0.9375 0.328125q-0.703125 0.046875 -2.140625 0.046875l-1.828125 0l-1.0625 -0.015625l-0.5 -0.046875q-0.015625 0 -0.140625 0q-0.109375 0 -0.265625 0.171875q-0.625 0.546875 -1.765625 0.546875q-0.53125 0 -0.53125 -0.25l0 -0.0625q0 -0.203125 1.296875 -2.421875q1.296875 -2.234375 2.875 -4.96875q1.59375 -2.75 2.03125 -3.765625q0.453125 -1.015625 0.453125 -1.75l0 -0.203125q0 -0.3125 3.96875 -0.3125q1.3125 0 2.28125 0.03125q0.28125 -0.3125 1.4375 -0.3125q0.484375 0 0.484375 0.234375q0 0.4375 -0.859375 1.734375q-0.84375 1.296875 -1.46875 1.765625q-0.203125 0.15625 -0.53125 0.15625q-0.3125 0 -0.3125 -0.125q0 -0.0625 0.0625 -0.15625q0.296875 -0.578125 0.296875 -1.296875q0 -1.03125 -1.421875 -1.03125q-0.859375 0 -1.359375 0.453125q-0.484375 0.453125 -0.96875 1.25q-0.484375 0.796875 -0.71875 1.375q-0.234375 0.578125 -0.234375 0.734375q0 0.4375 0.4375 0.546875q0.4375 0.109375 1.75 0.109375l1.375 -0.0625q0.1875 0 0.1875 0.140625q0 0.140625 -0.203125 0.46875q-0.1875 0.328125 -0.390625 0.453125q-0.421875 0.28125 -1.28125 0.28125zm1.857727 5.546875q0 -0.4375 0.484375 -0.859375q0.484375 -0.421875 1.0 -0.421875q1.03125 0 1.03125 0.640625q0 0.5 -0.484375 0.90625q-0.484375 0.40625 -1.03125 0.40625q-1.0 0 -1.0 -0.671875zm3.9375 0q0 -0.4375 0.484375 -0.859375q0.484375 -0.421875 1.0 -0.421875q1.03125 0 1.03125 0.640625q0 0.5 -0.484375 0.90625q-0.484375 0.40625 -1.015625 0.40625q-1.015625 0 -1.015625 -0.671875zm3.9375 0q0 -0.4375 0.484375 -0.859375q0.484375 -0.421875 1.0 -0.421875q1.03125 0 1.03125 0.640625q0 0.5 -0.484375 0.90625q-0.484375 0.40625 -1.03125 0.40625q-1.0 0 -1.0 -0.671875z" fill-rule="nonzero"/></g></svg>