<?xml version="1.0" standalone="no"?>
<!DOCTYPE svg PUBLIC "-//W3C//DTD SVG 20010904//EN"
 "http://www.w3.org/TR/2001/REC-SVG-20010904/DTD/svg10.dtd">
<svg version="1.0" xmlns="http://www.w3.org/2000/svg"
 width="470.000000pt" height="470.000000pt" viewBox="0 0 470.000000 470.000000"
 preserveAspectRatio="xMidYMid meet">
<metadata>
Created by potrace 1.14, written by Peter Selinger 2001-2017
</metadata>
<g transform="translate(0.000000,470.000000) scale(0.100000,-0.100000)"
fill="#000000" stroke="none">
<path d="M1900 4364 c-295 -45 -682 -105 -830 -129 -47 -7 -215 -28 -375 -45
-159 -18 -293 -36 -297 -39 -7 -6 -91 -583 -137 -941 -11 -85 -41 -261 -66
-390 -72 -370 -86 -442 -91 -485 l-5 -40 118 -58 c65 -33 437 -218 826 -414
390 -195 712 -353 716 -351 5 2 64 56 131 121 l122 118 47 -43 c26 -24 130
-115 231 -203 101 -88 263 -230 360 -315 97 -85 221 -193 275 -240 54 -47 160
-139 235 -205 74 -66 202 -178 285 -250 82 -72 190 -166 240 -211 100 -90 123
-104 146 -95 9 3 51 44 94 91 43 47 127 135 185 196 59 61 110 119 113 128 9
24 -2 42 -110 179 l-93 119 157 100 c87 55 223 141 303 192 134 84 145 94 145
121 0 43 -348 505 -380 505 -29 0 -29 0 -241 -234 -104 -114 -209 -230 -234
-258 l-45 -49 -42 55 c-46 59 -50 71 -29 83 13 8 142 112 386 315 65 53 120
104 124 114 11 28 13 26 -251 302 -118 123 -171 172 -187 172 -17 0 -43 -27
-103 -107 -44 -60 -128 -173 -188 -253 -59 -80 -111 -146 -115 -148 -8 -3 -87
96 -363 450 -97 126 -177 231 -177 236 0 4 59 66 130 137 72 71 130 135 130
142 0 6 -70 157 -156 335 -86 178 -182 377 -214 443 -32 66 -139 285 -238 487
-99 202 -183 376 -187 388 -8 26 -5 26 -345 -26z m-596 -630 c55 -20 196 -71
311 -114 116 -43 273 -99 350 -125 77 -27 142 -50 143 -51 7 -5 -30 -849 -36
-855 -13 -12 -911 -239 -943 -239 -8 0 -31 28 -52 63 -44 73 -71 115 -269 423
-81 127 -148 236 -148 244 0 7 24 43 54 79 43 54 180 229 405 520 47 61 73 91
78 91 3 0 51 -16 107 -36z"/>
</g>
</svg>
